<mxfile host="app.diagrams.net" modified="2024-04-25T09:00:57.832Z" agent="Mozilla/5.0 (Windows NT 10.0; Win64; x64) AppleWebKit/537.36 (KHTML, like Gecko) Chrome/124.0.0.0 Safari/537.36" etag="aDghqleTzZ9KBvvo5uyE" version="24.2.8" type="github">
  <diagram name="第 1 页" id="aLO83ZtC7wvcvIQsTGbZ">
    <mxGraphModel dx="2872" dy="708" grid="1" gridSize="10" guides="1" tooltips="1" connect="1" arrows="1" fold="1" page="1" pageScale="1" pageWidth="827" pageHeight="1169" math="0" shadow="0">
      <root>
        <mxCell id="0" />
        <mxCell id="1" parent="0" />
        <UserObject label="" plantUmlData="{&quot;data&quot;:&quot;@startuml\n\nleft to right direction\nskinparam packageStyle rectangle\n\nactor \&quot;普通用户\&quot; as User\nactor \&quot;管理员\&quot; as Admin\n\nrectangle \&quot;壁纸小程序\&quot; {\n    usecase \&quot;授权登录\&quot; as Login\n    usecase \&quot;查看壁纸\&quot; as ViewWallpaper\n    usecase \&quot;搜索壁纸\&quot; as SearchWallpaper\n    usecase \&quot;投稿壁纸\&quot; as SubmitWallpaper\n    usecase \&quot;下载壁纸\&quot; as DownloadWallpaper\n    usecase \&quot;签到\&quot; as CheckIn\n    usecase \&quot;邀请好友\&quot; as InviteFriends\n    usecase \&quot;点赞\&quot; as Like\n    usecase \&quot;收藏\&quot; as Collect\n    usecase \&quot;意见反馈\&quot; as Feedback\n\n    usecase \&quot;轮播图管理\&quot; as ManageCarousel\n    usecase \&quot;分类管理\&quot; as ManageCategories\n    usecase \&quot;用户管理\&quot; as ManageUsers\n    usecase \&quot;作品管理\&quot; as ManageArtworks\n    usecase \&quot;标签管理\&quot; as ManageTags\n    usecase \&quot;系统配置\&quot; as SystemConfig\n\n    User --&gt; Login\n    User --&gt; ViewWallpaper\n    User --&gt; SearchWallpaper\n    User --&gt; SubmitWallpaper\n    User --&gt; DownloadWallpaper\n    User --&gt; CheckIn\n    User --&gt; InviteFriends\n    User --&gt; Like\n    User --&gt; Collect\n    User --&gt; Feedback\n\n    Admin --&gt; ManageCarousel\n    Admin --&gt; ManageCategories\n    Admin --&gt; ManageUsers\n    Admin --&gt; ManageArtworks\n    Admin --&gt; ManageTags\n    Admin --&gt; SystemConfig\n}\n\n@enduml\n&quot;,&quot;format&quot;:&quot;svg&quot;}" id="3U-3EoWDj0iMzqLdLdJn-1">
          <mxCell style="shape=image;noLabel=1;verticalAlign=top;aspect=fixed;imageAspect=0;image=data:image/svg+xml,PD94bWwgdmVyc2lvbj0iMS4wIiBlbmNvZGluZz0idXMtYXNjaWkiIHN0YW5kYWxvbmU9Im5vIj8+PHN2ZyB4bWxucz0iaHR0cDovL3d3dy53My5vcmcvMjAwMC9zdmciIHhtbG5zOnhsaW5rPSJodHRwOi8vd3d3LnczLm9yZy8xOTk5L3hsaW5rIiBjb250ZW50U3R5bGVUeXBlPSJ0ZXh0L2NzcyIgaGVpZ2h0PSIxMDIycHgiIHByZXNlcnZlQXNwZWN0UmF0aW89Im5vbmUiIHN0eWxlPSJ3aWR0aDoyNjFweDtoZWlnaHQ6MTAyMnB4O2JhY2tncm91bmQ6I0ZGRkZGRjsiIHZlcnNpb249IjEuMSIgdmlld0JveD0iMCAwIDI2MSAxMDIyIiB3aWR0aD0iMjYxcHgiIHpvb21BbmRQYW49Im1hZ25pZnkiPjxkZWZzLz48Zz48IS0tY2x1c3RlciA/Pz8/Py0tPjxnIGlkPSJjbHVzdGVyXyYjMjI3MjE7JiMzMjQ0MDsmIzIzNTY3OyYjMzEyNDM7JiMyNDIwNzsiPjxyZWN0IGZpbGw9Im5vbmUiIGhlaWdodD0iMTAwOSIgcng9IjIuNSIgcnk9IjIuNSIgc3R5bGU9InN0cm9rZTojMTgxODE4O3N0cm9rZS13aWR0aDoxLjA7IiB3aWR0aD0iMTQ5IiB4PSIxMDYiIHk9IjciLz48dGV4dCBmaWxsPSIjMDAwMDAwIiBmb250LWZhbWlseT0ic2Fucy1zZXJpZiIgZm9udC1zaXplPSIxNCIgZm9udC13ZWlnaHQ9ImJvbGQiIGxlbmd0aEFkanVzdD0ic3BhY2luZyIgdGV4dExlbmd0aD0iNzAiIHg9IjE0NS41IiB5PSIyMi4yMzQ0Ij4mIzIyNzIxOyYjMzI0NDA7JiMyMzU2NzsmIzMxMjQzOyYjMjQyMDc7PC90ZXh0PjwvZz48ZyBpZD0iZWxlbV9Mb2dpbiI+PGVsbGlwc2UgY3g9IjE4MC41ODMzIiBjeT0iNTQuMDk1NiIgZmlsbD0iI0YxRjFGMSIgcng9IjUxLjA4MzMiIHJ5PSIxMy41OTU2IiBzdHlsZT0ic3Ryb2tlOiMxODE4MTg7c3Ryb2tlLXdpZHRoOjAuNTsiLz48dGV4dCBmaWxsPSIjMDAwMDAwIiBmb250LWZhbWlseT0ic2Fucy1zZXJpZiIgZm9udC1zaXplPSIxNCIgbGVuZ3RoQWRqdXN0PSJzcGFjaW5nIiB0ZXh0TGVuZ3RoPSI1NiIgeD0iMTUyLjU4MzMiIHk9IjU3LjgzNzciPiYjMjU0ODA7JiMyNjQzNTsmIzMwMzMxOyYjMjQ0MDU7PC90ZXh0PjwvZz48ZyBpZD0iZWxlbV9WaWV3V2FsbHBhcGVyIj48ZWxsaXBzZSBjeD0iMTgwLjU4MzMiIGN5PSIxMTYuMDk1NiIgZmlsbD0iI0YxRjFGMSIgcng9IjUxLjA4MzMiIHJ5PSIxMy41OTU2IiBzdHlsZT0ic3Ryb2tlOiMxODE4MTg7c3Ryb2tlLXdpZHRoOjAuNTsiLz48dGV4dCBmaWxsPSIjMDAwMDAwIiBmb250LWZhbWlseT0ic2Fucy1zZXJpZiIgZm9udC1zaXplPSIxNCIgbGVuZ3RoQWRqdXN0PSJzcGFjaW5nIiB0ZXh0TGVuZ3RoPSI1NiIgeD0iMTUyLjU4MzMiIHk9IjExOS44Mzc3Ij4mIzI2NTk3OyYjMzA0NzU7JiMyMjcyMTsmIzMyNDQwOzwvdGV4dD48L2c+PGcgaWQ9ImVsZW1fU2VhcmNoV2FsbHBhcGVyIj48ZWxsaXBzZSBjeD0iMTgwLjU4MzMiIGN5PSIxNzguMDk1NiIgZmlsbD0iI0YxRjFGMSIgcng9IjUxLjA4MzMiIHJ5PSIxMy41OTU2IiBzdHlsZT0ic3Ryb2tlOiMxODE4MTg7c3Ryb2tlLXdpZHRoOjAuNTsiLz48dGV4dCBmaWxsPSIjMDAwMDAwIiBmb250LWZhbWlseT0ic2Fucy1zZXJpZiIgZm9udC1zaXplPSIxNCIgbGVuZ3RoQWRqdXN0PSJzcGFjaW5nIiB0ZXh0TGVuZ3RoPSI1NiIgeD0iMTUyLjU4MzMiIHk9IjE4MS44Mzc3Ij4mIzI1NjI4OyYjMzIwMzQ7JiMyMjcyMTsmIzMyNDQwOzwvdGV4dD48L2c+PGcgaWQ9ImVsZW1fU3VibWl0V2FsbHBhcGVyIj48ZWxsaXBzZSBjeD0iMTgwLjU4MzMiIGN5PSIyNDAuMDk1NiIgZmlsbD0iI0YxRjFGMSIgcng9IjUxLjA4MzMiIHJ5PSIxMy41OTU2IiBzdHlsZT0ic3Ryb2tlOiMxODE4MTg7c3Ryb2tlLXdpZHRoOjAuNTsiLz48dGV4dCBmaWxsPSIjMDAwMDAwIiBmb250LWZhbWlseT0ic2Fucy1zZXJpZiIgZm9udC1zaXplPSIxNCIgbGVuZ3RoQWRqdXN0PSJzcGFjaW5nIiB0ZXh0TGVuZ3RoPSI1NiIgeD0iMTUyLjU4MzMiIHk9IjI0My44Mzc3Ij4mIzI1MjM3OyYjMzEyOTU7JiMyMjcyMTsmIzMyNDQwOzwvdGV4dD48L2c+PGcgaWQ9ImVsZW1fRG93bmxvYWRXYWxscGFwZXIiPjxlbGxpcHNlIGN4PSIxODAuNTgzMyIgY3k9IjMwMi4wOTU2IiBmaWxsPSIjRjFGMUYxIiByeD0iNTEuMDgzMyIgcnk9IjEzLjU5NTYiIHN0eWxlPSJzdHJva2U6IzE4MTgxODtzdHJva2Utd2lkdGg6MC41OyIvPjx0ZXh0IGZpbGw9IiMwMDAwMDAiIGZvbnQtZmFtaWx5PSJzYW5zLXNlcmlmIiBmb250LXNpemU9IjE0IiBsZW5ndGhBZGp1c3Q9InNwYWNpbmciIHRleHRMZW5ndGg9IjU2IiB4PSIxNTIuNTgzMyIgeT0iMzA1LjgzNzciPiYjMTk5Nzk7JiMzNjczMzsmIzIyNzIxOyYjMzI0NDA7PC90ZXh0PjwvZz48ZyBpZD0iZWxlbV9DaGVja0luIj48ZWxsaXBzZSBjeD0iMTgwLjI4NDMiIGN5PSIzNjQuMDk1NiIgZmlsbD0iI0YxRjFGMSIgcng9IjMxLjI4NDMiIHJ5PSIxMy41OTU2IiBzdHlsZT0ic3Ryb2tlOiMxODE4MTg7c3Ryb2tlLXdpZHRoOjAuNTsiLz48dGV4dCBmaWxsPSIjMDAwMDAwIiBmb250LWZhbWlseT0ic2Fucy1zZXJpZiIgZm9udC1zaXplPSIxNCIgbGVuZ3RoQWRqdXN0PSJzcGFjaW5nIiB0ZXh0TGVuZ3RoPSIyOCIgeD0iMTY2LjI4NDMiIHk9IjM2Ny44Mzc3Ij4mIzMxNjE0OyYjMjEwNDA7PC90ZXh0PjwvZz48ZyBpZD0iZWxlbV9JbnZpdGVGcmllbmRzIj48ZWxsaXBzZSBjeD0iMTgwLjU4MzMiIGN5PSI0MjYuMDk1NiIgZmlsbD0iI0YxRjFGMSIgcng9IjUxLjA4MzMiIHJ5PSIxMy41OTU2IiBzdHlsZT0ic3Ryb2tlOiMxODE4MTg7c3Ryb2tlLXdpZHRoOjAuNTsiLz48dGV4dCBmaWxsPSIjMDAwMDAwIiBmb250LWZhbWlseT0ic2Fucy1zZXJpZiIgZm9udC1zaXplPSIxNCIgbGVuZ3RoQWRqdXN0PSJzcGFjaW5nIiB0ZXh0TGVuZ3RoPSI1NiIgeD0iMTUyLjU4MzMiIHk9IjQyOS44Mzc3Ij4mIzM2OTkyOyYjMzU4MzE7JiMyMjkwOTsmIzIxNDUxOzwvdGV4dD48L2c+PGcgaWQ9ImVsZW1fTGlrZSI+PGVsbGlwc2UgY3g9IjE4MC4yODQzIiBjeT0iNDg4LjA5NTYiIGZpbGw9IiNGMUYxRjEiIHJ4PSIzMS4yODQzIiByeT0iMTMuNTk1NiIgc3R5bGU9InN0cm9rZTojMTgxODE4O3N0cm9rZS13aWR0aDowLjU7Ii8+PHRleHQgZmlsbD0iIzAwMDAwMCIgZm9udC1mYW1pbHk9InNhbnMtc2VyaWYiIGZvbnQtc2l6ZT0iMTQiIGxlbmd0aEFkanVzdD0ic3BhY2luZyIgdGV4dExlbmd0aD0iMjgiIHg9IjE2Ni4yODQzIiB5PSI0OTEuODM3NyI+JiMyODg1NzsmIzM2MTkwOzwvdGV4dD48L2c+PGcgaWQ9ImVsZW1fQ29sbGVjdCI+PGVsbGlwc2UgY3g9IjE4MC4yODQzIiBjeT0iNTUwLjA5NTYiIGZpbGw9IiNGMUYxRjEiIHJ4PSIzMS4yODQzIiByeT0iMTMuNTk1NiIgc3R5bGU9InN0cm9rZTojMTgxODE4O3N0cm9rZS13aWR0aDowLjU7Ii8+PHRleHQgZmlsbD0iIzAwMDAwMCIgZm9udC1mYW1pbHk9InNhbnMtc2VyaWYiIGZvbnQtc2l6ZT0iMTQiIGxlbmd0aEFkanVzdD0ic3BhY2luZyIgdGV4dExlbmd0aD0iMjgiIHg9IjE2Ni4yODQzIiB5PSI1NTMuODM3NyI+JiMyNTkxMDsmIzM0MjU1OzwvdGV4dD48L2c+PGcgaWQ9ImVsZW1fRmVlZGJhY2siPjxlbGxpcHNlIGN4PSIxODAuNTgzMyIgY3k9IjYxMi4wOTU2IiBmaWxsPSIjRjFGMUYxIiByeD0iNTEuMDgzMyIgcnk9IjEzLjU5NTYiIHN0eWxlPSJzdHJva2U6IzE4MTgxODtzdHJva2Utd2lkdGg6MC41OyIvPjx0ZXh0IGZpbGw9IiMwMDAwMDAiIGZvbnQtZmFtaWx5PSJzYW5zLXNlcmlmIiBmb250LXNpemU9IjE0IiBsZW5ndGhBZGp1c3Q9InNwYWNpbmciIHRleHRMZW5ndGg9IjU2IiB4PSIxNTIuNTgzMyIgeT0iNjE1LjgzNzciPiYjMjQ4NDc7JiMzNTI2NTsmIzIxNDUzOyYjMzkzMDQ7PC90ZXh0PjwvZz48ZyBpZD0iZWxlbV9NYW5hZ2VDYXJvdXNlbCI+PGVsbGlwc2UgY3g9IjE4MC41MzY3IiBjeT0iNjc1LjEwNzMiIGZpbGw9IiNGMUYxRjEiIHJ4PSI1OC41MzY3IiByeT0iMTQuMTA3MyIgc3R5bGU9InN0cm9rZTojMTgxODE4O3N0cm9rZS13aWR0aDowLjU7Ii8+PHRleHQgZmlsbD0iIzAwMDAwMCIgZm9udC1mYW1pbHk9InNhbnMtc2VyaWYiIGZvbnQtc2l6ZT0iMTQiIGxlbmd0aEFkanVzdD0ic3BhY2luZyIgdGV4dExlbmd0aD0iNzAiIHg9IjE0NS41MzY3IiB5PSI2NzguODQ5NSI+JiMzNjcxODsmIzI1NzczOyYjMjIyNzA7JiMzMTY0OTsmIzI5NzAyOzwvdGV4dD48L2c+PGcgaWQ9ImVsZW1fTWFuYWdlQ2F0ZWdvcmllcyI+PGVsbGlwc2UgY3g9IjE4MC41ODMzIiBjeT0iNzM4LjA5NTYiIGZpbGw9IiNGMUYxRjEiIHJ4PSI1MS4wODMzIiByeT0iMTMuNTk1NiIgc3R5bGU9InN0cm9rZTojMTgxODE4O3N0cm9rZS13aWR0aDowLjU7Ii8+PHRleHQgZmlsbD0iIzAwMDAwMCIgZm9udC1mYW1pbHk9InNhbnMtc2VyaWYiIGZvbnQtc2l6ZT0iMTQiIGxlbmd0aEFkanVzdD0ic3BhY2luZyIgdGV4dExlbmd0aD0iNTYiIHg9IjE1Mi41ODMzIiB5PSI3NDEuODM3NyI+JiMyMDk5ODsmIzMxODY3OyYjMzE2NDk7JiMyOTcwMjs8L3RleHQ+PC9nPjxnIGlkPSJlbGVtX01hbmFnZVVzZXJzIj48ZWxsaXBzZSBjeD0iMTgwLjU4MzMiIGN5PSI4MDAuMDk1NiIgZmlsbD0iI0YxRjFGMSIgcng9IjUxLjA4MzMiIHJ5PSIxMy41OTU2IiBzdHlsZT0ic3Ryb2tlOiMxODE4MTg7c3Ryb2tlLXdpZHRoOjAuNTsiLz48dGV4dCBmaWxsPSIjMDAwMDAwIiBmb250LWZhbWlseT0ic2Fucy1zZXJpZiIgZm9udC1zaXplPSIxNCIgbGVuZ3RoQWRqdXN0PSJzcGFjaW5nIiB0ZXh0TGVuZ3RoPSI1NiIgeD0iMTUyLjU4MzMiIHk9IjgwMy44Mzc3Ij4mIzI5OTkyOyYjMjUxNDM7JiMzMTY0OTsmIzI5NzAyOzwvdGV4dD48L2c+PGcgaWQ9ImVsZW1fTWFuYWdlQXJ0d29ya3MiPjxlbGxpcHNlIGN4PSIxODAuNTgzMyIgY3k9Ijg2Mi4wOTU2IiBmaWxsPSIjRjFGMUYxIiByeD0iNTEuMDgzMyIgcnk9IjEzLjU5NTYiIHN0eWxlPSJzdHJva2U6IzE4MTgxODtzdHJva2Utd2lkdGg6MC41OyIvPjx0ZXh0IGZpbGw9IiMwMDAwMDAiIGZvbnQtZmFtaWx5PSJzYW5zLXNlcmlmIiBmb250LXNpemU9IjE0IiBsZW5ndGhBZGp1c3Q9InNwYWNpbmciIHRleHRMZW5ndGg9IjU2IiB4PSIxNTIuNTgzMyIgeT0iODY1LjgzNzciPiYjMjAzMTY7JiMyMTY5NzsmIzMxNjQ5OyYjMjk3MDI7PC90ZXh0PjwvZz48ZyBpZD0iZWxlbV9NYW5hZ2VUYWdzIj48ZWxsaXBzZSBjeD0iMTgwLjU4MzMiIGN5PSI5MjQuMDk1NiIgZmlsbD0iI0YxRjFGMSIgcng9IjUxLjA4MzMiIHJ5PSIxMy41OTU2IiBzdHlsZT0ic3Ryb2tlOiMxODE4MTg7c3Ryb2tlLXdpZHRoOjAuNTsiLz48dGV4dCBmaWxsPSIjMDAwMDAwIiBmb250LWZhbWlseT0ic2Fucy1zZXJpZiIgZm9udC1zaXplPSIxNCIgbGVuZ3RoQWRqdXN0PSJzcGFjaW5nIiB0ZXh0TGVuZ3RoPSI1NiIgeD0iMTUyLjU4MzMiIHk9IjkyNy44Mzc3Ij4mIzI2NjMxOyYjMzE2MTQ7JiMzMTY0OTsmIzI5NzAyOzwvdGV4dD48L2c+PGcgaWQ9ImVsZW1fU3lzdGVtQ29uZmlnIj48ZWxsaXBzZSBjeD0iMTgwLjU4MzMiIGN5PSI5ODYuMDk1NiIgZmlsbD0iI0YxRjFGMSIgcng9IjUxLjA4MzMiIHJ5PSIxMy41OTU2IiBzdHlsZT0ic3Ryb2tlOiMxODE4MTg7c3Ryb2tlLXdpZHRoOjAuNTsiLz48dGV4dCBmaWxsPSIjMDAwMDAwIiBmb250LWZhbWlseT0ic2Fucy1zZXJpZiIgZm9udC1zaXplPSIxNCIgbGVuZ3RoQWRqdXN0PSJzcGFjaW5nIiB0ZXh0TGVuZ3RoPSI1NiIgeD0iMTUyLjU4MzMiIHk9Ijk4OS44Mzc3Ij4mIzMxOTk1OyYjMzI0Nzk7JiMzNzE5NzsmIzMyNjIyOzwvdGV4dD48L2c+PCEtLWVudGl0eSBVc2VyLS0+PGcgaWQ9ImVsZW1fVXNlciI+PGVsbGlwc2UgY3g9IjM0IiBjeT0iMzA0IiBmaWxsPSIjRjFGMUYxIiByeD0iOCIgcnk9IjgiIHN0eWxlPSJzdHJva2U6IzE4MTgxODtzdHJva2Utd2lkdGg6MC41OyIvPjxwYXRoIGQ9Ik0zNCwzMTIgTDM0LDMzOSBNMjEsMzIwIEw0NywzMjAgTTM0LDMzOSBMMjEsMzU0IE0zNCwzMzkgTDQ3LDM1NCAiIGZpbGw9Im5vbmUiIHN0eWxlPSJzdHJva2U6IzE4MTgxODtzdHJva2Utd2lkdGg6MC41OyIvPjx0ZXh0IGZpbGw9IiMwMDAwMDAiIGZvbnQtZmFtaWx5PSJzYW5zLXNlcmlmIiBmb250LXNpemU9IjE0IiBsZW5ndGhBZGp1c3Q9InNwYWNpbmciIHRleHRMZW5ndGg9IjU2IiB4PSI2IiB5PSIzNjguNzM0NCI+JiMyNjIyMjsmIzM2ODkwOyYjMjk5OTI7JiMyNTE0Mzs8L3RleHQ+PC9nPjwhLS1lbnRpdHkgQWRtaW4tLT48ZyBpZD0iZWxlbV9BZG1pbiI+PGVsbGlwc2UgY3g9IjM0IiBjeT0iODAyIiBmaWxsPSIjRjFGMUYxIiByeD0iOCIgcnk9IjgiIHN0eWxlPSJzdHJva2U6IzE4MTgxODtzdHJva2Utd2lkdGg6MC41OyIvPjxwYXRoIGQ9Ik0zNCw4MTAgTDM0LDgzNyBNMjEsODE4IEw0Nyw4MTggTTM0LDgzNyBMMjEsODUyIE0zNCw4MzcgTDQ3LDg1MiAiIGZpbGw9Im5vbmUiIHN0eWxlPSJzdHJva2U6IzE4MTgxODtzdHJva2Utd2lkdGg6MC41OyIvPjx0ZXh0IGZpbGw9IiMwMDAwMDAiIGZvbnQtZmFtaWx5PSJzYW5zLXNlcmlmIiBmb250LXNpemU9IjE0IiBsZW5ndGhBZGp1c3Q9InNwYWNpbmciIHRleHRMZW5ndGg9IjQyIiB4PSIxMyIgeT0iODY2LjczNDQiPiYjMzE2NDk7JiMyOTcwMjsmIzIxNTkyOzwvdGV4dD48L2c+PCEtLWxpbmsgVXNlciB0byBMb2dpbi0tPjxnIGlkPSJsaW5rX1VzZXJfTG9naW4iPjxwYXRoIGQ9Ik0zNC4zMSwyOTUuMyBDMzUuMzcsMjQxLjk2IDQ1LjA5LDE0NC4zNiA5OCw4NSBDMTA4LjM4LDczLjM2IDExNy44NzcxLDY3Ljg3MjIgMTMyLjM1NzEsNjMuMzEyMiAiIGZpbGw9Im5vbmUiIGlkPSJVc2VyLXRvLUxvZ2luIiBzdHlsZT0ic3Ryb2tlOiMxODE4MTg7c3Ryb2tlLXdpZHRoOjEuMDsiLz48cG9seWdvbiBmaWxsPSIjMTgxODE4IiBwb2ludHM9IjEzOC4wOCw2MS41MSwxMjguMjk0MSw2MC4zOTgxLDEzMy4zMTA5LDYzLjAxMTksMTMwLjY5NzEsNjguMDI4NywxMzguMDgsNjEuNTEiIHN0eWxlPSJzdHJva2U6IzE4MTgxODtzdHJva2Utd2lkdGg6MS4wOyIvPjwvZz48IS0tbGluayBVc2VyIHRvIFZpZXdXYWxscGFwZXItLT48ZyBpZD0ibGlua19Vc2VyX1ZpZXdXYWxscGFwZXIiPjxwYXRoIGQ9Ik0zOC4zMiwyOTUuMzEgQzQzLjksMjUzLjg2IDU4LjczLDE4Ny43NSA5OCwxNDcgQzEwOC44MiwxMzUuNzcgMTE4LjQxNDYsMTMwLjM4NTkgMTMyLjg0NDYsMTI1Ljc3NTkgIiBmaWxsPSJub25lIiBpZD0iVXNlci10by1WaWV3V2FsbHBhcGVyIiBzdHlsZT0ic3Ryb2tlOiMxODE4MTg7c3Ryb2tlLXdpZHRoOjEuMDsiLz48cG9seWdvbiBmaWxsPSIjMTgxODE4IiBwb2ludHM9IjEzOC41NiwxMjMuOTUsMTI4Ljc2OTYsMTIyLjg3ODYsMTMzLjc5NzIsMTI1LjQ3MTYsMTMxLjIwNDIsMTMwLjQ5OTIsMTM4LjU2LDEyMy45NSIgc3R5bGU9InN0cm9rZTojMTgxODE4O3N0cm9rZS13aWR0aDoxLjA7Ii8+PC9nPjwhLS1saW5rIFVzZXIgdG8gU2VhcmNoV2FsbHBhcGVyLS0+PGcgaWQ9ImxpbmtfVXNlcl9TZWFyY2hXYWxscGFwZXIiPjxwYXRoIGQ9Ik00NS45OCwyOTUuMzQgQzU1LjY3LDI2OC4wNyA3Mi4zMiwyMzIuMDggOTgsMjA5IEMxMDkuODIsMTk4LjM4IDExOS45NTEzLDE5My4wOTY3IDEzNC41MTEzLDE4OC4zODY3ICIgZmlsbD0ibm9uZSIgaWQ9IlVzZXItdG8tU2VhcmNoV2FsbHBhcGVyIiBzdHlsZT0ic3Ryb2tlOiMxODE4MTg7c3Ryb2tlLXdpZHRoOjEuMDsiLz48cG9seWdvbiBmaWxsPSIjMTgxODE4IiBwb2ludHM9IjE0MC4yMiwxODYuNTQsMTMwLjQyNTgsMTg1LjUwNDIsMTM1LjQ2MjcsMTg4LjA3ODksMTMyLjg4OCwxOTMuMTE1OSwxNDAuMjIsMTg2LjU0IiBzdHlsZT0ic3Ryb2tlOiMxODE4MTg7c3Ryb2tlLXdpZHRoOjEuMDsiLz48L2c+PCEtLWxpbmsgVXNlciB0byBTdWJtaXRXYWxscGFwZXItLT48ZyBpZD0ibGlua19Vc2VyX1N1Ym1pdFdhbGxwYXBlciI+PHBhdGggZD0iTTYyLjI4LDMwMS4yMiBDNzIuNjUsMjkwLjU2IDg1LjA4LDI3OS4yOSA5OCwyNzEgQzExMi4yNywyNjEuODQgMTIzLjk2NDQsMjU2LjY4NjYgMTM5LjAwNDQsMjUxLjYxNjYgIiBmaWxsPSJub25lIiBpZD0iVXNlci10by1TdWJtaXRXYWxscGFwZXIiIHN0eWxlPSJzdHJva2U6IzE4MTgxODtzdHJva2Utd2lkdGg6MS4wOyIvPjxwb2x5Z29uIGZpbGw9IiMxODE4MTgiIHBvaW50cz0iMTQ0LjY5LDI0OS43LDEzNC44ODM4LDI0OC43ODQ1LDEzOS45NTIsMjUxLjI5NzIsMTM3LjQzOTMsMjU2LjM2NTQsMTQ0LjY5LDI0OS43IiBzdHlsZT0ic3Ryb2tlOiMxODE4MTg7c3Ryb2tlLXdpZHRoOjEuMDsiLz48L2c+PCEtLWxpbmsgVXNlciB0byBEb3dubG9hZFdhbGxwYXBlci0tPjxnIGlkPSJsaW5rX1VzZXJfRG93bmxvYWRXYWxscGFwZXIiPjxwYXRoIGQ9Ik02Mi4xOCwzMjcuMTcgQzg0LjI1LDMyMi40MyAxMDkuODAzMywzMTYuOTQ3NyAxMzQuNTczMywzMTEuNjM3NyAiIGZpbGw9Im5vbmUiIGlkPSJVc2VyLXRvLURvd25sb2FkV2FsbHBhcGVyIiBzdHlsZT0ic3Ryb2tlOiMxODE4MTg7c3Ryb2tlLXdpZHRoOjEuMDsiLz48cG9seWdvbiBmaWxsPSIjMTgxODE4IiBwb2ludHM9IjE0MC40NCwzMTAuMzgsMTMwLjgwMTUsMzA4LjM1NTMsMTM1LjU1MTEsMzExLjQyOCwxMzIuNDc4NCwzMTYuMTc3NiwxNDAuNDQsMzEwLjM4IiBzdHlsZT0ic3Ryb2tlOiMxODE4MTg7c3Ryb2tlLXdpZHRoOjEuMDsiLz48L2c+PCEtLWxpbmsgVXNlciB0byBDaGVja0luLS0+PGcgaWQ9ImxpbmtfVXNlcl9DaGVja0luIj48cGF0aCBkPSJNNjIuMTgsMzM4LjgzIEM4Ny44NSwzNDQuMzQgMTIwLjI5MzQsMzUxLjMwMiAxNDYuMDgzNCwzNTYuODMyICIgZmlsbD0ibm9uZSIgaWQ9IlVzZXItdG8tQ2hlY2tJbiIgc3R5bGU9InN0cm9rZTojMTgxODE4O3N0cm9rZS13aWR0aDoxLjA7Ii8+PHBvbHlnb24gZmlsbD0iIzE4MTgxOCIgcG9pbnRzPSIxNTEuOTUsMzU4LjA5LDE0My45ODg3LDM1Mi4yOTIsMTQ3LjA2MTEsMzU3LjA0MTcsMTQyLjMxMTQsMzYwLjExNDIsMTUxLjk1LDM1OC4wOSIgc3R5bGU9InN0cm9rZTojMTgxODE4O3N0cm9rZS13aWR0aDoxLjA7Ii8+PC9nPjwhLS1saW5rIFVzZXIgdG8gSW52aXRlRnJpZW5kcy0tPjxnIGlkPSJsaW5rX1VzZXJfSW52aXRlRnJpZW5kcyI+PHBhdGggZD0iTTYyLjI4LDM2NC43OCBDNzIuNjUsMzc1LjQ0IDg1LjA4LDM4Ni43MSA5OCwzOTUgQzExMi4yNyw0MDQuMTYgMTIzLjk2NDQsNDA5LjMxMzQgMTM5LjAwNDQsNDE0LjM4MzQgIiBmaWxsPSJub25lIiBpZD0iVXNlci10by1JbnZpdGVGcmllbmRzIiBzdHlsZT0ic3Ryb2tlOiMxODE4MTg7c3Ryb2tlLXdpZHRoOjEuMDsiLz48cG9seWdvbiBmaWxsPSIjMTgxODE4IiBwb2ludHM9IjE0NC42OSw0MTYuMywxMzcuNDM5Myw0MDkuNjM0NiwxMzkuOTUyLDQxNC43MDI4LDEzNC44ODM4LDQxNy4yMTU1LDE0NC42OSw0MTYuMyIgc3R5bGU9InN0cm9rZTojMTgxODE4O3N0cm9rZS13aWR0aDoxLjA7Ii8+PC9nPjwhLS1saW5rIFVzZXIgdG8gTGlrZS0tPjxnIGlkPSJsaW5rX1VzZXJfTGlrZSI+PHBhdGggZD0iTTQ1Ljk4LDM3MC42NiBDNTUuNjcsMzk3LjkzIDcyLjMyLDQzMy45MiA5OCw0NTcgQzExMi44Niw0NzAuMzYgMTI4LjI2NDUsNDc2LjY2NDggMTQ1LjMxNDUsNDgxLjExNDggIiBmaWxsPSJub25lIiBpZD0iVXNlci10by1MaWtlIiBzdHlsZT0ic3Ryb2tlOiMxODE4MTg7c3Ryb2tlLXdpZHRoOjEuMDsiLz48cG9seWdvbiBmaWxsPSIjMTgxODE4IiBwb2ludHM9IjE1MS4xMiw0ODIuNjMsMTQzLjQyMTksNDc2LjQ4NjgsMTQ2LjI4MjEsNDgxLjM2NzMsMTQxLjQwMTYsNDg0LjIyNzUsMTUxLjEyLDQ4Mi42MyIgc3R5bGU9InN0cm9rZTojMTgxODE4O3N0cm9rZS13aWR0aDoxLjA7Ii8+PC9nPjwhLS1saW5rIFVzZXIgdG8gQ29sbGVjdC0tPjxnIGlkPSJsaW5rX1VzZXJfQ29sbGVjdCI+PHBhdGggZD0iTTM4LjMyLDM3MC42OSBDNDMuOSw0MTIuMTQgNTguNzMsNDc4LjI1IDk4LDUxOSBDMTExLjk3LDUzMy41IDEyNy41ODM5LDUzOS45MDczIDE0NC45NzM5LDU0NC4wNTczICIgZmlsbD0ibm9uZSIgaWQ9IlVzZXItdG8tQ29sbGVjdCIgc3R5bGU9InN0cm9rZTojMTgxODE4O3N0cm9rZS13aWR0aDoxLjA7Ii8+PHBvbHlnb24gZmlsbD0iIzE4MTgxOCIgcG9pbnRzPSIxNTAuODEsNTQ1LjQ1LDE0Mi45ODQzLDUzOS40NzAxLDE0NS45NDY2LDU0NC4yODk0LDE0MS4xMjczLDU0Ny4yNTE2LDE1MC44MSw1NDUuNDUiIHN0eWxlPSJzdHJva2U6IzE4MTgxODtzdHJva2Utd2lkdGg6MS4wOyIvPjwvZz48IS0tbGluayBVc2VyIHRvIEZlZWRiYWNrLS0+PGcgaWQ9ImxpbmtfVXNlcl9GZWVkYmFjayI+PHBhdGggZD0iTTM0LjMxLDM3MC43IEMzNS4zNyw0MjQuMDQgNDUuMDksNTIxLjY0IDk4LDU4MSBDMTA4LjM4LDU5Mi42NCAxMTcuODc3MSw1OTguMTI3OCAxMzIuMzU3MSw2MDIuNjg3OCAiIGZpbGw9Im5vbmUiIGlkPSJVc2VyLXRvLUZlZWRiYWNrIiBzdHlsZT0ic3Ryb2tlOiMxODE4MTg7c3Ryb2tlLXdpZHRoOjEuMDsiLz48cG9seWdvbiBmaWxsPSIjMTgxODE4IiBwb2ludHM9IjEzOC4wOCw2MDQuNDksMTMwLjY5NzEsNTk3Ljk3MTMsMTMzLjMxMDksNjAyLjk4ODEsMTI4LjI5NDEsNjA1LjYwMTksMTM4LjA4LDYwNC40OSIgc3R5bGU9InN0cm9rZTojMTgxODE4O3N0cm9rZS13aWR0aDoxLjA7Ii8+PC9nPjwhLS1saW5rIEFkbWluIHRvIE1hbmFnZUNhcm91c2VsLS0+PGcgaWQ9ImxpbmtfQWRtaW5fTWFuYWdlQ2Fyb3VzZWwiPjxwYXRoIGQ9Ik00Ni4wNSw3OTMuNDIgQzU1Ljc4LDc2Ni4xOSA3Mi40NCw3MzAuMjIgOTgsNzA3IEMxMDkuMjUsNjk2Ljc4IDExOC40ODUyLDY5MS42Mzc0IDEzMi40NjUyLDY4Ni43NTc0ICIgZmlsbD0ibm9uZSIgaWQ9IkFkbWluLXRvLU1hbmFnZUNhcm91c2VsIiBzdHlsZT0ic3Ryb2tlOiMxODE4MTg7c3Ryb2tlLXdpZHRoOjEuMDsiLz48cG9seWdvbiBmaWxsPSIjMTgxODE4IiBwb2ludHM9IjEzOC4xMyw2ODQuNzgsMTI4LjMxNDUsNjgzLjk2OTYsMTMzLjQwOTMsNjg2LjQyNzgsMTMwLjk1MTEsNjkxLjUyMjYsMTM4LjEzLDY4NC43OCIgc3R5bGU9InN0cm9rZTojMTgxODE4O3N0cm9rZS13aWR0aDoxLjA7Ii8+PC9nPjwhLS1saW5rIEFkbWluIHRvIE1hbmFnZUNhdGVnb3JpZXMtLT48ZyBpZD0ibGlua19BZG1pbl9NYW5hZ2VDYXRlZ29yaWVzIj48cGF0aCBkPSJNNTUuMiw4MDYuNzQgQzY2LjcsNzk0LjE0IDgxLjk4LDc3OS4yOCA5OCw3NjkgQzExMi4yNyw3NTkuODQgMTIzLjk2NDQsNzU0LjY4NjYgMTM5LjAwNDQsNzQ5LjYxNjYgIiBmaWxsPSJub25lIiBpZD0iQWRtaW4tdG8tTWFuYWdlQ2F0ZWdvcmllcyIgc3R5bGU9InN0cm9rZTojMTgxODE4O3N0cm9rZS13aWR0aDoxLjA7Ii8+PHBvbHlnb24gZmlsbD0iIzE4MTgxOCIgcG9pbnRzPSIxNDQuNjksNzQ3LjcsMTM0Ljg4MzgsNzQ2Ljc4NDUsMTM5Ljk1Miw3NDkuMjk3MiwxMzcuNDM5Myw3NTQuMzY1NCwxNDQuNjksNzQ3LjciIHN0eWxlPSJzdHJva2U6IzE4MTgxODtzdHJva2Utd2lkdGg6MS4wOyIvPjwvZz48IS0tbGluayBBZG1pbiB0byBNYW5hZ2VVc2Vycy0tPjxnIGlkPSJsaW5rX0FkbWluX01hbmFnZVVzZXJzIj48cGF0aCBkPSJNNTUuMDksODI2LjY5IEM3Ny4wNCw4MjEuOTggMTA2Ljg2MzEsODE1LjU3NjkgMTM0LjQwMzEsODA5LjY3NjkgIiBmaWxsPSJub25lIiBpZD0iQWRtaW4tdG8tTWFuYWdlVXNlcnMiIHN0eWxlPSJzdHJva2U6IzE4MTgxODtzdHJva2Utd2lkdGg6MS4wOyIvPjxwb2x5Z29uIGZpbGw9IiMxODE4MTgiIHBvaW50cz0iMTQwLjI3LDgwOC40MiwxMzAuNjMxOCw4MDYuMzk0MSwxMzUuMzgwOSw4MDkuNDY3NCwxMzIuMzA3Niw4MTQuMjE2NiwxNDAuMjcsODA4LjQyIiBzdHlsZT0ic3Ryb2tlOiMxODE4MTg7c3Ryb2tlLXdpZHRoOjEuMDsiLz48L2c+PCEtLWxpbmsgQWRtaW4gdG8gTWFuYWdlQXJ0d29ya3MtLT48ZyBpZD0ibGlua19BZG1pbl9NYW5hZ2VBcnR3b3JrcyI+PHBhdGggZD0iTTU1LjA5LDgzNS4zMSBDNzcuMDQsODQwLjAyIDEwNi44NjMxLDg0Ni40MjMxIDEzNC40MDMxLDg1Mi4zMjMxICIgZmlsbD0ibm9uZSIgaWQ9IkFkbWluLXRvLU1hbmFnZUFydHdvcmtzIiBzdHlsZT0ic3Ryb2tlOiMxODE4MTg7c3Ryb2tlLXdpZHRoOjEuMDsiLz48cG9seWdvbiBmaWxsPSIjMTgxODE4IiBwb2ludHM9IjE0MC4yNyw4NTMuNTgsMTMyLjMwNzYsODQ3Ljc4MzQsMTM1LjM4MDksODUyLjUzMjYsMTMwLjYzMTgsODU1LjYwNTksMTQwLjI3LDg1My41OCIgc3R5bGU9InN0cm9rZTojMTgxODE4O3N0cm9rZS13aWR0aDoxLjA7Ii8+PC9nPjwhLS1saW5rIEFkbWluIHRvIE1hbmFnZVRhZ3MtLT48ZyBpZD0ibGlua19BZG1pbl9NYW5hZ2VUYWdzIj48cGF0aCBkPSJNNTUuMiw4NTUuMjYgQzY2LjcsODY3Ljg2IDgxLjk4LDg4Mi43MiA5OCw4OTMgQzExMi4yNyw5MDIuMTYgMTIzLjk2NDQsOTA3LjMxMzQgMTM5LjAwNDQsOTEyLjM4MzQgIiBmaWxsPSJub25lIiBpZD0iQWRtaW4tdG8tTWFuYWdlVGFncyIgc3R5bGU9InN0cm9rZTojMTgxODE4O3N0cm9rZS13aWR0aDoxLjA7Ii8+PHBvbHlnb24gZmlsbD0iIzE4MTgxOCIgcG9pbnRzPSIxNDQuNjksOTE0LjMsMTM3LjQzOTMsOTA3LjYzNDYsMTM5Ljk1Miw5MTIuNzAyOCwxMzQuODgzOCw5MTUuMjE1NSwxNDQuNjksOTE0LjMiIHN0eWxlPSJzdHJva2U6IzE4MTgxODtzdHJva2Utd2lkdGg6MS4wOyIvPjwvZz48IS0tbGluayBBZG1pbiB0byBTeXN0ZW1Db25maWctLT48ZyBpZD0ibGlua19BZG1pbl9TeXN0ZW1Db25maWciPjxwYXRoIGQ9Ik00NS45OCw4NjguNjYgQzU1LjY3LDg5NS45MyA3Mi4zMiw5MzEuOTIgOTgsOTU1IEMxMDkuODIsOTY1LjYyIDExOS45NTEzLDk3MC45MDMzIDEzNC41MTEzLDk3NS42MTMzICIgZmlsbD0ibm9uZSIgaWQ9IkFkbWluLXRvLVN5c3RlbUNvbmZpZyIgc3R5bGU9InN0cm9rZTojMTgxODE4O3N0cm9rZS13aWR0aDoxLjA7Ii8+PHBvbHlnb24gZmlsbD0iIzE4MTgxOCIgcG9pbnRzPSIxNDAuMjIsOTc3LjQ2LDEzMi44ODgsOTcwLjg4NDEsMTM1LjQ2MjcsOTc1LjkyMTEsMTMwLjQyNTgsOTc4LjQ5NTgsMTQwLjIyLDk3Ny40NiIgc3R5bGU9InN0cm9rZTojMTgxODE4O3N0cm9rZS13aWR0aDoxLjA7Ii8+PC9nPjwhLS1TUkM9W1RQRkJKamowNThSdFZlZkh6aG4yOVBHQTJRYlRxU2p3aTBUZFBDU0paT1Q2MjVLWWpBTE04c2hRV2JmZU1kZUg5SGkyZzFTZWFVZEJDMXhkQkplUDJyXzZaZlZkX3RKY2RGRl9UajRBMHVtMFlrcU0wblFjbzZJT1U4UmxPQXkzQU1vMzNaR1RRQUNiamtPWUM5TVhQeGw4Q0EzOTIwTURVN3lxc0pXR2t5Q3VrNlcwdzhFN0ZnQXRlWFh6NUpqUl9DcTdmU25SUlVtUEhqTzNERlp0ZGhZd3Y2VVg2RlJ2TFRXMHdtUUd0d2dGSkVYQkZOdVRuOS1VWVZxblpfUEtZdGw0Yll0QXBFNkg2RkpKSmVmdlg1N3RDTkpUM2twOElTaGlwYTN5LWJQV2JuMmFQY2lNX01mRjNGeUx3VE5iRGNPcHc5bEJWWDk1MVZla3dOZWtXVE9DTmZuU3ktMUNhU3FNQ2ZyNVJRXzl2YVBvVWk2RjhYeHM1Uk5lRlM0Q0JMMkNGQ2xOVWN0LUpOdl9KWS00N1FJamlWaWRVSC1jM243TmJUVk56RVRYU2pwWnVWUmFIdzJlMU9JaVBVY3dLVVFJUTFJX0ZVNFZockRONU5lVlVaOFJKS1k5bkRtb3B1Q2pTSndrV0hjb1lUbjJ0cTU1Zzg5RnV3SUhEejYwbC1qTG83ZEFrZUd3NlhuX1VJYWxOTzRWRzVqX18tVE9aMHlkQnhQNUQ0aFRObENQUVpVOWp1Qmp6MUpKTVMzU3Q5cjIzQkRJRE5NUEwxVW9OQXA5TDJSTUhvWUpZeGQ5WWpNT3Y2RlZQWUZsSzBYNExZcHhoX3ZRTFF5bmtvZ01wRE5idDRuVEFQY2RZdmJQa0wwb3YtYl9dLS0+PC9nPjwvc3ZnPg==;" parent="1" vertex="1">
            <mxGeometry x="-760" y="390" width="261" height="1022" as="geometry" />
          </mxCell>
        </UserObject>
        <UserObject label="" plantUmlData="{&quot;data&quot;:&quot;@startuml\n\nleft to right direction\nskinparam packageStyle rectangle\n\nactor \&quot;管理员\&quot; as Admin\n\nrectangle \&quot;管理端\&quot; {\n    usecase \&quot;轮播图管理\&quot; as ManageCarousel\n    usecase \&quot;分类管理\&quot; as ManageCategories\n    usecase \&quot;用户管理\&quot; as ManageUsers\n    usecase \&quot;作品管理\&quot; as ManageArtworks\n    usecase \&quot;标签管理\&quot; as ManageTags\n    usecase \&quot;系统配置\&quot; as SystemConfig\n\n    Admin --&gt; ManageCarousel\n    Admin --&gt; ManageCategories\n    Admin --&gt; ManageUsers\n    Admin --&gt; ManageArtworks\n    Admin --&gt; ManageTags\n    Admin --&gt; SystemConfig\n}\n\n@enduml\n&quot;,&quot;format&quot;:&quot;svg&quot;}" id="3U-3EoWDj0iMzqLdLdJn-2">
          <mxCell style="shape=image;noLabel=1;verticalAlign=top;aspect=fixed;imageAspect=0;image=data:image/svg+xml,PD94bWwgdmVyc2lvbj0iMS4wIiBlbmNvZGluZz0idXMtYXNjaWkiIHN0YW5kYWxvbmU9Im5vIj8+PHN2ZyB4bWxucz0iaHR0cDovL3d3dy53My5vcmcvMjAwMC9zdmciIHhtbG5zOnhsaW5rPSJodHRwOi8vd3d3LnczLm9yZy8xOTk5L3hsaW5rIiBjb250ZW50U3R5bGVUeXBlPSJ0ZXh0L2NzcyIgaGVpZ2h0PSI0MDFweCIgcHJlc2VydmVBc3BlY3RSYXRpbz0ibm9uZSIgc3R5bGU9IndpZHRoOjI0N3B4O2hlaWdodDo0MDFweDtiYWNrZ3JvdW5kOiNGRkZGRkY7IiB2ZXJzaW9uPSIxLjEiIHZpZXdCb3g9IjAgMCAyNDcgNDAxIiB3aWR0aD0iMjQ3cHgiIHpvb21BbmRQYW49Im1hZ25pZnkiPjxkZWZzLz48Zz48IS0tY2x1c3RlciA/Pz8tLT48ZyBpZD0iY2x1c3Rlcl8mIzMxNjQ5OyYjMjk3MDI7JiMzMTQ3MTsiPjxyZWN0IGZpbGw9Im5vbmUiIGhlaWdodD0iMzg4IiByeD0iMi41IiByeT0iMi41IiBzdHlsZT0ic3Ryb2tlOiMxODE4MTg7c3Ryb2tlLXdpZHRoOjEuMDsiIHdpZHRoPSIxNDkiIHg9IjkyIiB5PSI3Ii8+PHRleHQgZmlsbD0iIzAwMDAwMCIgZm9udC1mYW1pbHk9InNhbnMtc2VyaWYiIGZvbnQtc2l6ZT0iMTQiIGZvbnQtd2VpZ2h0PSJib2xkIiBsZW5ndGhBZGp1c3Q9InNwYWNpbmciIHRleHRMZW5ndGg9IjQyIiB4PSIxNDUuNSIgeT0iMjIuMjM0NCI+JiMzMTY0OTsmIzI5NzAyOyYjMzE0NzE7PC90ZXh0PjwvZz48ZyBpZD0iZWxlbV9NYW5hZ2VDYXJvdXNlbCI+PGVsbGlwc2UgY3g9IjE2Ni41MzY3IiBjeT0iNTQuMTA3MyIgZmlsbD0iI0YxRjFGMSIgcng9IjU4LjUzNjciIHJ5PSIxNC4xMDczIiBzdHlsZT0ic3Ryb2tlOiMxODE4MTg7c3Ryb2tlLXdpZHRoOjAuNTsiLz48dGV4dCBmaWxsPSIjMDAwMDAwIiBmb250LWZhbWlseT0ic2Fucy1zZXJpZiIgZm9udC1zaXplPSIxNCIgbGVuZ3RoQWRqdXN0PSJzcGFjaW5nIiB0ZXh0TGVuZ3RoPSI3MCIgeD0iMTMxLjUzNjciIHk9IjU3Ljg0OTUiPiYjMzY3MTg7JiMyNTc3MzsmIzIyMjcwOyYjMzE2NDk7JiMyOTcwMjs8L3RleHQ+PC9nPjxnIGlkPSJlbGVtX01hbmFnZUNhdGVnb3JpZXMiPjxlbGxpcHNlIGN4PSIxNjYuNTgzMyIgY3k9IjExNy4wOTU2IiBmaWxsPSIjRjFGMUYxIiByeD0iNTEuMDgzMyIgcnk9IjEzLjU5NTYiIHN0eWxlPSJzdHJva2U6IzE4MTgxODtzdHJva2Utd2lkdGg6MC41OyIvPjx0ZXh0IGZpbGw9IiMwMDAwMDAiIGZvbnQtZmFtaWx5PSJzYW5zLXNlcmlmIiBmb250LXNpemU9IjE0IiBsZW5ndGhBZGp1c3Q9InNwYWNpbmciIHRleHRMZW5ndGg9IjU2IiB4PSIxMzguNTgzMyIgeT0iMTIwLjgzNzciPiYjMjA5OTg7JiMzMTg2NzsmIzMxNjQ5OyYjMjk3MDI7PC90ZXh0PjwvZz48ZyBpZD0iZWxlbV9NYW5hZ2VVc2VycyI+PGVsbGlwc2UgY3g9IjE2Ni41ODMzIiBjeT0iMTc5LjA5NTYiIGZpbGw9IiNGMUYxRjEiIHJ4PSI1MS4wODMzIiByeT0iMTMuNTk1NiIgc3R5bGU9InN0cm9rZTojMTgxODE4O3N0cm9rZS13aWR0aDowLjU7Ii8+PHRleHQgZmlsbD0iIzAwMDAwMCIgZm9udC1mYW1pbHk9InNhbnMtc2VyaWYiIGZvbnQtc2l6ZT0iMTQiIGxlbmd0aEFkanVzdD0ic3BhY2luZyIgdGV4dExlbmd0aD0iNTYiIHg9IjEzOC41ODMzIiB5PSIxODIuODM3NyI+JiMyOTk5MjsmIzI1MTQzOyYjMzE2NDk7JiMyOTcwMjs8L3RleHQ+PC9nPjxnIGlkPSJlbGVtX01hbmFnZUFydHdvcmtzIj48ZWxsaXBzZSBjeD0iMTY2LjU4MzMiIGN5PSIyNDEuMDk1NiIgZmlsbD0iI0YxRjFGMSIgcng9IjUxLjA4MzMiIHJ5PSIxMy41OTU2IiBzdHlsZT0ic3Ryb2tlOiMxODE4MTg7c3Ryb2tlLXdpZHRoOjAuNTsiLz48dGV4dCBmaWxsPSIjMDAwMDAwIiBmb250LWZhbWlseT0ic2Fucy1zZXJpZiIgZm9udC1zaXplPSIxNCIgbGVuZ3RoQWRqdXN0PSJzcGFjaW5nIiB0ZXh0TGVuZ3RoPSI1NiIgeD0iMTM4LjU4MzMiIHk9IjI0NC44Mzc3Ij4mIzIwMzE2OyYjMjE2OTc7JiMzMTY0OTsmIzI5NzAyOzwvdGV4dD48L2c+PGcgaWQ9ImVsZW1fTWFuYWdlVGFncyI+PGVsbGlwc2UgY3g9IjE2Ni41ODMzIiBjeT0iMzAzLjA5NTYiIGZpbGw9IiNGMUYxRjEiIHJ4PSI1MS4wODMzIiByeT0iMTMuNTk1NiIgc3R5bGU9InN0cm9rZTojMTgxODE4O3N0cm9rZS13aWR0aDowLjU7Ii8+PHRleHQgZmlsbD0iIzAwMDAwMCIgZm9udC1mYW1pbHk9InNhbnMtc2VyaWYiIGZvbnQtc2l6ZT0iMTQiIGxlbmd0aEFkanVzdD0ic3BhY2luZyIgdGV4dExlbmd0aD0iNTYiIHg9IjEzOC41ODMzIiB5PSIzMDYuODM3NyI+JiMyNjYzMTsmIzMxNjE0OyYjMzE2NDk7JiMyOTcwMjs8L3RleHQ+PC9nPjxnIGlkPSJlbGVtX1N5c3RlbUNvbmZpZyI+PGVsbGlwc2UgY3g9IjE2Ni41ODMzIiBjeT0iMzY1LjA5NTYiIGZpbGw9IiNGMUYxRjEiIHJ4PSI1MS4wODMzIiByeT0iMTMuNTk1NiIgc3R5bGU9InN0cm9rZTojMTgxODE4O3N0cm9rZS13aWR0aDowLjU7Ii8+PHRleHQgZmlsbD0iIzAwMDAwMCIgZm9udC1mYW1pbHk9InNhbnMtc2VyaWYiIGZvbnQtc2l6ZT0iMTQiIGxlbmd0aEFkanVzdD0ic3BhY2luZyIgdGV4dExlbmd0aD0iNTYiIHg9IjEzOC41ODMzIiB5PSIzNjguODM3NyI+JiMzMTk5NTsmIzMyNDc5OyYjMzcxOTc7JiMzMjYyMjs8L3RleHQ+PC9nPjwhLS1lbnRpdHkgQWRtaW4tLT48ZyBpZD0iZWxlbV9BZG1pbiI+PGVsbGlwc2UgY3g9IjI3IiBjeT0iMTgxIiBmaWxsPSIjRjFGMUYxIiByeD0iOCIgcnk9IjgiIHN0eWxlPSJzdHJva2U6IzE4MTgxODtzdHJva2Utd2lkdGg6MC41OyIvPjxwYXRoIGQ9Ik0yNywxODkgTDI3LDIxNiBNMTQsMTk3IEw0MCwxOTcgTTI3LDIxNiBMMTQsMjMxIE0yNywyMTYgTDQwLDIzMSAiIGZpbGw9Im5vbmUiIHN0eWxlPSJzdHJva2U6IzE4MTgxODtzdHJva2Utd2lkdGg6MC41OyIvPjx0ZXh0IGZpbGw9IiMwMDAwMDAiIGZvbnQtZmFtaWx5PSJzYW5zLXNlcmlmIiBmb250LXNpemU9IjE0IiBsZW5ndGhBZGp1c3Q9InNwYWNpbmciIHRleHRMZW5ndGg9IjQyIiB4PSI2IiB5PSIyNDUuNzM0NCI+JiMzMTY0OTsmIzI5NzAyOyYjMjE1OTI7PC90ZXh0PjwvZz48IS0tbGluayBBZG1pbiB0byBNYW5hZ2VDYXJvdXNlbC0tPjxnIGlkPSJsaW5rX0FkbWluX01hbmFnZUNhcm91c2VsIj48cGF0aCBkPSJNMzYuNzksMTcyLjQ2IEM0NC45MiwxNDUuMjQgNTkuNTIsMTA5LjI4IDg0LDg2IEM5NC45LDc1LjYzIDEwMy44OTU4LDcwLjQ2OTIgMTE3Ljc3NTgsNjUuNjE5MiAiIGZpbGw9Im5vbmUiIGlkPSJBZG1pbi10by1NYW5hZ2VDYXJvdXNlbCIgc3R5bGU9InN0cm9rZTojMTgxODE4O3N0cm9rZS13aWR0aDoxLjA7Ii8+PHBvbHlnb24gZmlsbD0iIzE4MTgxOCIgcG9pbnRzPSIxMjMuNDQsNjMuNjQsMTEzLjYyNDMsNjIuODMyNywxMTguNzE5OSw2NS4yODkzLDExNi4yNjMyLDcwLjM4NDksMTIzLjQ0LDYzLjY0IiBzdHlsZT0ic3Ryb2tlOiMxODE4MTg7c3Ryb2tlLXdpZHRoOjEuMDsiLz48L2c+PCEtLWxpbmsgQWRtaW4gdG8gTWFuYWdlQ2F0ZWdvcmllcy0tPjxnIGlkPSJsaW5rX0FkbWluX01hbmFnZUNhdGVnb3JpZXMiPjxwYXRoIGQ9Ik00OC4yNCwxODIuMjQgQzU3Ljk3LDE3MC40MiA3MC40NywxNTcuMjUgODQsMTQ4IEM5Ny44NywxMzguNTEgMTA5LjMzNjgsMTMzLjMyNCAxMjQuMzM2OCwxMjguMzM0ICIgZmlsbD0ibm9uZSIgaWQ9IkFkbWluLXRvLU1hbmFnZUNhdGVnb3JpZXMiIHN0eWxlPSJzdHJva2U6IzE4MTgxODtzdHJva2Utd2lkdGg6MS4wOyIvPjxwb2x5Z29uIGZpbGw9IiMxODE4MTgiIHBvaW50cz0iMTMwLjAzLDEyNi40NCwxMjAuMjI3NSwxMjUuNDg1NCwxMjUuMjg1NiwxMjguMDE4MywxMjIuNzUyOCwxMzMuMDc2NCwxMzAuMDMsMTI2LjQ0IiBzdHlsZT0ic3Ryb2tlOiMxODE4MTg7c3Ryb2tlLXdpZHRoOjEuMDsiLz48L2c+PCEtLWxpbmsgQWRtaW4gdG8gTWFuYWdlVXNlcnMtLT48ZyBpZD0ibGlua19BZG1pbl9NYW5hZ2VVc2VycyI+PHBhdGggZD0iTTQ4LjI5LDIwNS40MyBDNjguOTgsMjAwLjc2IDk1LjczNzEsMTk0LjczMDIgMTIxLjMxNzEsMTg4Ljk2MDIgIiBmaWxsPSJub25lIiBpZD0iQWRtaW4tdG8tTWFuYWdlVXNlcnMiIHN0eWxlPSJzdHJva2U6IzE4MTgxODtzdHJva2Utd2lkdGg6MS4wOyIvPjxwb2x5Z29uIGZpbGw9IiMxODE4MTgiIHBvaW50cz0iMTI3LjE3LDE4Ny42NCwxMTcuNTEwNCwxODUuNzE4NCwxMjIuMjkyNSwxODguNzQwMiwxMTkuMjcwNywxOTMuNTIyMywxMjcuMTcsMTg3LjY0IiBzdHlsZT0ic3Ryb2tlOiMxODE4MTg7c3Ryb2tlLXdpZHRoOjEuMDsiLz48L2c+PCEtLWxpbmsgQWRtaW4gdG8gTWFuYWdlQXJ0d29ya3MtLT48ZyBpZD0ibGlua19BZG1pbl9NYW5hZ2VBcnR3b3JrcyI+PHBhdGggZD0iTTQ4LjI5LDIxNC41NyBDNjguOTgsMjE5LjI0IDk1LjczNzEsMjI1LjI2OTggMTIxLjMxNzEsMjMxLjAzOTggIiBmaWxsPSJub25lIiBpZD0iQWRtaW4tdG8tTWFuYWdlQXJ0d29ya3MiIHN0eWxlPSJzdHJva2U6IzE4MTgxODtzdHJva2Utd2lkdGg6MS4wOyIvPjxwb2x5Z29uIGZpbGw9IiMxODE4MTgiIHBvaW50cz0iMTI3LjE3LDIzMi4zNiwxMTkuMjcwNywyMjYuNDc3NywxMjIuMjkyNSwyMzEuMjU5OCwxMTcuNTEwNCwyMzQuMjgxNiwxMjcuMTcsMjMyLjM2IiBzdHlsZT0ic3Ryb2tlOiMxODE4MTg7c3Ryb2tlLXdpZHRoOjEuMDsiLz48L2c+PCEtLWxpbmsgQWRtaW4gdG8gTWFuYWdlVGFncy0tPjxnIGlkPSJsaW5rX0FkbWluX01hbmFnZVRhZ3MiPjxwYXRoIGQ9Ik00OC4yNCwyMzcuNzYgQzU3Ljk3LDI0OS41OCA3MC40NywyNjIuNzUgODQsMjcyIEM5Ny44NywyODEuNDkgMTA5LjMzNjgsMjg2LjY3NiAxMjQuMzM2OCwyOTEuNjY2ICIgZmlsbD0ibm9uZSIgaWQ9IkFkbWluLXRvLU1hbmFnZVRhZ3MiIHN0eWxlPSJzdHJva2U6IzE4MTgxODtzdHJva2Utd2lkdGg6MS4wOyIvPjxwb2x5Z29uIGZpbGw9IiMxODE4MTgiIHBvaW50cz0iMTMwLjAzLDI5My41NiwxMjIuNzUyOCwyODYuOTIzNiwxMjUuMjg1NiwyOTEuOTgxNywxMjAuMjI3NSwyOTQuNTE0NiwxMzAuMDMsMjkzLjU2IiBzdHlsZT0ic3Ryb2tlOiMxODE4MTg7c3Ryb2tlLXdpZHRoOjEuMDsiLz48L2c+PCEtLWxpbmsgQWRtaW4gdG8gU3lzdGVtQ29uZmlnLS0+PGcgaWQ9ImxpbmtfQWRtaW5fU3lzdGVtQ29uZmlnIj48cGF0aCBkPSJNMzYuNzIsMjQ3LjYyIEM0NC44MSwyNzQuODcgNTkuNCwzMTAuODUgODQsMzM0IEM5NS41OCwzNDQuODkgMTA1LjY1NTIsMzUwLjI0MjEgMTIwLjI1NTIsMzU0LjkxMjEgIiBmaWxsPSJub25lIiBpZD0iQWRtaW4tdG8tU3lzdGVtQ29uZmlnIiBzdHlsZT0ic3Ryb2tlOiMxODE4MTg7c3Ryb2tlLXdpZHRoOjEuMDsiLz48cG9seWdvbiBmaWxsPSIjMTgxODE4IiBwb2ludHM9IjEyNS45NywzNTYuNzQsMTE4LjYxNjUsMzUwLjE4ODIsMTIxLjIwNzcsMzU1LjIxNjcsMTE2LjE3OTIsMzU3LjgwNzksMTI1Ljk3LDM1Ni43NCIgc3R5bGU9InN0cm9rZTojMTgxODE4O3N0cm9rZS13aWR0aDoxLjA7Ii8+PC9nPjwhLS1TUkM9W1JQM0ZJaUQwNDhWbC1uSDN4ZHE1ZVZKU0tfSzFYZEl3QmFic28td0E1RjdXbVRnQnVCLTNlQTNVMTZiNEY3Vzh5TWJDTGpfMjY2ZEJSWmhOeG5sY3p2a0s5WFFpMFl0dWxlTW5xMUhSZUlHcFlQMUpyOVoxNUVDNEVPdGlCMk51bW9YdkllblhSOU02b0VMRnhjOVVOVHY2VzBSd3VxbjhualJRWWhrTnJtWUU2M0hwTzJYNnF2M2xDZy1sYmpOVHZ4X0l4V3pIRGhTNmc1TVpmUnZWQlVSa2hUV1lNLTlBMnBBLXhjd1V3eUw3SHp5cGYwRnBneG9saGF5d1BiX1JHd01KR0F1VnB6b282dGFOVU5aX2xOMzVteV9ma0lscExYcERaQUxpZUVINFNEUXd4UlVXcnpsUHJoaUJsUHVYdGxHQVlUU1pYRWxTNi0zYkZGdTVdLS0+PC9nPjwvc3ZnPg==;" parent="1" vertex="1">
            <mxGeometry x="-180" y="540" width="247" height="401" as="geometry" />
          </mxCell>
        </UserObject>
        <UserObject label="" plantUmlData="{&#xa;  &quot;data&quot;: &quot;@startuml\n\nleft to right direction\nskinparam packageStyle rectangle\n\nactor \&quot;普通用户\&quot; as User\n\nrectangle \&quot;用户端\&quot; {\n    usecase \&quot;授权登录\&quot; as Login\n    usecase \&quot;查看壁纸\&quot; as ViewWallpaper\n    usecase \&quot;搜索壁纸\&quot; as SearchWallpaper\n    usecase \&quot;投稿壁纸\&quot; as SubmitWallpaper\n    usecase \&quot;下载壁纸\&quot; as DownloadWallpaper\n    usecase \&quot;签到\&quot; as CheckIn\n    usecase \&quot;邀请好友\&quot; as InviteFriends\n    usecase \&quot;点赞\&quot; as Like\n    usecase \&quot;收藏\&quot; as Collect\n    usecase \&quot;意见反馈\&quot; as Feedback\n\n    User --&gt; Login\n    User --&gt; ViewWallpaper\n    User --&gt; SearchWallpaper\n    User --&gt; SubmitWallpaper\n    User --&gt; DownloadWallpaper\n    User --&gt; CheckIn\n    User --&gt; InviteFriends\n    User --&gt; Like\n    User --&gt; Collect\n    User --&gt; Feedback\n}\n\n@enduml\n&quot;,&#xa;  &quot;format&quot;: &quot;svg&quot;&#xa;}" id="3U-3EoWDj0iMzqLdLdJn-3">
          <mxCell style="shape=image;noLabel=1;verticalAlign=top;aspect=fixed;imageAspect=0;image=data:image/svg+xml,PD94bWwgdmVyc2lvbj0iMS4wIiBlbmNvZGluZz0idXMtYXNjaWkiIHN0YW5kYWxvbmU9Im5vIj8+PHN2ZyB4bWxucz0iaHR0cDovL3d3dy53My5vcmcvMjAwMC9zdmciIHhtbG5zOnhsaW5rPSJodHRwOi8vd3d3LnczLm9yZy8xOTk5L3hsaW5rIiBjb250ZW50U3R5bGVUeXBlPSJ0ZXh0L2NzcyIgaGVpZ2h0PSI2NDhweCIgcHJlc2VydmVBc3BlY3RSYXRpbz0ibm9uZSIgc3R5bGU9IndpZHRoOjI0NnB4O2hlaWdodDo2NDhweDtiYWNrZ3JvdW5kOiNGRkZGRkY7IiB2ZXJzaW9uPSIxLjEiIHZpZXdCb3g9IjAgMCAyNDYgNjQ4IiB3aWR0aD0iMjQ2cHgiIHpvb21BbmRQYW49Im1hZ25pZnkiPjxkZWZzLz48Zz48IS0tY2x1c3RlciA/Pz8tLT48ZyBpZD0iY2x1c3Rlcl8mIzI5OTkyOyYjMjUxNDM7JiMzMTQ3MTsiPjxyZWN0IGZpbGw9Im5vbmUiIGhlaWdodD0iNjM1IiByeD0iMi41IiByeT0iMi41IiBzdHlsZT0ic3Ryb2tlOiMxODE4MTg7c3Ryb2tlLXdpZHRoOjEuMDsiIHdpZHRoPSIxMzQiIHg9IjEwNiIgeT0iNyIvPjx0ZXh0IGZpbGw9IiMwMDAwMDAiIGZvbnQtZmFtaWx5PSJzYW5zLXNlcmlmIiBmb250LXNpemU9IjE0IiBmb250LXdlaWdodD0iYm9sZCIgbGVuZ3RoQWRqdXN0PSJzcGFjaW5nIiB0ZXh0TGVuZ3RoPSI0MiIgeD0iMTUyIiB5PSIyMi4yMzQ0Ij4mIzI5OTkyOyYjMjUxNDM7JiMzMTQ3MTs8L3RleHQ+PC9nPjxnIGlkPSJlbGVtX0xvZ2luIj48ZWxsaXBzZSBjeD0iMTczLjA4MzMiIGN5PSI1NC4wOTU2IiBmaWxsPSIjRjFGMUYxIiByeD0iNTEuMDgzMyIgcnk9IjEzLjU5NTYiIHN0eWxlPSJzdHJva2U6IzE4MTgxODtzdHJva2Utd2lkdGg6MC41OyIvPjx0ZXh0IGZpbGw9IiMwMDAwMDAiIGZvbnQtZmFtaWx5PSJzYW5zLXNlcmlmIiBmb250LXNpemU9IjE0IiBsZW5ndGhBZGp1c3Q9InNwYWNpbmciIHRleHRMZW5ndGg9IjU2IiB4PSIxNDUuMDgzMyIgeT0iNTcuODM3NyI+JiMyNTQ4MDsmIzI2NDM1OyYjMzAzMzE7JiMyNDQwNTs8L3RleHQ+PC9nPjxnIGlkPSJlbGVtX1ZpZXdXYWxscGFwZXIiPjxlbGxpcHNlIGN4PSIxNzMuMDgzMyIgY3k9IjExNi4wOTU2IiBmaWxsPSIjRjFGMUYxIiByeD0iNTEuMDgzMyIgcnk9IjEzLjU5NTYiIHN0eWxlPSJzdHJva2U6IzE4MTgxODtzdHJva2Utd2lkdGg6MC41OyIvPjx0ZXh0IGZpbGw9IiMwMDAwMDAiIGZvbnQtZmFtaWx5PSJzYW5zLXNlcmlmIiBmb250LXNpemU9IjE0IiBsZW5ndGhBZGp1c3Q9InNwYWNpbmciIHRleHRMZW5ndGg9IjU2IiB4PSIxNDUuMDgzMyIgeT0iMTE5LjgzNzciPiYjMjY1OTc7JiMzMDQ3NTsmIzIyNzIxOyYjMzI0NDA7PC90ZXh0PjwvZz48ZyBpZD0iZWxlbV9TZWFyY2hXYWxscGFwZXIiPjxlbGxpcHNlIGN4PSIxNzMuMDgzMyIgY3k9IjE3OC4wOTU2IiBmaWxsPSIjRjFGMUYxIiByeD0iNTEuMDgzMyIgcnk9IjEzLjU5NTYiIHN0eWxlPSJzdHJva2U6IzE4MTgxODtzdHJva2Utd2lkdGg6MC41OyIvPjx0ZXh0IGZpbGw9IiMwMDAwMDAiIGZvbnQtZmFtaWx5PSJzYW5zLXNlcmlmIiBmb250LXNpemU9IjE0IiBsZW5ndGhBZGp1c3Q9InNwYWNpbmciIHRleHRMZW5ndGg9IjU2IiB4PSIxNDUuMDgzMyIgeT0iMTgxLjgzNzciPiYjMjU2Mjg7JiMzMjAzNDsmIzIyNzIxOyYjMzI0NDA7PC90ZXh0PjwvZz48ZyBpZD0iZWxlbV9TdWJtaXRXYWxscGFwZXIiPjxlbGxpcHNlIGN4PSIxNzMuMDgzMyIgY3k9IjI0MC4wOTU2IiBmaWxsPSIjRjFGMUYxIiByeD0iNTEuMDgzMyIgcnk9IjEzLjU5NTYiIHN0eWxlPSJzdHJva2U6IzE4MTgxODtzdHJva2Utd2lkdGg6MC41OyIvPjx0ZXh0IGZpbGw9IiMwMDAwMDAiIGZvbnQtZmFtaWx5PSJzYW5zLXNlcmlmIiBmb250LXNpemU9IjE0IiBsZW5ndGhBZGp1c3Q9InNwYWNpbmciIHRleHRMZW5ndGg9IjU2IiB4PSIxNDUuMDgzMyIgeT0iMjQzLjgzNzciPiYjMjUyMzc7JiMzMTI5NTsmIzIyNzIxOyYjMzI0NDA7PC90ZXh0PjwvZz48ZyBpZD0iZWxlbV9Eb3dubG9hZFdhbGxwYXBlciI+PGVsbGlwc2UgY3g9IjE3My4wODMzIiBjeT0iMzAyLjA5NTYiIGZpbGw9IiNGMUYxRjEiIHJ4PSI1MS4wODMzIiByeT0iMTMuNTk1NiIgc3R5bGU9InN0cm9rZTojMTgxODE4O3N0cm9rZS13aWR0aDowLjU7Ii8+PHRleHQgZmlsbD0iIzAwMDAwMCIgZm9udC1mYW1pbHk9InNhbnMtc2VyaWYiIGZvbnQtc2l6ZT0iMTQiIGxlbmd0aEFkanVzdD0ic3BhY2luZyIgdGV4dExlbmd0aD0iNTYiIHg9IjE0NS4wODMzIiB5PSIzMDUuODM3NyI+JiMxOTk3OTsmIzM2NzMzOyYjMjI3MjE7JiMzMjQ0MDs8L3RleHQ+PC9nPjxnIGlkPSJlbGVtX0NoZWNrSW4iPjxlbGxpcHNlIGN4PSIxNzIuNzg0MyIgY3k9IjM2NC4wOTU2IiBmaWxsPSIjRjFGMUYxIiByeD0iMzEuMjg0MyIgcnk9IjEzLjU5NTYiIHN0eWxlPSJzdHJva2U6IzE4MTgxODtzdHJva2Utd2lkdGg6MC41OyIvPjx0ZXh0IGZpbGw9IiMwMDAwMDAiIGZvbnQtZmFtaWx5PSJzYW5zLXNlcmlmIiBmb250LXNpemU9IjE0IiBsZW5ndGhBZGp1c3Q9InNwYWNpbmciIHRleHRMZW5ndGg9IjI4IiB4PSIxNTguNzg0MyIgeT0iMzY3LjgzNzciPiYjMzE2MTQ7JiMyMTA0MDs8L3RleHQ+PC9nPjxnIGlkPSJlbGVtX0ludml0ZUZyaWVuZHMiPjxlbGxpcHNlIGN4PSIxNzMuMDgzMyIgY3k9IjQyNi4wOTU2IiBmaWxsPSIjRjFGMUYxIiByeD0iNTEuMDgzMyIgcnk9IjEzLjU5NTYiIHN0eWxlPSJzdHJva2U6IzE4MTgxODtzdHJva2Utd2lkdGg6MC41OyIvPjx0ZXh0IGZpbGw9IiMwMDAwMDAiIGZvbnQtZmFtaWx5PSJzYW5zLXNlcmlmIiBmb250LXNpemU9IjE0IiBsZW5ndGhBZGp1c3Q9InNwYWNpbmciIHRleHRMZW5ndGg9IjU2IiB4PSIxNDUuMDgzMyIgeT0iNDI5LjgzNzciPiYjMzY5OTI7JiMzNTgzMTsmIzIyOTA5OyYjMjE0NTE7PC90ZXh0PjwvZz48ZyBpZD0iZWxlbV9MaWtlIj48ZWxsaXBzZSBjeD0iMTcyLjc4NDMiIGN5PSI0ODguMDk1NiIgZmlsbD0iI0YxRjFGMSIgcng9IjMxLjI4NDMiIHJ5PSIxMy41OTU2IiBzdHlsZT0ic3Ryb2tlOiMxODE4MTg7c3Ryb2tlLXdpZHRoOjAuNTsiLz48dGV4dCBmaWxsPSIjMDAwMDAwIiBmb250LWZhbWlseT0ic2Fucy1zZXJpZiIgZm9udC1zaXplPSIxNCIgbGVuZ3RoQWRqdXN0PSJzcGFjaW5nIiB0ZXh0TGVuZ3RoPSIyOCIgeD0iMTU4Ljc4NDMiIHk9IjQ5MS44Mzc3Ij4mIzI4ODU3OyYjMzYxOTA7PC90ZXh0PjwvZz48ZyBpZD0iZWxlbV9Db2xsZWN0Ij48ZWxsaXBzZSBjeD0iMTcyLjc4NDMiIGN5PSI1NTAuMDk1NiIgZmlsbD0iI0YxRjFGMSIgcng9IjMxLjI4NDMiIHJ5PSIxMy41OTU2IiBzdHlsZT0ic3Ryb2tlOiMxODE4MTg7c3Ryb2tlLXdpZHRoOjAuNTsiLz48dGV4dCBmaWxsPSIjMDAwMDAwIiBmb250LWZhbWlseT0ic2Fucy1zZXJpZiIgZm9udC1zaXplPSIxNCIgbGVuZ3RoQWRqdXN0PSJzcGFjaW5nIiB0ZXh0TGVuZ3RoPSIyOCIgeD0iMTU4Ljc4NDMiIHk9IjU1My44Mzc3Ij4mIzI1OTEwOyYjMzQyNTU7PC90ZXh0PjwvZz48ZyBpZD0iZWxlbV9GZWVkYmFjayI+PGVsbGlwc2UgY3g9IjE3My4wODMzIiBjeT0iNjEyLjA5NTYiIGZpbGw9IiNGMUYxRjEiIHJ4PSI1MS4wODMzIiByeT0iMTMuNTk1NiIgc3R5bGU9InN0cm9rZTojMTgxODE4O3N0cm9rZS13aWR0aDowLjU7Ii8+PHRleHQgZmlsbD0iIzAwMDAwMCIgZm9udC1mYW1pbHk9InNhbnMtc2VyaWYiIGZvbnQtc2l6ZT0iMTQiIGxlbmd0aEFkanVzdD0ic3BhY2luZyIgdGV4dExlbmd0aD0iNTYiIHg9IjE0NS4wODMzIiB5PSI2MTUuODM3NyI+JiMyNDg0NzsmIzM1MjY1OyYjMjE0NTM7JiMzOTMwNDs8L3RleHQ+PC9nPjwhLS1lbnRpdHkgVXNlci0tPjxnIGlkPSJlbGVtX1VzZXIiPjxlbGxpcHNlIGN4PSIzNCIgY3k9IjMwNCIgZmlsbD0iI0YxRjFGMSIgcng9IjgiIHJ5PSI4IiBzdHlsZT0ic3Ryb2tlOiMxODE4MTg7c3Ryb2tlLXdpZHRoOjAuNTsiLz48cGF0aCBkPSJNMzQsMzEyIEwzNCwzMzkgTTIxLDMyMCBMNDcsMzIwIE0zNCwzMzkgTDIxLDM1NCBNMzQsMzM5IEw0NywzNTQgIiBmaWxsPSJub25lIiBzdHlsZT0ic3Ryb2tlOiMxODE4MTg7c3Ryb2tlLXdpZHRoOjAuNTsiLz48dGV4dCBmaWxsPSIjMDAwMDAwIiBmb250LWZhbWlseT0ic2Fucy1zZXJpZiIgZm9udC1zaXplPSIxNCIgbGVuZ3RoQWRqdXN0PSJzcGFjaW5nIiB0ZXh0TGVuZ3RoPSI1NiIgeD0iNiIgeT0iMzY4LjczNDQiPiYjMjYyMjI7JiMzNjg5MDsmIzI5OTkyOyYjMjUxNDM7PC90ZXh0PjwvZz48IS0tbGluayBVc2VyIHRvIExvZ2luLS0+PGcgaWQ9ImxpbmtfVXNlcl9Mb2dpbiI+PHBhdGggZD0iTTM0LjU5LDI5NS4wOSBDMzYuMDIsMjQxLjk0IDQ2LjIzLDE0NS4wNiA5OCw4NSBDMTA3LjE5LDc0LjM0IDExNC45OTU0LDY5LjMwNDMgMTI3LjkyNTQsNjQuNjQ0MyAiIGZpbGw9Im5vbmUiIGlkPSJVc2VyLXRvLUxvZ2luIiBzdHlsZT0ic3Ryb2tlOiMxODE4MTg7c3Ryb2tlLXdpZHRoOjEuMDsiLz48cG9seWdvbiBmaWxsPSIjMTgxODE4IiBwb2ludHM9IjEzMy41Nyw2Mi42MSwxMjMuNzQ2OSw2MS44OTg0LDEyOC44NjYyLDY0LjMwNTMsMTI2LjQ1OTMsNjkuNDI0NiwxMzMuNTcsNjIuNjEiIHN0eWxlPSJzdHJva2U6IzE4MTgxODtzdHJva2Utd2lkdGg6MS4wOyIvPjwvZz48IS0tbGluayBVc2VyIHRvIFZpZXdXYWxscGFwZXItLT48ZyBpZD0ibGlua19Vc2VyX1ZpZXdXYWxscGFwZXIiPjxwYXRoIGQ9Ik0zOC42MywyOTUuMTcgQzQ0LjQ3LDI1My45MiA1OS41MiwxODguMjcgOTgsMTQ3IEMxMDcuNjksMTM2LjYxIDExNS43NTc0LDEzMS42MiAxMjguNzU3NCwxMjYuOTIgIiBmaWxsPSJub25lIiBpZD0iVXNlci10by1WaWV3V2FsbHBhcGVyIiBzdHlsZT0ic3Ryb2tlOiMxODE4MTg7c3Ryb2tlLXdpZHRoOjEuMDsiLz48cG9seWdvbiBmaWxsPSIjMTgxODE4IiBwb2ludHM9IjEzNC40LDEyNC44OCwxMjQuNTc2MiwxMjQuMTc4MywxMjkuNjk3OSwxMjYuNTgsMTI3LjI5NjIsMTMxLjcwMTcsMTM0LjQsMTI0Ljg4IiBzdHlsZT0ic3Ryb2tlOiMxODE4MTg7c3Ryb2tlLXdpZHRoOjEuMDsiLz48L2c+PCEtLWxpbmsgVXNlciB0byBTZWFyY2hXYWxscGFwZXItLT48ZyBpZD0ibGlua19Vc2VyX1NlYXJjaFdhbGxwYXBlciI+PHBhdGggZD0iTTQ2LjMxLDI5NS4zIEM1Ni4xMywyNjguMTkgNzIuNzksMjMyLjQyIDk4LDIwOSBDMTA4LjYxLDE5OS4xNCAxMTcuMTczNCwxOTQuMjI2MyAxMzAuMzAzNCwxODkuNDM2MyAiIGZpbGw9Im5vbmUiIGlkPSJVc2VyLXRvLVNlYXJjaFdhbGxwYXBlciIgc3R5bGU9InN0cm9rZTojMTgxODE4O3N0cm9rZS13aWR0aDoxLjA7Ii8+PHBvbHlnb24gZmlsbD0iIzE4MTgxOCIgcG9pbnRzPSIxMzUuOTQsMTg3LjM4LDEyNi4xMTQyLDE4Ni43MDY3LDEzMS4yNDI4LDE4OS4wOTM2LDEyOC44NTU5LDE5NC4yMjIyLDEzNS45NCwxODcuMzgiIHN0eWxlPSJzdHJva2U6IzE4MTgxODtzdHJva2Utd2lkdGg6MS4wOyIvPjwvZz48IS0tbGluayBVc2VyIHRvIFN1Ym1pdFdhbGxwYXBlci0tPjxnIGlkPSJsaW5rX1VzZXJfU3VibWl0V2FsbHBhcGVyIj48cGF0aCBkPSJNNjIuMTMsMzAxLjc4IEM3Mi41NywyOTEuMDUgODUuMSwyNzkuNTkgOTgsMjcxIEMxMTAuODcsMjYyLjQ0IDEyMC44NzksMjU3LjU5NTMgMTM0LjQ0OSwyNTIuNDU1MyAiIGZpbGw9Im5vbmUiIGlkPSJVc2VyLXRvLVN1Ym1pdFdhbGxwYXBlciIgc3R5bGU9InN0cm9rZTojMTgxODE4O3N0cm9rZS13aWR0aDoxLjA7Ii8+PHBvbHlnb24gZmlsbD0iIzE4MTgxOCIgcG9pbnRzPSIxNDAuMDYsMjUwLjMzLDEzMC4yMjY3LDI0OS43NzczLDEzNS4zODQyLDI1Mi4xMDExLDEzMy4wNjA0LDI1Ny4yNTg2LDE0MC4wNiwyNTAuMzMiIHN0eWxlPSJzdHJva2U6IzE4MTgxODtzdHJva2Utd2lkdGg6MS4wOyIvPjwvZz48IS0tbGluayBVc2VyIHRvIERvd25sb2FkV2FsbHBhcGVyLS0+PGcgaWQ9ImxpbmtfVXNlcl9Eb3dubG9hZFdhbGxwYXBlciI+PHBhdGggZD0iTTYyLjA3LDMyNi44OCBDODIuNSwzMjIuMjUgMTA0Ljk1ODQsMzE3LjE3NjEgMTI3LjcyODQsMzEyLjAxNjEgIiBmaWxsPSJub25lIiBpZD0iVXNlci10by1Eb3dubG9hZFdhbGxwYXBlciIgc3R5bGU9InN0cm9rZTojMTgxODE4O3N0cm9rZS13aWR0aDoxLjA7Ii8+PHBvbHlnb24gZmlsbD0iIzE4MTgxOCIgcG9pbnRzPSIxMzMuNTgsMzEwLjY5LDEyMy45MTg1LDMwOC43NzgsMTI4LjcwMzYsMzExLjc5NTEsMTI1LjY4NjYsMzE2LjU4MDIsMTMzLjU4LDMxMC42OSIgc3R5bGU9InN0cm9rZTojMTgxODE4O3N0cm9rZS13aWR0aDoxLjA7Ii8+PC9nPjwhLS1saW5rIFVzZXIgdG8gQ2hlY2tJbi0tPjxnIGlkPSJsaW5rX1VzZXJfQ2hlY2tJbiI+PHBhdGggZD0iTTYyLjA3LDMzOS4xMiBDODUuOTMsMzQ0LjUyIDExNC42ODgxLDM1MS4wMjQ5IDEzOC42NjgxLDM1Ni40NTQ5ICIgZmlsbD0ibm9uZSIgaWQ9IlVzZXItdG8tQ2hlY2tJbiIgc3R5bGU9InN0cm9rZTojMTgxODE4O3N0cm9rZS13aWR0aDoxLjA7Ii8+PHBvbHlnb24gZmlsbD0iIzE4MTgxOCIgcG9pbnRzPSIxNDQuNTIsMzU3Ljc4LDEzNi42MjU2LDM1MS44OTExLDEzOS42NDM1LDM1Ni42NzU4LDEzNC44NTg4LDM1OS42OTM2LDE0NC41MiwzNTcuNzgiIHN0eWxlPSJzdHJva2U6IzE4MTgxODtzdHJva2Utd2lkdGg6MS4wOyIvPjwvZz48IS0tbGluayBVc2VyIHRvIEludml0ZUZyaWVuZHMtLT48ZyBpZD0ibGlua19Vc2VyX0ludml0ZUZyaWVuZHMiPjxwYXRoIGQ9Ik02Mi4xMywzNjQuMjIgQzcyLjU3LDM3NC45NSA4NS4xLDM4Ni40MSA5OCwzOTUgQzExMC44Nyw0MDMuNTYgMTIwLjg3OSw0MDguNDA0NyAxMzQuNDQ5LDQxMy41NDQ3ICIgZmlsbD0ibm9uZSIgaWQ9IlVzZXItdG8tSW52aXRlRnJpZW5kcyIgc3R5bGU9InN0cm9rZTojMTgxODE4O3N0cm9rZS13aWR0aDoxLjA7Ii8+PHBvbHlnb24gZmlsbD0iIzE4MTgxOCIgcG9pbnRzPSIxNDAuMDYsNDE1LjY3LDEzMy4wNjA0LDQwOC43NDE0LDEzNS4zODQyLDQxMy44OTg5LDEzMC4yMjY3LDQxNi4yMjI3LDE0MC4wNiw0MTUuNjciIHN0eWxlPSJzdHJva2U6IzE4MTgxODtzdHJva2Utd2lkdGg6MS4wOyIvPjwvZz48IS0tbGluayBVc2VyIHRvIExpa2UtLT48ZyBpZD0ibGlua19Vc2VyX0xpa2UiPjxwYXRoIGQ9Ik00Ni4zMSwzNzAuNyBDNTYuMTMsMzk3LjgxIDcyLjc5LDQzMy41OCA5OCw0NTcgQzExMS4wNiw0NjkuMTQgMTIzLjgyNzUsNDc1LjExODMgMTM5LjA2NzUsNDc5LjgyODMgIiBmaWxsPSJub25lIiBpZD0iVXNlci10by1MaWtlIiBzdHlsZT0ic3Ryb2tlOiMxODE4MTg7c3Ryb2tlLXdpZHRoOjEuMDsiLz48cG9seWdvbiBmaWxsPSIjMTgxODE4IiBwb2ludHM9IjE0NC44LDQ4MS42LDEzNy4zODI0LDQ3NS4xMjA5LDE0MC4wMjI5LDQ4MC4xMjM2LDEzNS4wMjAyLDQ4Mi43NjQyLDE0NC44LDQ4MS42IiBzdHlsZT0ic3Ryb2tlOiMxODE4MTg7c3Ryb2tlLXdpZHRoOjEuMDsiLz48L2c+PCEtLWxpbmsgVXNlciB0byBDb2xsZWN0LS0+PGcgaWQ9ImxpbmtfVXNlcl9Db2xsZWN0Ij48cGF0aCBkPSJNMzguNjMsMzcwLjgzIEM0NC40Nyw0MTIuMDggNTkuNTIsNDc3LjczIDk4LDUxOSBDMTEwLjE2LDUzMi4wNCAxMjIuODk4MSw1MzguMTE2NiAxMzguMzU4MSw1NDIuNjA2NiAiIGZpbGw9Im5vbmUiIGlkPSJVc2VyLXRvLUNvbGxlY3QiIHN0eWxlPSJzdHJva2U6IzE4MTgxODtzdHJva2Utd2lkdGg6MS4wOyIvPjxwb2x5Z29uIGZpbGw9IiMxODE4MTgiIHBvaW50cz0iMTQ0LjEyLDU0NC4yOCwxMzYuNTkyNyw1MzcuOTI4NiwxMzkuMzE4NCw1NDIuODg1NSwxMzQuMzYxNSw1NDUuNjExMiwxNDQuMTIsNTQ0LjI4IiBzdHlsZT0ic3Ryb2tlOiMxODE4MTg7c3Ryb2tlLXdpZHRoOjEuMDsiLz48L2c+PCEtLWxpbmsgVXNlciB0byBGZWVkYmFjay0tPjxnIGlkPSJsaW5rX1VzZXJfRmVlZGJhY2siPjxwYXRoIGQ9Ik0zNC41OSwzNzAuOTEgQzM2LjAyLDQyNC4wNiA0Ni4yMyw1MjAuOTQgOTgsNTgxIEMxMDcuMTksNTkxLjY2IDExNC45OTU0LDU5Ni42OTU3IDEyNy45MjU0LDYwMS4zNTU3ICIgZmlsbD0ibm9uZSIgaWQ9IlVzZXItdG8tRmVlZGJhY2siIHN0eWxlPSJzdHJva2U6IzE4MTgxODtzdHJva2Utd2lkdGg6MS4wOyIvPjxwb2x5Z29uIGZpbGw9IiMxODE4MTgiIHBvaW50cz0iMTMzLjU3LDYwMy4zOSwxMjYuNDU5Myw1OTYuNTc1NCwxMjguODY2Miw2MDEuNjk0NywxMjMuNzQ2OSw2MDQuMTAxNiwxMzMuNTcsNjAzLjM5IiBzdHlsZT0ic3Ryb2tlOiMxODE4MTg7c3Ryb2tlLXdpZHRoOjEuMDsiLz48L2c+PCEtLVNSQz1bVFA3MUppOTA0OFJsVk9mRHh4bzI1bXE5WUpVWWRmVHNCOWlrUlRDazRjREMwM3FxNGdxN1lDNlc5WGdMbjJXVUw1MUpWSGRSQk16WEFONmYxVk91X3hVcEV6ekdzNlE4Y1NXY01mYVhiVFlXQzY4UWFnQ0pteThzaFkwQkFwaE1lQ1hzQVExOVowc0RXWUhYWFBhc2FpRmtxeFgtcGpsenExdEEyM2plbW01UmFXSTh2NmQ2N21Pb3NmREdWQWVFQURZOWFfMzQzSXlFVUZTcHkzbDl0TkxKOHFRNmtSaGJsTFBtcS0wVmV1SlA5NTNSbWZIUXM4ZVYtaS1VemxaQlRPZWowaFFMeVpCd2dDRnh0c2N3TWdlR2plSi02UktZdHFfSFFzUkRlMlBNYl8zeXlJam1kbkRvakdvQU5pWkNETXhNZXk0bWtGSzNodkxHMU1FN0NDWlIxMHBMb1ZIZ2xhVWxickQzSDhWQzZFc3R3Q29SRmNISTZkbEZ2OFRVVER5OGxFRm5kUGpHVUcycjUyekxJaFo5a2Iwa2p2OW9CcWhwZ2FNcW9FbWlOMjFJWDhrellKV2pJbkpkdFNvLV9JVGFyWTViR0hKNXFGa19dLS0+PC9nPjwvc3ZnPg==;" parent="1" vertex="1">
            <mxGeometry x="140" y="416.5" width="246" height="648" as="geometry" />
          </mxCell>
        </UserObject>
        <UserObject label="" plantUmlData="{&quot;data&quot;:&quot;@startuml\nstart\n\n:选择壁纸;\n\nif (是否已授权登录?) then (是)\n    fork\n        :点击点赞按钮;\n        :点赞成功;\n    fork again\n        :点击收藏按钮;\n        :收藏成功;\n    end fork\nelse (否)\n    :弹出授权框;\n    if (是否授权?) then (是)\n        fork\n            :点击点赞按钮;\n            :点赞成功;\n        fork again\n            :点击收藏按钮; \n            :收藏成功;\n        end fork\n    else (否)\n        :操作取消;\n    endif\nendif\n\nstop\n@enduml&quot;,&quot;format&quot;:&quot;svg&quot;}" id="3U-3EoWDj0iMzqLdLdJn-4">
          <mxCell style="shape=image;noLabel=1;verticalAlign=top;aspect=fixed;imageAspect=0;image=data:image/svg+xml,PD94bWwgdmVyc2lvbj0iMS4wIiBlbmNvZGluZz0idXMtYXNjaWkiIHN0YW5kYWxvbmU9Im5vIj8+PHN2ZyB4bWxucz0iaHR0cDovL3d3dy53My5vcmcvMjAwMC9zdmciIHhtbG5zOnhsaW5rPSJodHRwOi8vd3d3LnczLm9yZy8xOTk5L3hsaW5rIiBjb250ZW50U3R5bGVUeXBlPSJ0ZXh0L2NzcyIgaGVpZ2h0PSI0ODlweCIgcHJlc2VydmVBc3BlY3RSYXRpbz0ibm9uZSIgc3R5bGU9IndpZHRoOjYxOHB4O2hlaWdodDo0ODlweDtiYWNrZ3JvdW5kOiNGRkZGRkY7IiB2ZXJzaW9uPSIxLjEiIHZpZXdCb3g9IjAgMCA2MTggNDg5IiB3aWR0aD0iNjE4cHgiIHpvb21BbmRQYW49Im1hZ25pZnkiPjxkZWZzLz48Zz48ZWxsaXBzZSBjeD0iMzA3LjUiIGN5PSIyMCIgZmlsbD0iIzIyMjIyMiIgcng9IjEwIiByeT0iMTAiIHN0eWxlPSJzdHJva2U6IzIyMjIyMjtzdHJva2Utd2lkdGg6MS4wOyIvPjxyZWN0IGZpbGw9IiNGMUYxRjEiIGhlaWdodD0iMzIuODQzOCIgcng9IjEyLjUiIHJ5PSIxMi41IiBzdHlsZT0ic3Ryb2tlOiMxODE4MTg7c3Ryb2tlLXdpZHRoOjAuNTsiIHdpZHRoPSI2OCIgeD0iMjczLjUiIHk9IjUwIi8+PHRleHQgZmlsbD0iIzAwMDAwMCIgZm9udC1mYW1pbHk9InNhbnMtc2VyaWYiIGZvbnQtc2l6ZT0iMTIiIGxlbmd0aEFkanVzdD0ic3BhY2luZyIgdGV4dExlbmd0aD0iNDgiIHg9IjI4My41IiB5PSI3MS4zNDM4Ij4mIzM2ODczOyYjMjUzMjE7JiMyMjcyMTsmIzMyNDQwOzwvdGV4dD48cG9seWdvbiBmaWxsPSIjRjFGMUYxIiBwb2ludHM9IjI2NiwxMDIuODQzOCwzNDksMTAyLjg0MzgsMzYxLDExNC44NDM4LDM0OSwxMjYuODQzOCwyNjYsMTI2Ljg0MzgsMjU0LDExNC44NDM4LDI2NiwxMDIuODQzOCIgc3R5bGU9InN0cm9rZTojMTgxODE4O3N0cm9rZS13aWR0aDowLjU7Ii8+PHRleHQgZmlsbD0iIzAwMDAwMCIgZm9udC1mYW1pbHk9InNhbnMtc2VyaWYiIGZvbnQtc2l6ZT0iMTEiIGxlbmd0aEFkanVzdD0ic3BhY2luZyIgdGV4dExlbmd0aD0iODMiIHg9IjI2NiIgeT0iMTE5LjM1NTUiPiYjMjYxNTk7JiMyMTU0MjsmIzI0MDUwOyYjMjU0ODA7JiMyNjQzNTsmIzMwMzMxOyYjMjQ0MDU7PzwvdGV4dD48dGV4dCBmaWxsPSIjMDAwMDAwIiBmb250LWZhbWlseT0ic2Fucy1zZXJpZiIgZm9udC1zaXplPSIxMSIgbGVuZ3RoQWRqdXN0PSJzcGFjaW5nIiB0ZXh0TGVuZ3RoPSIxMSIgeD0iMjQzIiB5PSIxMTMuNDY4OCI+JiMyNjE1OTs8L3RleHQ+PHRleHQgZmlsbD0iIzAwMDAwMCIgZm9udC1mYW1pbHk9InNhbnMtc2VyaWYiIGZvbnQtc2l6ZT0iMTEiIGxlbmd0aEFkanVzdD0ic3BhY2luZyIgdGV4dExlbmd0aD0iMTEiIHg9IjM2MSIgeT0iMTEzLjQ2ODgiPiYjMjE1NDI7PC90ZXh0PjxyZWN0IGZpbGw9IiM1NTU1NTUiIGhlaWdodD0iNiIgcng9IjIuNSIgcnk9IjIuNSIgc3R5bGU9InN0cm9rZTojNTU1NTU1O3N0cm9rZS13aWR0aDoxLjA7IiB3aWR0aD0iMjM4IiB4PSIxMSIgeT0iMTM2Ljg0MzgiLz48cmVjdCBmaWxsPSIjRjFGMUYxIiBoZWlnaHQ9IjMyLjg0MzgiIHJ4PSIxMi41IiByeT0iMTIuNSIgc3R5bGU9InN0cm9rZTojMTgxODE4O3N0cm9rZS13aWR0aDowLjU7IiB3aWR0aD0iOTIiIHg9IjIzIiB5PSIxNjIuODQzOCIvPjx0ZXh0IGZpbGw9IiMwMDAwMDAiIGZvbnQtZmFtaWx5PSJzYW5zLXNlcmlmIiBmb250LXNpemU9IjEyIiBsZW5ndGhBZGp1c3Q9InNwYWNpbmciIHRleHRMZW5ndGg9IjcyIiB4PSIzMyIgeT0iMTg0LjE4NzUiPiYjMjg4NTc7JiMyMDk4NzsmIzI4ODU3OyYjMzYxOTA7JiMyNTM1MzsmIzM4MDYyOzwvdGV4dD48cmVjdCBmaWxsPSIjRjFGMUYxIiBoZWlnaHQ9IjMyLjg0MzgiIHJ4PSIxMi41IiByeT0iMTIuNSIgc3R5bGU9InN0cm9rZTojMTgxODE4O3N0cm9rZS13aWR0aDowLjU7IiB3aWR0aD0iNjgiIHg9IjM1IiB5PSIyMzAuNjg3NSIvPjx0ZXh0IGZpbGw9IiMwMDAwMDAiIGZvbnQtZmFtaWx5PSJzYW5zLXNlcmlmIiBmb250LXNpemU9IjEyIiBsZW5ndGhBZGp1c3Q9InNwYWNpbmciIHRleHRMZW5ndGg9IjQ4IiB4PSI0NSIgeT0iMjUyLjAzMTMiPiYjMjg4NTc7JiMzNjE5MDsmIzI1MTA0OyYjMjExNTE7PC90ZXh0PjxyZWN0IGZpbGw9IiNGMUYxRjEiIGhlaWdodD0iMzIuODQzOCIgcng9IjEyLjUiIHJ5PSIxMi41IiBzdHlsZT0ic3Ryb2tlOiMxODE4MTg7c3Ryb2tlLXdpZHRoOjAuNTsiIHdpZHRoPSI5MiIgeD0iMTQzIiB5PSIxNjIuODQzOCIvPjx0ZXh0IGZpbGw9IiMwMDAwMDAiIGZvbnQtZmFtaWx5PSJzYW5zLXNlcmlmIiBmb250LXNpemU9IjEyIiBsZW5ndGhBZGp1c3Q9InNwYWNpbmciIHRleHRMZW5ndGg9IjcyIiB4PSIxNTMiIHk9IjE4NC4xODc1Ij4mIzI4ODU3OyYjMjA5ODc7JiMyNTkxMDsmIzM0MjU1OyYjMjUzNTM7JiMzODA2Mjs8L3RleHQ+PHJlY3QgZmlsbD0iI0YxRjFGMSIgaGVpZ2h0PSIzMi44NDM4IiByeD0iMTIuNSIgcnk9IjEyLjUiIHN0eWxlPSJzdHJva2U6IzE4MTgxODtzdHJva2Utd2lkdGg6MC41OyIgd2lkdGg9IjY4IiB4PSIxNTUiIHk9IjIzMC42ODc1Ii8+PHRleHQgZmlsbD0iIzAwMDAwMCIgZm9udC1mYW1pbHk9InNhbnMtc2VyaWYiIGZvbnQtc2l6ZT0iMTIiIGxlbmd0aEFkanVzdD0ic3BhY2luZyIgdGV4dExlbmd0aD0iNDgiIHg9IjE2NSIgeT0iMjUyLjAzMTMiPiYjMjU5MTA7JiMzNDI1NTsmIzI1MTA0OyYjMjExNTE7PC90ZXh0PjxyZWN0IGZpbGw9IiM1NTU1NTUiIGhlaWdodD0iNiIgcng9IjIuNSIgcnk9IjIuNSIgc3R5bGU9InN0cm9rZTojNTU1NTU1O3N0cm9rZS13aWR0aDoxLjA7IiB3aWR0aD0iMjM4IiB4PSIxMSIgeT0iMjgzLjUzMTMiLz48cmVjdCBmaWxsPSIjRjFGMUYxIiBoZWlnaHQ9IjMyLjg0MzgiIHJ4PSIxMi41IiByeT0iMTIuNSIgc3R5bGU9InN0cm9rZTojMTgxODE4O3N0cm9rZS13aWR0aDowLjU7IiB3aWR0aD0iODAiIHg9IjQ0NiIgeT0iMTM2Ljg0MzgiLz48dGV4dCBmaWxsPSIjMDAwMDAwIiBmb250LWZhbWlseT0ic2Fucy1zZXJpZiIgZm9udC1zaXplPSIxMiIgbGVuZ3RoQWRqdXN0PSJzcGFjaW5nIiB0ZXh0TGVuZ3RoPSI2MCIgeD0iNDU2IiB5PSIxNTguMTg3NSI+JiMyNDM3NzsmIzIwOTg2OyYjMjU0ODA7JiMyNjQzNTsmIzI2Njk0OzwvdGV4dD48cG9seWdvbiBmaWxsPSIjRjFGMUYxIiBwb2ludHM9IjQ2MSwyMDQuNjg3NSw1MTEsMjA0LjY4NzUsNTIzLDIxNi42ODc1LDUxMSwyMjguNjg3NSw0NjEsMjI4LjY4NzUsNDQ5LDIxNi42ODc1LDQ2MSwyMDQuNjg3NSIgc3R5bGU9InN0cm9rZTojMTgxODE4O3N0cm9rZS13aWR0aDowLjU7Ii8+PHRleHQgZmlsbD0iIzAwMDAwMCIgZm9udC1mYW1pbHk9InNhbnMtc2VyaWYiIGZvbnQtc2l6ZT0iMTEiIGxlbmd0aEFkanVzdD0ic3BhY2luZyIgdGV4dExlbmd0aD0iNTAiIHg9IjQ2MSIgeT0iMjIxLjE5OTIiPiYjMjYxNTk7JiMyMTU0MjsmIzI1NDgwOyYjMjY0MzU7PzwvdGV4dD48dGV4dCBmaWxsPSIjMDAwMDAwIiBmb250LWZhbWlseT0ic2Fucy1zZXJpZiIgZm9udC1zaXplPSIxMSIgbGVuZ3RoQWRqdXN0PSJzcGFjaW5nIiB0ZXh0TGVuZ3RoPSIxMSIgeD0iNDM4IiB5PSIyMTUuMzEyNSI+JiMyNjE1OTs8L3RleHQ+PHRleHQgZmlsbD0iIzAwMDAwMCIgZm9udC1mYW1pbHk9InNhbnMtc2VyaWYiIGZvbnQtc2l6ZT0iMTEiIGxlbmd0aEFkanVzdD0ic3BhY2luZyIgdGV4dExlbmd0aD0iMTEiIHg9IjUyMyIgeT0iMjE1LjMxMjUiPiYjMjE1NDI7PC90ZXh0PjxyZWN0IGZpbGw9IiM1NTU1NTUiIGhlaWdodD0iNiIgcng9IjIuNSIgcnk9IjIuNSIgc3R5bGU9InN0cm9rZTojNTU1NTU1O3N0cm9rZS13aWR0aDoxLjA7IiB3aWR0aD0iMjQwIiB4PSIyNzkiIHk9IjIzOC42ODc1Ii8+PHJlY3QgZmlsbD0iI0YxRjFGMSIgaGVpZ2h0PSIzMi44NDM4IiByeD0iMTIuNSIgcnk9IjEyLjUiIHN0eWxlPSJzdHJva2U6IzE4MTgxODtzdHJva2Utd2lkdGg6MC41OyIgd2lkdGg9IjkyIiB4PSIyOTMiIHk9IjI2NC42ODc1Ii8+PHRleHQgZmlsbD0iIzAwMDAwMCIgZm9udC1mYW1pbHk9InNhbnMtc2VyaWYiIGZvbnQtc2l6ZT0iMTIiIGxlbmd0aEFkanVzdD0ic3BhY2luZyIgdGV4dExlbmd0aD0iNzIiIHg9IjMwMyIgeT0iMjg2LjAzMTMiPiYjMjg4NTc7JiMyMDk4NzsmIzI4ODU3OyYjMzYxOTA7JiMyNTM1MzsmIzM4MDYyOzwvdGV4dD48cmVjdCBmaWxsPSIjRjFGMUYxIiBoZWlnaHQ9IjMyLjg0MzgiIHJ4PSIxMi41IiByeT0iMTIuNSIgc3R5bGU9InN0cm9rZTojMTgxODE4O3N0cm9rZS13aWR0aDowLjU7IiB3aWR0aD0iNjgiIHg9IjMwNSIgeT0iMzE3LjUzMTMiLz48dGV4dCBmaWxsPSIjMDAwMDAwIiBmb250LWZhbWlseT0ic2Fucy1zZXJpZiIgZm9udC1zaXplPSIxMiIgbGVuZ3RoQWRqdXN0PSJzcGFjaW5nIiB0ZXh0TGVuZ3RoPSI0OCIgeD0iMzE1IiB5PSIzMzguODc1Ij4mIzI4ODU3OyYjMzYxOTA7JiMyNTEwNDsmIzIxMTUxOzwvdGV4dD48cmVjdCBmaWxsPSIjRjFGMUYxIiBoZWlnaHQ9IjMyLjg0MzgiIHJ4PSIxMi41IiByeT0iMTIuNSIgc3R5bGU9InN0cm9rZTojMTgxODE4O3N0cm9rZS13aWR0aDowLjU7IiB3aWR0aD0iOTIiIHg9IjQxMyIgeT0iMjY0LjY4NzUiLz48dGV4dCBmaWxsPSIjMDAwMDAwIiBmb250LWZhbWlseT0ic2Fucy1zZXJpZiIgZm9udC1zaXplPSIxMiIgbGVuZ3RoQWRqdXN0PSJzcGFjaW5nIiB0ZXh0TGVuZ3RoPSI3MiIgeD0iNDIzIiB5PSIyODYuMDMxMyI+JiMyODg1NzsmIzIwOTg3OyYjMjU5MTA7JiMzNDI1NTsmIzI1MzUzOyYjMzgwNjI7PC90ZXh0PjxyZWN0IGZpbGw9IiNGMUYxRjEiIGhlaWdodD0iMzIuODQzOCIgcng9IjEyLjUiIHJ5PSIxMi41IiBzdHlsZT0ic3Ryb2tlOiMxODE4MTg7c3Ryb2tlLXdpZHRoOjAuNTsiIHdpZHRoPSI2OCIgeD0iNDI1IiB5PSIzMTcuNTMxMyIvPjx0ZXh0IGZpbGw9IiMwMDAwMDAiIGZvbnQtZmFtaWx5PSJzYW5zLXNlcmlmIiBmb250LXNpemU9IjEyIiBsZW5ndGhBZGp1c3Q9InNwYWNpbmciIHRleHRMZW5ndGg9IjQ4IiB4PSI0MzUiIHk9IjMzOC44NzUiPiYjMjU5MTA7JiMzNDI1NTsmIzI1MTA0OyYjMjExNTE7PC90ZXh0PjxyZWN0IGZpbGw9IiM1NTU1NTUiIGhlaWdodD0iNiIgcng9IjIuNSIgcnk9IjIuNSIgc3R5bGU9InN0cm9rZTojNTU1NTU1O3N0cm9rZS13aWR0aDoxLjA7IiB3aWR0aD0iMjQwIiB4PSIyNzkiIHk9IjM3MC4zNzUiLz48cmVjdCBmaWxsPSIjRjFGMUYxIiBoZWlnaHQ9IjMyLjg0MzgiIHJ4PSIxMi41IiByeT0iMTIuNSIgc3R5bGU9InN0cm9rZTojMTgxODE4O3N0cm9rZS13aWR0aDowLjU7IiB3aWR0aD0iNjgiIHg9IjUzOSIgeT0iMjM4LjY4NzUiLz48dGV4dCBmaWxsPSIjMDAwMDAwIiBmb250LWZhbWlseT0ic2Fucy1zZXJpZiIgZm9udC1zaXplPSIxMiIgbGVuZ3RoQWRqdXN0PSJzcGFjaW5nIiB0ZXh0TGVuZ3RoPSI0OCIgeD0iNTQ5IiB5PSIyNjAuMDMxMyI+JiMyNTgwNTsmIzIwMzE2OyYjMjE0NjI7JiMyODA0MDs8L3RleHQ+PHBvbHlnb24gZmlsbD0iI0YxRjFGMSIgcG9pbnRzPSI0ODYsMzgyLjM3NSw0OTgsMzk0LjM3NSw0ODYsNDA2LjM3NSw0NzQsMzk0LjM3NSw0ODYsMzgyLjM3NSIgc3R5bGU9InN0cm9rZTojMTgxODE4O3N0cm9rZS13aWR0aDowLjU7Ii8+PHBvbHlnb24gZmlsbD0iI0YxRjFGMSIgcG9pbnRzPSIzMDcuNSw0MTIuMzc1LDMxOS41LDQyNC4zNzUsMzA3LjUsNDM2LjM3NSwyOTUuNSw0MjQuMzc1LDMwNy41LDQxMi4zNzUiIHN0eWxlPSJzdHJva2U6IzE4MTgxODtzdHJva2Utd2lkdGg6MC41OyIvPjxlbGxpcHNlIGN4PSIzMDcuNSIgY3k9IjQ2Ny4zNzUiIGZpbGw9Im5vbmUiIHJ4PSIxMSIgcnk9IjExIiBzdHlsZT0ic3Ryb2tlOiMyMjIyMjI7c3Ryb2tlLXdpZHRoOjEuMDsiLz48ZWxsaXBzZSBjeD0iMzA3LjUiIGN5PSI0NjcuMzc1IiBmaWxsPSIjMjIyMjIyIiByeD0iNiIgcnk9IjYiIHN0eWxlPSJzdHJva2U6IzIyMjIyMjtzdHJva2Utd2lkdGg6MS4wOyIvPjxsaW5lIHN0eWxlPSJzdHJva2U6IzE4MTgxODtzdHJva2Utd2lkdGg6MS4wOyIgeDE9IjMwNy41IiB4Mj0iMzA3LjUiIHkxPSIzMCIgeTI9IjUwIi8+PHBvbHlnb24gZmlsbD0iIzE4MTgxOCIgcG9pbnRzPSIzMDMuNSw0MCwzMDcuNSw1MCwzMTEuNSw0MCwzMDcuNSw0NCIgc3R5bGU9InN0cm9rZTojMTgxODE4O3N0cm9rZS13aWR0aDoxLjA7Ii8+PGxpbmUgc3R5bGU9InN0cm9rZTojMTgxODE4O3N0cm9rZS13aWR0aDoxLjA7IiB4MT0iNjkiIHgyPSI2OSIgeTE9IjE5NS42ODc1IiB5Mj0iMjMwLjY4NzUiLz48cG9seWdvbiBmaWxsPSIjMTgxODE4IiBwb2ludHM9IjY1LDIyMC42ODc1LDY5LDIzMC42ODc1LDczLDIyMC42ODc1LDY5LDIyNC42ODc1IiBzdHlsZT0ic3Ryb2tlOiMxODE4MTg7c3Ryb2tlLXdpZHRoOjEuMDsiLz48bGluZSBzdHlsZT0ic3Ryb2tlOiMxODE4MTg7c3Ryb2tlLXdpZHRoOjEuMDsiIHgxPSIxODkiIHgyPSIxODkiIHkxPSIxOTUuNjg3NSIgeTI9IjIzMC42ODc1Ii8+PHBvbHlnb24gZmlsbD0iIzE4MTgxOCIgcG9pbnRzPSIxODUsMjIwLjY4NzUsMTg5LDIzMC42ODc1LDE5MywyMjAuNjg3NSwxODksMjI0LjY4NzUiIHN0eWxlPSJzdHJva2U6IzE4MTgxODtzdHJva2Utd2lkdGg6MS4wOyIvPjxsaW5lIHN0eWxlPSJzdHJva2U6IzE4MTgxODtzdHJva2Utd2lkdGg6MS4wOyIgeDE9IjY5IiB4Mj0iNjkiIHkxPSIxNDIuODQzOCIgeTI9IjE2Mi44NDM4Ii8+PHBvbHlnb24gZmlsbD0iIzE4MTgxOCIgcG9pbnRzPSI2NSwxNTIuODQzOCw2OSwxNjIuODQzOCw3MywxNTIuODQzOCw2OSwxNTYuODQzOCIgc3R5bGU9InN0cm9rZTojMTgxODE4O3N0cm9rZS13aWR0aDoxLjA7Ii8+PGxpbmUgc3R5bGU9InN0cm9rZTojMTgxODE4O3N0cm9rZS13aWR0aDoxLjA7IiB4MT0iMTg5IiB4Mj0iMTg5IiB5MT0iMTQyLjg0MzgiIHkyPSIxNjIuODQzOCIvPjxwb2x5Z29uIGZpbGw9IiMxODE4MTgiIHBvaW50cz0iMTg1LDE1Mi44NDM4LDE4OSwxNjIuODQzOCwxOTMsMTUyLjg0MzgsMTg5LDE1Ni44NDM4IiBzdHlsZT0ic3Ryb2tlOiMxODE4MTg7c3Ryb2tlLXdpZHRoOjEuMDsiLz48bGluZSBzdHlsZT0ic3Ryb2tlOiMxODE4MTg7c3Ryb2tlLXdpZHRoOjEuMDsiIHgxPSI2OSIgeDI9IjY5IiB5MT0iMjYzLjUzMTMiIHkyPSIyODMuNTMxMyIvPjxwb2x5Z29uIGZpbGw9IiMxODE4MTgiIHBvaW50cz0iNjUsMjczLjUzMTMsNjksMjgzLjUzMTMsNzMsMjczLjUzMTMsNjksMjc3LjUzMTMiIHN0eWxlPSJzdHJva2U6IzE4MTgxODtzdHJva2Utd2lkdGg6MS4wOyIvPjxsaW5lIHN0eWxlPSJzdHJva2U6IzE4MTgxODtzdHJva2Utd2lkdGg6MS4wOyIgeDE9IjE4OSIgeDI9IjE4OSIgeTE9IjI2My41MzEzIiB5Mj0iMjgzLjUzMTMiLz48cG9seWdvbiBmaWxsPSIjMTgxODE4IiBwb2ludHM9IjE4NSwyNzMuNTMxMywxODksMjgzLjUzMTMsMTkzLDI3My41MzEzLDE4OSwyNzcuNTMxMyIgc3R5bGU9InN0cm9rZTojMTgxODE4O3N0cm9rZS13aWR0aDoxLjA7Ii8+PGxpbmUgc3R5bGU9InN0cm9rZTojMTgxODE4O3N0cm9rZS13aWR0aDoxLjA7IiB4MT0iMzM5IiB4Mj0iMzM5IiB5MT0iMjk3LjUzMTMiIHkyPSIzMTcuNTMxMyIvPjxwb2x5Z29uIGZpbGw9IiMxODE4MTgiIHBvaW50cz0iMzM1LDMwNy41MzEzLDMzOSwzMTcuNTMxMywzNDMsMzA3LjUzMTMsMzM5LDMxMS41MzEzIiBzdHlsZT0ic3Ryb2tlOiMxODE4MTg7c3Ryb2tlLXdpZHRoOjEuMDsiLz48bGluZSBzdHlsZT0ic3Ryb2tlOiMxODE4MTg7c3Ryb2tlLXdpZHRoOjEuMDsiIHgxPSI0NTkiIHgyPSI0NTkiIHkxPSIyOTcuNTMxMyIgeTI9IjMxNy41MzEzIi8+PHBvbHlnb24gZmlsbD0iIzE4MTgxOCIgcG9pbnRzPSI0NTUsMzA3LjUzMTMsNDU5LDMxNy41MzEzLDQ2MywzMDcuNTMxMyw0NTksMzExLjUzMTMiIHN0eWxlPSJzdHJva2U6IzE4MTgxODtzdHJva2Utd2lkdGg6MS4wOyIvPjxsaW5lIHN0eWxlPSJzdHJva2U6IzE4MTgxODtzdHJva2Utd2lkdGg6MS4wOyIgeDE9IjMzOSIgeDI9IjMzOSIgeTE9IjI0NC42ODc1IiB5Mj0iMjY0LjY4NzUiLz48cG9seWdvbiBmaWxsPSIjMTgxODE4IiBwb2ludHM9IjMzNSwyNTQuNjg3NSwzMzksMjY0LjY4NzUsMzQzLDI1NC42ODc1LDMzOSwyNTguNjg3NSIgc3R5bGU9InN0cm9rZTojMTgxODE4O3N0cm9rZS13aWR0aDoxLjA7Ii8+PGxpbmUgc3R5bGU9InN0cm9rZTojMTgxODE4O3N0cm9rZS13aWR0aDoxLjA7IiB4MT0iNDU5IiB4Mj0iNDU5IiB5MT0iMjQ0LjY4NzUiIHkyPSIyNjQuNjg3NSIvPjxwb2x5Z29uIGZpbGw9IiMxODE4MTgiIHBvaW50cz0iNDU1LDI1NC42ODc1LDQ1OSwyNjQuNjg3NSw0NjMsMjU0LjY4NzUsNDU5LDI1OC42ODc1IiBzdHlsZT0ic3Ryb2tlOiMxODE4MTg7c3Ryb2tlLXdpZHRoOjEuMDsiLz48bGluZSBzdHlsZT0ic3Ryb2tlOiMxODE4MTg7c3Ryb2tlLXdpZHRoOjEuMDsiIHgxPSIzMzkiIHgyPSIzMzkiIHkxPSIzNTAuMzc1IiB5Mj0iMzcwLjM3NSIvPjxwb2x5Z29uIGZpbGw9IiMxODE4MTgiIHBvaW50cz0iMzM1LDM2MC4zNzUsMzM5LDM3MC4zNzUsMzQzLDM2MC4zNzUsMzM5LDM2NC4zNzUiIHN0eWxlPSJzdHJva2U6IzE4MTgxODtzdHJva2Utd2lkdGg6MS4wOyIvPjxsaW5lIHN0eWxlPSJzdHJva2U6IzE4MTgxODtzdHJva2Utd2lkdGg6MS4wOyIgeDE9IjQ1OSIgeDI9IjQ1OSIgeTE9IjM1MC4zNzUiIHkyPSIzNzAuMzc1Ii8+PHBvbHlnb24gZmlsbD0iIzE4MTgxOCIgcG9pbnRzPSI0NTUsMzYwLjM3NSw0NTksMzcwLjM3NSw0NjMsMzYwLjM3NSw0NTksMzY0LjM3NSIgc3R5bGU9InN0cm9rZTojMTgxODE4O3N0cm9rZS13aWR0aDoxLjA7Ii8+PGxpbmUgc3R5bGU9InN0cm9rZTojMTgxODE4O3N0cm9rZS13aWR0aDoxLjA7IiB4MT0iNDQ5IiB4Mj0iMzk5IiB5MT0iMjE2LjY4NzUiIHkyPSIyMTYuNjg3NSIvPjxsaW5lIHN0eWxlPSJzdHJva2U6IzE4MTgxODtzdHJva2Utd2lkdGg6MS4wOyIgeDE9IjM5OSIgeDI9IjM5OSIgeTE9IjIxNi42ODc1IiB5Mj0iMjM4LjY4NzUiLz48cG9seWdvbiBmaWxsPSIjMTgxODE4IiBwb2ludHM9IjM5NSwyMjguNjg3NSwzOTksMjM4LjY4NzUsNDAzLDIyOC42ODc1LDM5OSwyMzIuNjg3NSIgc3R5bGU9InN0cm9rZTojMTgxODE4O3N0cm9rZS13aWR0aDoxLjA7Ii8+PGxpbmUgc3R5bGU9InN0cm9rZTojMTgxODE4O3N0cm9rZS13aWR0aDoxLjA7IiB4MT0iNTIzIiB4Mj0iNTczIiB5MT0iMjE2LjY4NzUiIHkyPSIyMTYuNjg3NSIvPjxsaW5lIHN0eWxlPSJzdHJva2U6IzE4MTgxODtzdHJva2Utd2lkdGg6MS4wOyIgeDE9IjU3MyIgeDI9IjU3MyIgeTE9IjIxNi42ODc1IiB5Mj0iMjM4LjY4NzUiLz48cG9seWdvbiBmaWxsPSIjMTgxODE4IiBwb2ludHM9IjU2OSwyMjguNjg3NSw1NzMsMjM4LjY4NzUsNTc3LDIyOC42ODc1LDU3MywyMzIuNjg3NSIgc3R5bGU9InN0cm9rZTojMTgxODE4O3N0cm9rZS13aWR0aDoxLjA7Ii8+PGxpbmUgc3R5bGU9InN0cm9rZTojMTgxODE4O3N0cm9rZS13aWR0aDoxLjA7IiB4MT0iMzk5IiB4Mj0iMzk5IiB5MT0iMzc2LjM3NSIgeTI9IjM5NC4zNzUiLz48bGluZSBzdHlsZT0ic3Ryb2tlOiMxODE4MTg7c3Ryb2tlLXdpZHRoOjEuMDsiIHgxPSIzOTkiIHgyPSI0NzQiIHkxPSIzOTQuMzc1IiB5Mj0iMzk0LjM3NSIvPjxwb2x5Z29uIGZpbGw9IiMxODE4MTgiIHBvaW50cz0iNDY0LDM5MC4zNzUsNDc0LDM5NC4zNzUsNDY0LDM5OC4zNzUsNDY4LDM5NC4zNzUiIHN0eWxlPSJzdHJva2U6IzE4MTgxODtzdHJva2Utd2lkdGg6MS4wOyIvPjxsaW5lIHN0eWxlPSJzdHJva2U6IzE4MTgxODtzdHJva2Utd2lkdGg6MS4wOyIgeDE9IjU3MyIgeDI9IjU3MyIgeTE9IjI3MS41MzEzIiB5Mj0iMzk0LjM3NSIvPjxsaW5lIHN0eWxlPSJzdHJva2U6IzE4MTgxODtzdHJva2Utd2lkdGg6MS4wOyIgeDE9IjU3MyIgeDI9IjQ5OCIgeTE9IjM5NC4zNzUiIHkyPSIzOTQuMzc1Ii8+PHBvbHlnb24gZmlsbD0iIzE4MTgxOCIgcG9pbnRzPSI1MDgsMzkwLjM3NSw0OTgsMzk0LjM3NSw1MDgsMzk4LjM3NSw1MDQsMzk0LjM3NSIgc3R5bGU9InN0cm9rZTojMTgxODE4O3N0cm9rZS13aWR0aDoxLjA7Ii8+PGxpbmUgc3R5bGU9InN0cm9rZTojMTgxODE4O3N0cm9rZS13aWR0aDoxLjA7IiB4MT0iNDg2IiB4Mj0iNDg2IiB5MT0iMTY5LjY4NzUiIHkyPSIyMDQuNjg3NSIvPjxwb2x5Z29uIGZpbGw9IiMxODE4MTgiIHBvaW50cz0iNDgyLDE5NC42ODc1LDQ4NiwyMDQuNjg3NSw0OTAsMTk0LjY4NzUsNDg2LDE5OC42ODc1IiBzdHlsZT0ic3Ryb2tlOiMxODE4MTg7c3Ryb2tlLXdpZHRoOjEuMDsiLz48bGluZSBzdHlsZT0ic3Ryb2tlOiMxODE4MTg7c3Ryb2tlLXdpZHRoOjEuMDsiIHgxPSIyNTQiIHgyPSIxMjkiIHkxPSIxMTQuODQzOCIgeTI9IjExNC44NDM4Ii8+PGxpbmUgc3R5bGU9InN0cm9rZTojMTgxODE4O3N0cm9rZS13aWR0aDoxLjA7IiB4MT0iMTI5IiB4Mj0iMTI5IiB5MT0iMTE0Ljg0MzgiIHkyPSIxMzYuODQzOCIvPjxwb2x5Z29uIGZpbGw9IiMxODE4MTgiIHBvaW50cz0iMTI1LDEyNi44NDM4LDEyOSwxMzYuODQzOCwxMzMsMTI2Ljg0MzgsMTI5LDEzMC44NDM4IiBzdHlsZT0ic3Ryb2tlOiMxODE4MTg7c3Ryb2tlLXdpZHRoOjEuMDsiLz48bGluZSBzdHlsZT0ic3Ryb2tlOiMxODE4MTg7c3Ryb2tlLXdpZHRoOjEuMDsiIHgxPSIzNjEiIHgyPSI0ODYiIHkxPSIxMTQuODQzOCIgeTI9IjExNC44NDM4Ii8+PGxpbmUgc3R5bGU9InN0cm9rZTojMTgxODE4O3N0cm9rZS13aWR0aDoxLjA7IiB4MT0iNDg2IiB4Mj0iNDg2IiB5MT0iMTE0Ljg0MzgiIHkyPSIxMzYuODQzOCIvPjxwb2x5Z29uIGZpbGw9IiMxODE4MTgiIHBvaW50cz0iNDgyLDEyNi44NDM4LDQ4NiwxMzYuODQzOCw0OTAsMTI2Ljg0MzgsNDg2LDEzMC44NDM4IiBzdHlsZT0ic3Ryb2tlOiMxODE4MTg7c3Ryb2tlLXdpZHRoOjEuMDsiLz48bGluZSBzdHlsZT0ic3Ryb2tlOiMxODE4MTg7c3Ryb2tlLXdpZHRoOjEuMDsiIHgxPSIxMjkiIHgyPSIxMjkiIHkxPSIyODkuNTMxMyIgeTI9IjQyNC4zNzUiLz48bGluZSBzdHlsZT0ic3Ryb2tlOiMxODE4MTg7c3Ryb2tlLXdpZHRoOjEuMDsiIHgxPSIxMjkiIHgyPSIyOTUuNSIgeTE9IjQyNC4zNzUiIHkyPSI0MjQuMzc1Ii8+PHBvbHlnb24gZmlsbD0iIzE4MTgxOCIgcG9pbnRzPSIyODUuNSw0MjAuMzc1LDI5NS41LDQyNC4zNzUsMjg1LjUsNDI4LjM3NSwyODkuNSw0MjQuMzc1IiBzdHlsZT0ic3Ryb2tlOiMxODE4MTg7c3Ryb2tlLXdpZHRoOjEuMDsiLz48bGluZSBzdHlsZT0ic3Ryb2tlOiMxODE4MTg7c3Ryb2tlLXdpZHRoOjEuMDsiIHgxPSI0ODYiIHgyPSI0ODYiIHkxPSI0MDYuMzc1IiB5Mj0iNDI0LjM3NSIvPjxsaW5lIHN0eWxlPSJzdHJva2U6IzE4MTgxODtzdHJva2Utd2lkdGg6MS4wOyIgeDE9IjQ4NiIgeDI9IjMxOS41IiB5MT0iNDI0LjM3NSIgeTI9IjQyNC4zNzUiLz48cG9seWdvbiBmaWxsPSIjMTgxODE4IiBwb2ludHM9IjMyOS41LDQyMC4zNzUsMzE5LjUsNDI0LjM3NSwzMjkuNSw0MjguMzc1LDMyNS41LDQyNC4zNzUiIHN0eWxlPSJzdHJva2U6IzE4MTgxODtzdHJva2Utd2lkdGg6MS4wOyIvPjxsaW5lIHN0eWxlPSJzdHJva2U6IzE4MTgxODtzdHJva2Utd2lkdGg6MS4wOyIgeDE9IjMwNy41IiB4Mj0iMzA3LjUiIHkxPSI4Mi44NDM4IiB5Mj0iMTAyLjg0MzgiLz48cG9seWdvbiBmaWxsPSIjMTgxODE4IiBwb2ludHM9IjMwMy41LDkyLjg0MzgsMzA3LjUsMTAyLjg0MzgsMzExLjUsOTIuODQzOCwzMDcuNSw5Ni44NDM4IiBzdHlsZT0ic3Ryb2tlOiMxODE4MTg7c3Ryb2tlLXdpZHRoOjEuMDsiLz48bGluZSBzdHlsZT0ic3Ryb2tlOiMxODE4MTg7c3Ryb2tlLXdpZHRoOjEuMDsiIHgxPSIzMDcuNSIgeDI9IjMwNy41IiB5MT0iNDM2LjM3NSIgeTI9IjQ1Ni4zNzUiLz48cG9seWdvbiBmaWxsPSIjMTgxODE4IiBwb2ludHM9IjMwMy41LDQ0Ni4zNzUsMzA3LjUsNDU2LjM3NSwzMTEuNSw0NDYuMzc1LDMwNy41LDQ1MC4zNzUiIHN0eWxlPSJzdHJva2U6IzE4MTgxODtzdHJva2Utd2lkdGg6MS4wOyIvPjwhLS1TUkM9W0FvdjlCMmhYdWg5d3NUM3ZoN2xicXlNRHB0VmppRVJZb2FuSnE3V3NPX3RKMlNrVVJqX3FoQV9ac1RwY3ZwRHRGenF4ckx2SmVJR1pER3lpZ3ljYjAwSGYtS05QTzBPOE0zcmxzbGNxVkpVR1ZCNXJ0aEVVcGZVSnJiY1pJOEE0RW9PeXhQZmwzVFVpYTlZVWM5YzdSaUlwQVRqVUpFXzdDMDhnWjZINFFidUFuMHNmRVNNZjJYZjA5cUZTUFZMcTN6MlNOSDM3RnJsTzFiNkR5MVg0MGpDXzY3dVl3MnlTVmlGWEZybi1MNDFMV1ViSDVDLTJFUVdVWGNZUnRGamF4dm9kX1RFVVJVazBYcXpjNlhVNHYyZWtvSXkwMDAwMF0tLT48L2c+PC9zdmc+;" parent="1" vertex="1">
            <mxGeometry x="-478" y="1190" width="618" height="489" as="geometry" />
          </mxCell>
        </UserObject>
        <UserObject label="" plantUmlData="{&#xa;  &quot;data&quot;: &quot;@startuml\nstart\n\n:选择壁纸;\n\nif (是否已授权登录?) then (是)\n    :点击点赞按钮;\n    :点赞成功;\n    :点击收藏按钮;\n    :收藏成功;\nelse (否)\n    :弹出授权框;\n    if (是否授权?) then (是)\n        :点击点赞按钮;\n        :点赞成功;\n        :点击收藏按钮;\n        :收藏成功;\n    else (否)\n        :操作取消;\n    endif\nendif\n\nstop\n@enduml&quot;,&#xa;  &quot;format&quot;: &quot;svg&quot;&#xa;}" id="3U-3EoWDj0iMzqLdLdJn-5">
          <mxCell style="shape=image;noLabel=1;verticalAlign=top;aspect=fixed;imageAspect=0;image=data:image/svg+xml,PD94bWwgdmVyc2lvbj0iMS4wIiBlbmNvZGluZz0idXMtYXNjaWkiIHN0YW5kYWxvbmU9Im5vIj8+PHN2ZyB4bWxucz0iaHR0cDovL3d3dy53My5vcmcvMjAwMC9zdmciIHhtbG5zOnhsaW5rPSJodHRwOi8vd3d3LnczLm9yZy8xOTk5L3hsaW5rIiBjb250ZW50U3R5bGVUeXBlPSJ0ZXh0L2NzcyIgaGVpZ2h0PSI1NThweCIgcHJlc2VydmVBc3BlY3RSYXRpbz0ibm9uZSIgc3R5bGU9IndpZHRoOjMyNHB4O2hlaWdodDo1NThweDtiYWNrZ3JvdW5kOiNGRkZGRkY7IiB2ZXJzaW9uPSIxLjEiIHZpZXdCb3g9IjAgMCAzMjQgNTU4IiB3aWR0aD0iMzI0cHgiIHpvb21BbmRQYW49Im1hZ25pZnkiPjxkZWZzLz48Zz48ZWxsaXBzZSBjeD0iMTQzIiBjeT0iMjAiIGZpbGw9IiMyMjIyMjIiIHJ4PSIxMCIgcnk9IjEwIiBzdHlsZT0ic3Ryb2tlOiMyMjIyMjI7c3Ryb2tlLXdpZHRoOjEuMDsiLz48cmVjdCBmaWxsPSIjRjFGMUYxIiBoZWlnaHQ9IjMyLjg0MzgiIHJ4PSIxMi41IiByeT0iMTIuNSIgc3R5bGU9InN0cm9rZTojMTgxODE4O3N0cm9rZS13aWR0aDowLjU7IiB3aWR0aD0iNjgiIHg9IjEwOSIgeT0iNTAiLz48dGV4dCBmaWxsPSIjMDAwMDAwIiBmb250LWZhbWlseT0ic2Fucy1zZXJpZiIgZm9udC1zaXplPSIxMiIgbGVuZ3RoQWRqdXN0PSJzcGFjaW5nIiB0ZXh0TGVuZ3RoPSI0OCIgeD0iMTE5IiB5PSI3MS4zNDM4Ij4mIzM2ODczOyYjMjUzMjE7JiMyMjcyMTsmIzMyNDQwOzwvdGV4dD48cG9seWdvbiBmaWxsPSIjRjFGMUYxIiBwb2ludHM9IjEwMS41LDEwMi44NDM4LDE4NC41LDEwMi44NDM4LDE5Ni41LDExNC44NDM4LDE4NC41LDEyNi44NDM4LDEwMS41LDEyNi44NDM4LDg5LjUsMTE0Ljg0MzgsMTAxLjUsMTAyLjg0MzgiIHN0eWxlPSJzdHJva2U6IzE4MTgxODtzdHJva2Utd2lkdGg6MC41OyIvPjx0ZXh0IGZpbGw9IiMwMDAwMDAiIGZvbnQtZmFtaWx5PSJzYW5zLXNlcmlmIiBmb250LXNpemU9IjExIiBsZW5ndGhBZGp1c3Q9InNwYWNpbmciIHRleHRMZW5ndGg9IjgzIiB4PSIxMDEuNSIgeT0iMTE5LjM1NTUiPiYjMjYxNTk7JiMyMTU0MjsmIzI0MDUwOyYjMjU0ODA7JiMyNjQzNTsmIzMwMzMxOyYjMjQ0MDU7PzwvdGV4dD48dGV4dCBmaWxsPSIjMDAwMDAwIiBmb250LWZhbWlseT0ic2Fucy1zZXJpZiIgZm9udC1zaXplPSIxMSIgbGVuZ3RoQWRqdXN0PSJzcGFjaW5nIiB0ZXh0TGVuZ3RoPSIxMSIgeD0iNzguNSIgeT0iMTEzLjQ2ODgiPiYjMjYxNTk7PC90ZXh0Pjx0ZXh0IGZpbGw9IiMwMDAwMDAiIGZvbnQtZmFtaWx5PSJzYW5zLXNlcmlmIiBmb250LXNpemU9IjExIiBsZW5ndGhBZGp1c3Q9InNwYWNpbmciIHRleHRMZW5ndGg9IjExIiB4PSIxOTYuNSIgeT0iMTEzLjQ2ODgiPiYjMjE1NDI7PC90ZXh0PjxyZWN0IGZpbGw9IiNGMUYxRjEiIGhlaWdodD0iMzIuODQzOCIgcng9IjEyLjUiIHJ5PSIxMi41IiBzdHlsZT0ic3Ryb2tlOiMxODE4MTg7c3Ryb2tlLXdpZHRoOjAuNTsiIHdpZHRoPSI5MiIgeD0iMTEiIHk9IjEzNi44NDM4Ii8+PHRleHQgZmlsbD0iIzAwMDAwMCIgZm9udC1mYW1pbHk9InNhbnMtc2VyaWYiIGZvbnQtc2l6ZT0iMTIiIGxlbmd0aEFkanVzdD0ic3BhY2luZyIgdGV4dExlbmd0aD0iNzIiIHg9IjIxIiB5PSIxNTguMTg3NSI+JiMyODg1NzsmIzIwOTg3OyYjMjg4NTc7JiMzNjE5MDsmIzI1MzUzOyYjMzgwNjI7PC90ZXh0PjxyZWN0IGZpbGw9IiNGMUYxRjEiIGhlaWdodD0iMzIuODQzOCIgcng9IjEyLjUiIHJ5PSIxMi41IiBzdHlsZT0ic3Ryb2tlOiMxODE4MTg7c3Ryb2tlLXdpZHRoOjAuNTsiIHdpZHRoPSI2OCIgeD0iMjMiIHk9IjE4OS42ODc1Ii8+PHRleHQgZmlsbD0iIzAwMDAwMCIgZm9udC1mYW1pbHk9InNhbnMtc2VyaWYiIGZvbnQtc2l6ZT0iMTIiIGxlbmd0aEFkanVzdD0ic3BhY2luZyIgdGV4dExlbmd0aD0iNDgiIHg9IjMzIiB5PSIyMTEuMDMxMyI+JiMyODg1NzsmIzM2MTkwOyYjMjUxMDQ7JiMyMTE1MTs8L3RleHQ+PHJlY3QgZmlsbD0iI0YxRjFGMSIgaGVpZ2h0PSIzMi44NDM4IiByeD0iMTIuNSIgcnk9IjEyLjUiIHN0eWxlPSJzdHJva2U6IzE4MTgxODtzdHJva2Utd2lkdGg6MC41OyIgd2lkdGg9IjkyIiB4PSIxMSIgeT0iMjU3LjUzMTMiLz48dGV4dCBmaWxsPSIjMDAwMDAwIiBmb250LWZhbWlseT0ic2Fucy1zZXJpZiIgZm9udC1zaXplPSIxMiIgbGVuZ3RoQWRqdXN0PSJzcGFjaW5nIiB0ZXh0TGVuZ3RoPSI3MiIgeD0iMjEiIHk9IjI3OC44NzUiPiYjMjg4NTc7JiMyMDk4NzsmIzI1OTEwOyYjMzQyNTU7JiMyNTM1MzsmIzM4MDYyOzwvdGV4dD48cmVjdCBmaWxsPSIjRjFGMUYxIiBoZWlnaHQ9IjMyLjg0MzgiIHJ4PSIxMi41IiByeT0iMTIuNSIgc3R5bGU9InN0cm9rZTojMTgxODE4O3N0cm9rZS13aWR0aDowLjU7IiB3aWR0aD0iNjgiIHg9IjIzIiB5PSIzMjUuMzc1Ii8+PHRleHQgZmlsbD0iIzAwMDAwMCIgZm9udC1mYW1pbHk9InNhbnMtc2VyaWYiIGZvbnQtc2l6ZT0iMTIiIGxlbmd0aEFkanVzdD0ic3BhY2luZyIgdGV4dExlbmd0aD0iNDgiIHg9IjMzIiB5PSIzNDYuNzE4OCI+JiMyNTkxMDsmIzM0MjU1OyYjMjUxMDQ7JiMyMTE1MTs8L3RleHQ+PHJlY3QgZmlsbD0iI0YxRjFGMSIgaGVpZ2h0PSIzMi44NDM4IiByeD0iMTIuNSIgcnk9IjEyLjUiIHN0eWxlPSJzdHJva2U6IzE4MTgxODtzdHJva2Utd2lkdGg6MC41OyIgd2lkdGg9IjgwIiB4PSIxODkiIHk9IjEzNi44NDM4Ii8+PHRleHQgZmlsbD0iIzAwMDAwMCIgZm9udC1mYW1pbHk9InNhbnMtc2VyaWYiIGZvbnQtc2l6ZT0iMTIiIGxlbmd0aEFkanVzdD0ic3BhY2luZyIgdGV4dExlbmd0aD0iNjAiIHg9IjE5OSIgeT0iMTU4LjE4NzUiPiYjMjQzNzc7JiMyMDk4NjsmIzI1NDgwOyYjMjY0MzU7JiMyNjY5NDs8L3RleHQ+PHBvbHlnb24gZmlsbD0iI0YxRjFGMSIgcG9pbnRzPSIyMDQsMTg5LjY4NzUsMjU0LDE4OS42ODc1LDI2NiwyMDEuNjg3NSwyNTQsMjEzLjY4NzUsMjA0LDIxMy42ODc1LDE5MiwyMDEuNjg3NSwyMDQsMTg5LjY4NzUiIHN0eWxlPSJzdHJva2U6IzE4MTgxODtzdHJva2Utd2lkdGg6MC41OyIvPjx0ZXh0IGZpbGw9IiMwMDAwMDAiIGZvbnQtZmFtaWx5PSJzYW5zLXNlcmlmIiBmb250LXNpemU9IjExIiBsZW5ndGhBZGp1c3Q9InNwYWNpbmciIHRleHRMZW5ndGg9IjUwIiB4PSIyMDQiIHk9IjIwNi4xOTkyIj4mIzI2MTU5OyYjMjE1NDI7JiMyNTQ4MDsmIzI2NDM1Oz88L3RleHQ+PHRleHQgZmlsbD0iIzAwMDAwMCIgZm9udC1mYW1pbHk9InNhbnMtc2VyaWYiIGZvbnQtc2l6ZT0iMTEiIGxlbmd0aEFkanVzdD0ic3BhY2luZyIgdGV4dExlbmd0aD0iMTEiIHg9IjE4MSIgeT0iMjAwLjMxMjUiPiYjMjYxNTk7PC90ZXh0Pjx0ZXh0IGZpbGw9IiMwMDAwMDAiIGZvbnQtZmFtaWx5PSJzYW5zLXNlcmlmIiBmb250LXNpemU9IjExIiBsZW5ndGhBZGp1c3Q9InNwYWNpbmciIHRleHRMZW5ndGg9IjExIiB4PSIyNjYiIHk9IjIwMC4zMTI1Ij4mIzIxNTQyOzwvdGV4dD48cmVjdCBmaWxsPSIjRjFGMUYxIiBoZWlnaHQ9IjMyLjg0MzgiIHJ4PSIxMi41IiByeT0iMTIuNSIgc3R5bGU9InN0cm9rZTojMTgxODE4O3N0cm9rZS13aWR0aDowLjU7IiB3aWR0aD0iOTIiIHg9IjEzMyIgeT0iMjIzLjY4NzUiLz48dGV4dCBmaWxsPSIjMDAwMDAwIiBmb250LWZhbWlseT0ic2Fucy1zZXJpZiIgZm9udC1zaXplPSIxMiIgbGVuZ3RoQWRqdXN0PSJzcGFjaW5nIiB0ZXh0TGVuZ3RoPSI3MiIgeD0iMTQzIiB5PSIyNDUuMDMxMyI+JiMyODg1NzsmIzIwOTg3OyYjMjg4NTc7JiMzNjE5MDsmIzI1MzUzOyYjMzgwNjI7PC90ZXh0PjxyZWN0IGZpbGw9IiNGMUYxRjEiIGhlaWdodD0iMzIuODQzOCIgcng9IjEyLjUiIHJ5PSIxMi41IiBzdHlsZT0ic3Ryb2tlOiMxODE4MTg7c3Ryb2tlLXdpZHRoOjAuNTsiIHdpZHRoPSI2OCIgeD0iMTQ1IiB5PSIyOTEuNTMxMyIvPjx0ZXh0IGZpbGw9IiMwMDAwMDAiIGZvbnQtZmFtaWx5PSJzYW5zLXNlcmlmIiBmb250LXNpemU9IjEyIiBsZW5ndGhBZGp1c3Q9InNwYWNpbmciIHRleHRMZW5ndGg9IjQ4IiB4PSIxNTUiIHk9IjMxMi44NzUiPiYjMjg4NTc7JiMzNjE5MDsmIzI1MTA0OyYjMjExNTE7PC90ZXh0PjxyZWN0IGZpbGw9IiNGMUYxRjEiIGhlaWdodD0iMzIuODQzOCIgcng9IjEyLjUiIHJ5PSIxMi41IiBzdHlsZT0ic3Ryb2tlOiMxODE4MTg7c3Ryb2tlLXdpZHRoOjAuNTsiIHdpZHRoPSI5MiIgeD0iMTMzIiB5PSIzNTkuMzc1Ii8+PHRleHQgZmlsbD0iIzAwMDAwMCIgZm9udC1mYW1pbHk9InNhbnMtc2VyaWYiIGZvbnQtc2l6ZT0iMTIiIGxlbmd0aEFkanVzdD0ic3BhY2luZyIgdGV4dExlbmd0aD0iNzIiIHg9IjE0MyIgeT0iMzgwLjcxODgiPiYjMjg4NTc7JiMyMDk4NzsmIzI1OTEwOyYjMzQyNTU7JiMyNTM1MzsmIzM4MDYyOzwvdGV4dD48cmVjdCBmaWxsPSIjRjFGMUYxIiBoZWlnaHQ9IjMyLjg0MzgiIHJ4PSIxMi41IiByeT0iMTIuNSIgc3R5bGU9InN0cm9rZTojMTgxODE4O3N0cm9rZS13aWR0aDowLjU7IiB3aWR0aD0iNjgiIHg9IjE0NSIgeT0iNDEyLjIxODgiLz48dGV4dCBmaWxsPSIjMDAwMDAwIiBmb250LWZhbWlseT0ic2Fucy1zZXJpZiIgZm9udC1zaXplPSIxMiIgbGVuZ3RoQWRqdXN0PSJzcGFjaW5nIiB0ZXh0TGVuZ3RoPSI0OCIgeD0iMTU1IiB5PSI0MzMuNTYyNSI+JiMyNTkxMDsmIzM0MjU1OyYjMjUxMDQ7JiMyMTE1MTs8L3RleHQ+PHJlY3QgZmlsbD0iI0YxRjFGMSIgaGVpZ2h0PSIzMi44NDM4IiByeD0iMTIuNSIgcnk9IjEyLjUiIHN0eWxlPSJzdHJva2U6IzE4MTgxODtzdHJva2Utd2lkdGg6MC41OyIgd2lkdGg9IjY4IiB4PSIyNDUiIHk9IjIyMy42ODc1Ii8+PHRleHQgZmlsbD0iIzAwMDAwMCIgZm9udC1mYW1pbHk9InNhbnMtc2VyaWYiIGZvbnQtc2l6ZT0iMTIiIGxlbmd0aEFkanVzdD0ic3BhY2luZyIgdGV4dExlbmd0aD0iNDgiIHg9IjI1NSIgeT0iMjQ1LjAzMTMiPiYjMjU4MDU7JiMyMDMxNjsmIzIxNDYyOyYjMjgwNDA7PC90ZXh0Pjxwb2x5Z29uIGZpbGw9IiNGMUYxRjEiIHBvaW50cz0iMjI5LDQ1MS4wNjI1LDI0MSw0NjMuMDYyNSwyMjksNDc1LjA2MjUsMjE3LDQ2My4wNjI1LDIyOSw0NTEuMDYyNSIgc3R5bGU9InN0cm9rZTojMTgxODE4O3N0cm9rZS13aWR0aDowLjU7Ii8+PHBvbHlnb24gZmlsbD0iI0YxRjFGMSIgcG9pbnRzPSIxNDMsNDgxLjA2MjUsMTU1LDQ5My4wNjI1LDE0Myw1MDUuMDYyNSwxMzEsNDkzLjA2MjUsMTQzLDQ4MS4wNjI1IiBzdHlsZT0ic3Ryb2tlOiMxODE4MTg7c3Ryb2tlLXdpZHRoOjAuNTsiLz48ZWxsaXBzZSBjeD0iMTQzIiBjeT0iNTM2LjA2MjUiIGZpbGw9Im5vbmUiIHJ4PSIxMSIgcnk9IjExIiBzdHlsZT0ic3Ryb2tlOiMyMjIyMjI7c3Ryb2tlLXdpZHRoOjEuMDsiLz48ZWxsaXBzZSBjeD0iMTQzIiBjeT0iNTM2LjA2MjUiIGZpbGw9IiMyMjIyMjIiIHJ4PSI2IiByeT0iNiIgc3R5bGU9InN0cm9rZTojMjIyMjIyO3N0cm9rZS13aWR0aDoxLjA7Ii8+PGxpbmUgc3R5bGU9InN0cm9rZTojMTgxODE4O3N0cm9rZS13aWR0aDoxLjA7IiB4MT0iMTQzIiB4Mj0iMTQzIiB5MT0iMzAiIHkyPSI1MCIvPjxwb2x5Z29uIGZpbGw9IiMxODE4MTgiIHBvaW50cz0iMTM5LDQwLDE0Myw1MCwxNDcsNDAsMTQzLDQ0IiBzdHlsZT0ic3Ryb2tlOiMxODE4MTg7c3Ryb2tlLXdpZHRoOjEuMDsiLz48bGluZSBzdHlsZT0ic3Ryb2tlOiMxODE4MTg7c3Ryb2tlLXdpZHRoOjEuMDsiIHgxPSI1NyIgeDI9IjU3IiB5MT0iMTY5LjY4NzUiIHkyPSIxODkuNjg3NSIvPjxwb2x5Z29uIGZpbGw9IiMxODE4MTgiIHBvaW50cz0iNTMsMTc5LjY4NzUsNTcsMTg5LjY4NzUsNjEsMTc5LjY4NzUsNTcsMTgzLjY4NzUiIHN0eWxlPSJzdHJva2U6IzE4MTgxODtzdHJva2Utd2lkdGg6MS4wOyIvPjxsaW5lIHN0eWxlPSJzdHJva2U6IzE4MTgxODtzdHJva2Utd2lkdGg6MS4wOyIgeDE9IjU3IiB4Mj0iNTciIHkxPSIyMjIuNTMxMyIgeTI9IjI1Ny41MzEzIi8+PHBvbHlnb24gZmlsbD0iIzE4MTgxOCIgcG9pbnRzPSI1MywyNDcuNTMxMyw1NywyNTcuNTMxMyw2MSwyNDcuNTMxMyw1NywyNTEuNTMxMyIgc3R5bGU9InN0cm9rZTojMTgxODE4O3N0cm9rZS13aWR0aDoxLjA7Ii8+PGxpbmUgc3R5bGU9InN0cm9rZTojMTgxODE4O3N0cm9rZS13aWR0aDoxLjA7IiB4MT0iNTciIHgyPSI1NyIgeTE9IjI5MC4zNzUiIHkyPSIzMjUuMzc1Ii8+PHBvbHlnb24gZmlsbD0iIzE4MTgxOCIgcG9pbnRzPSI1MywzMTUuMzc1LDU3LDMyNS4zNzUsNjEsMzE1LjM3NSw1NywzMTkuMzc1IiBzdHlsZT0ic3Ryb2tlOiMxODE4MTg7c3Ryb2tlLXdpZHRoOjEuMDsiLz48bGluZSBzdHlsZT0ic3Ryb2tlOiMxODE4MTg7c3Ryb2tlLXdpZHRoOjEuMDsiIHgxPSIxNzkiIHgyPSIxNzkiIHkxPSIyNTYuNTMxMyIgeTI9IjI5MS41MzEzIi8+PHBvbHlnb24gZmlsbD0iIzE4MTgxOCIgcG9pbnRzPSIxNzUsMjgxLjUzMTMsMTc5LDI5MS41MzEzLDE4MywyODEuNTMxMywxNzksMjg1LjUzMTMiIHN0eWxlPSJzdHJva2U6IzE4MTgxODtzdHJva2Utd2lkdGg6MS4wOyIvPjxsaW5lIHN0eWxlPSJzdHJva2U6IzE4MTgxODtzdHJva2Utd2lkdGg6MS4wOyIgeDE9IjE3OSIgeDI9IjE3OSIgeTE9IjMyNC4zNzUiIHkyPSIzNTkuMzc1Ii8+PHBvbHlnb24gZmlsbD0iIzE4MTgxOCIgcG9pbnRzPSIxNzUsMzQ5LjM3NSwxNzksMzU5LjM3NSwxODMsMzQ5LjM3NSwxNzksMzUzLjM3NSIgc3R5bGU9InN0cm9rZTojMTgxODE4O3N0cm9rZS13aWR0aDoxLjA7Ii8+PGxpbmUgc3R5bGU9InN0cm9rZTojMTgxODE4O3N0cm9rZS13aWR0aDoxLjA7IiB4MT0iMTc5IiB4Mj0iMTc5IiB5MT0iMzkyLjIxODgiIHkyPSI0MTIuMjE4OCIvPjxwb2x5Z29uIGZpbGw9IiMxODE4MTgiIHBvaW50cz0iMTc1LDQwMi4yMTg4LDE3OSw0MTIuMjE4OCwxODMsNDAyLjIxODgsMTc5LDQwNi4yMTg4IiBzdHlsZT0ic3Ryb2tlOiMxODE4MTg7c3Ryb2tlLXdpZHRoOjEuMDsiLz48bGluZSBzdHlsZT0ic3Ryb2tlOiMxODE4MTg7c3Ryb2tlLXdpZHRoOjEuMDsiIHgxPSIxOTIiIHgyPSIxNzkiIHkxPSIyMDEuNjg3NSIgeTI9IjIwMS42ODc1Ii8+PGxpbmUgc3R5bGU9InN0cm9rZTojMTgxODE4O3N0cm9rZS13aWR0aDoxLjA7IiB4MT0iMTc5IiB4Mj0iMTc5IiB5MT0iMjAxLjY4NzUiIHkyPSIyMjMuNjg3NSIvPjxwb2x5Z29uIGZpbGw9IiMxODE4MTgiIHBvaW50cz0iMTc1LDIxMy42ODc1LDE3OSwyMjMuNjg3NSwxODMsMjEzLjY4NzUsMTc5LDIxNy42ODc1IiBzdHlsZT0ic3Ryb2tlOiMxODE4MTg7c3Ryb2tlLXdpZHRoOjEuMDsiLz48bGluZSBzdHlsZT0ic3Ryb2tlOiMxODE4MTg7c3Ryb2tlLXdpZHRoOjEuMDsiIHgxPSIyNjYiIHgyPSIyNzkiIHkxPSIyMDEuNjg3NSIgeTI9IjIwMS42ODc1Ii8+PGxpbmUgc3R5bGU9InN0cm9rZTojMTgxODE4O3N0cm9rZS13aWR0aDoxLjA7IiB4MT0iMjc5IiB4Mj0iMjc5IiB5MT0iMjAxLjY4NzUiIHkyPSIyMjMuNjg3NSIvPjxwb2x5Z29uIGZpbGw9IiMxODE4MTgiIHBvaW50cz0iMjc1LDIxMy42ODc1LDI3OSwyMjMuNjg3NSwyODMsMjEzLjY4NzUsMjc5LDIxNy42ODc1IiBzdHlsZT0ic3Ryb2tlOiMxODE4MTg7c3Ryb2tlLXdpZHRoOjEuMDsiLz48bGluZSBzdHlsZT0ic3Ryb2tlOiMxODE4MTg7c3Ryb2tlLXdpZHRoOjEuMDsiIHgxPSIxNzkiIHgyPSIxNzkiIHkxPSI0NDUuMDYyNSIgeTI9IjQ2My4wNjI1Ii8+PGxpbmUgc3R5bGU9InN0cm9rZTojMTgxODE4O3N0cm9rZS13aWR0aDoxLjA7IiB4MT0iMTc5IiB4Mj0iMjE3IiB5MT0iNDYzLjA2MjUiIHkyPSI0NjMuMDYyNSIvPjxwb2x5Z29uIGZpbGw9IiMxODE4MTgiIHBvaW50cz0iMjA3LDQ1OS4wNjI1LDIxNyw0NjMuMDYyNSwyMDcsNDY3LjA2MjUsMjExLDQ2My4wNjI1IiBzdHlsZT0ic3Ryb2tlOiMxODE4MTg7c3Ryb2tlLXdpZHRoOjEuMDsiLz48bGluZSBzdHlsZT0ic3Ryb2tlOiMxODE4MTg7c3Ryb2tlLXdpZHRoOjEuMDsiIHgxPSIyNzkiIHgyPSIyNzkiIHkxPSIyNTYuNTMxMyIgeTI9IjQ2My4wNjI1Ii8+PGxpbmUgc3R5bGU9InN0cm9rZTojMTgxODE4O3N0cm9rZS13aWR0aDoxLjA7IiB4MT0iMjc5IiB4Mj0iMjQxIiB5MT0iNDYzLjA2MjUiIHkyPSI0NjMuMDYyNSIvPjxwb2x5Z29uIGZpbGw9IiMxODE4MTgiIHBvaW50cz0iMjUxLDQ1OS4wNjI1LDI0MSw0NjMuMDYyNSwyNTEsNDY3LjA2MjUsMjQ3LDQ2My4wNjI1IiBzdHlsZT0ic3Ryb2tlOiMxODE4MTg7c3Ryb2tlLXdpZHRoOjEuMDsiLz48bGluZSBzdHlsZT0ic3Ryb2tlOiMxODE4MTg7c3Ryb2tlLXdpZHRoOjEuMDsiIHgxPSIyMjkiIHgyPSIyMjkiIHkxPSIxNjkuNjg3NSIgeTI9IjE4OS42ODc1Ii8+PHBvbHlnb24gZmlsbD0iIzE4MTgxOCIgcG9pbnRzPSIyMjUsMTc5LjY4NzUsMjI5LDE4OS42ODc1LDIzMywxNzkuNjg3NSwyMjksMTgzLjY4NzUiIHN0eWxlPSJzdHJva2U6IzE4MTgxODtzdHJva2Utd2lkdGg6MS4wOyIvPjxsaW5lIHN0eWxlPSJzdHJva2U6IzE4MTgxODtzdHJva2Utd2lkdGg6MS4wOyIgeDE9Ijg5LjUiIHgyPSI1NyIgeTE9IjExNC44NDM4IiB5Mj0iMTE0Ljg0MzgiLz48bGluZSBzdHlsZT0ic3Ryb2tlOiMxODE4MTg7c3Ryb2tlLXdpZHRoOjEuMDsiIHgxPSI1NyIgeDI9IjU3IiB5MT0iMTE0Ljg0MzgiIHkyPSIxMzYuODQzOCIvPjxwb2x5Z29uIGZpbGw9IiMxODE4MTgiIHBvaW50cz0iNTMsMTI2Ljg0MzgsNTcsMTM2Ljg0MzgsNjEsMTI2Ljg0MzgsNTcsMTMwLjg0MzgiIHN0eWxlPSJzdHJva2U6IzE4MTgxODtzdHJva2Utd2lkdGg6MS4wOyIvPjxsaW5lIHN0eWxlPSJzdHJva2U6IzE4MTgxODtzdHJva2Utd2lkdGg6MS4wOyIgeDE9IjE5Ni41IiB4Mj0iMjI5IiB5MT0iMTE0Ljg0MzgiIHkyPSIxMTQuODQzOCIvPjxsaW5lIHN0eWxlPSJzdHJva2U6IzE4MTgxODtzdHJva2Utd2lkdGg6MS4wOyIgeDE9IjIyOSIgeDI9IjIyOSIgeTE9IjExNC44NDM4IiB5Mj0iMTM2Ljg0MzgiLz48cG9seWdvbiBmaWxsPSIjMTgxODE4IiBwb2ludHM9IjIyNSwxMjYuODQzOCwyMjksMTM2Ljg0MzgsMjMzLDEyNi44NDM4LDIyOSwxMzAuODQzOCIgc3R5bGU9InN0cm9rZTojMTgxODE4O3N0cm9rZS13aWR0aDoxLjA7Ii8+PGxpbmUgc3R5bGU9InN0cm9rZTojMTgxODE4O3N0cm9rZS13aWR0aDoxLjA7IiB4MT0iNTciIHgyPSI1NyIgeTE9IjM1OC4yMTg4IiB5Mj0iNDkzLjA2MjUiLz48bGluZSBzdHlsZT0ic3Ryb2tlOiMxODE4MTg7c3Ryb2tlLXdpZHRoOjEuMDsiIHgxPSI1NyIgeDI9IjEzMSIgeTE9IjQ5My4wNjI1IiB5Mj0iNDkzLjA2MjUiLz48cG9seWdvbiBmaWxsPSIjMTgxODE4IiBwb2ludHM9IjEyMSw0ODkuMDYyNSwxMzEsNDkzLjA2MjUsMTIxLDQ5Ny4wNjI1LDEyNSw0OTMuMDYyNSIgc3R5bGU9InN0cm9rZTojMTgxODE4O3N0cm9rZS13aWR0aDoxLjA7Ii8+PGxpbmUgc3R5bGU9InN0cm9rZTojMTgxODE4O3N0cm9rZS13aWR0aDoxLjA7IiB4MT0iMjI5IiB4Mj0iMjI5IiB5MT0iNDc1LjA2MjUiIHkyPSI0OTMuMDYyNSIvPjxsaW5lIHN0eWxlPSJzdHJva2U6IzE4MTgxODtzdHJva2Utd2lkdGg6MS4wOyIgeDE9IjIyOSIgeDI9IjE1NSIgeTE9IjQ5My4wNjI1IiB5Mj0iNDkzLjA2MjUiLz48cG9seWdvbiBmaWxsPSIjMTgxODE4IiBwb2ludHM9IjE2NSw0ODkuMDYyNSwxNTUsNDkzLjA2MjUsMTY1LDQ5Ny4wNjI1LDE2MSw0OTMuMDYyNSIgc3R5bGU9InN0cm9rZTojMTgxODE4O3N0cm9rZS13aWR0aDoxLjA7Ii8+PGxpbmUgc3R5bGU9InN0cm9rZTojMTgxODE4O3N0cm9rZS13aWR0aDoxLjA7IiB4MT0iMTQzIiB4Mj0iMTQzIiB5MT0iODIuODQzOCIgeTI9IjEwMi44NDM4Ii8+PHBvbHlnb24gZmlsbD0iIzE4MTgxOCIgcG9pbnRzPSIxMzksOTIuODQzOCwxNDMsMTAyLjg0MzgsMTQ3LDkyLjg0MzgsMTQzLDk2Ljg0MzgiIHN0eWxlPSJzdHJva2U6IzE4MTgxODtzdHJva2Utd2lkdGg6MS4wOyIvPjxsaW5lIHN0eWxlPSJzdHJva2U6IzE4MTgxODtzdHJva2Utd2lkdGg6MS4wOyIgeDE9IjE0MyIgeDI9IjE0MyIgeTE9IjUwNS4wNjI1IiB5Mj0iNTI1LjA2MjUiLz48cG9seWdvbiBmaWxsPSIjMTgxODE4IiBwb2ludHM9IjEzOSw1MTUuMDYyNSwxNDMsNTI1LjA2MjUsMTQ3LDUxNS4wNjI1LDE0Myw1MTkuMDYyNSIgc3R5bGU9InN0cm9rZTojMTgxODE4O3N0cm9rZS13aWR0aDoxLjA7Ii8+PCEtLVNSQz1bQW92OUIyaFh1aDl3c1Qzdmg3bGJxeU1EcHRWamlFUllvYW5KcTdXc09fdEoyU2tVUmpfcWhBX1pzVHBjdnBEdEZ6cXhyTHZKZUlHWkRHeWlneWNiMDBITXB2anNGY3RWM0lIVlI5dHRoQVZwdlFIcnJkMDlhNTM3WEFUVHl3c0hySndSaWt0NXo3dUtqTDBYZ0RoS2RFOUsxR3NXeEwwaGRrdTFRamk1U1NVcFhNcUdGR1d0R1lHbWRPUk5VSllTWURVUE05bUE0YTlwQmFKTHZEdWRVLVN5eFBfc1I1aTdMNUxVSWNPUTV1SmFBWXg5Qm0wMF0tLT48L2c+PC9zdmc+;" parent="1" vertex="1">
            <mxGeometry x="210" y="1110" width="324" height="558" as="geometry" />
          </mxCell>
        </UserObject>
        <UserObject label="" plantUmlData="{&#xa;  &quot;data&quot;: &quot;@startuml\nstart\n\n:选择壁纸;\n\nif (是否已授权登录?) then (是)\n    fork\n        :点击点赞按钮;\n        :点赞成功;\n    fork again\n        :点击收藏按钮;\n        :收藏成功;\n    end fork\nelse (否)\n    :弹出授权框;\n    if (是否授权?) then (是)\n        fork\n            :点击点赞按钮;\n            :点赞成功;\n        fork again\n            :点击收藏按钮;\n            :收藏成功;\n        end fork\n    else (否)\n        :操作取消;\n    endif\nendif\n\nstop\n@enduml&quot;,&#xa;  &quot;format&quot;: &quot;svg&quot;&#xa;}" id="3U-3EoWDj0iMzqLdLdJn-6">
          <mxCell style="shape=image;noLabel=1;verticalAlign=top;aspect=fixed;imageAspect=0;image=data:image/svg+xml,PD94bWwgdmVyc2lvbj0iMS4wIiBlbmNvZGluZz0idXMtYXNjaWkiIHN0YW5kYWxvbmU9Im5vIj8+PHN2ZyB4bWxucz0iaHR0cDovL3d3dy53My5vcmcvMjAwMC9zdmciIHhtbG5zOnhsaW5rPSJodHRwOi8vd3d3LnczLm9yZy8xOTk5L3hsaW5rIiBjb250ZW50U3R5bGVUeXBlPSJ0ZXh0L2NzcyIgaGVpZ2h0PSI0ODlweCIgcHJlc2VydmVBc3BlY3RSYXRpbz0ibm9uZSIgc3R5bGU9IndpZHRoOjYxOHB4O2hlaWdodDo0ODlweDtiYWNrZ3JvdW5kOiNGRkZGRkY7IiB2ZXJzaW9uPSIxLjEiIHZpZXdCb3g9IjAgMCA2MTggNDg5IiB3aWR0aD0iNjE4cHgiIHpvb21BbmRQYW49Im1hZ25pZnkiPjxkZWZzLz48Zz48ZWxsaXBzZSBjeD0iMzA3LjUiIGN5PSIyMCIgZmlsbD0iIzIyMjIyMiIgcng9IjEwIiByeT0iMTAiIHN0eWxlPSJzdHJva2U6IzIyMjIyMjtzdHJva2Utd2lkdGg6MS4wOyIvPjxyZWN0IGZpbGw9IiNGMUYxRjEiIGhlaWdodD0iMzIuODQzOCIgcng9IjEyLjUiIHJ5PSIxMi41IiBzdHlsZT0ic3Ryb2tlOiMxODE4MTg7c3Ryb2tlLXdpZHRoOjAuNTsiIHdpZHRoPSI2OCIgeD0iMjczLjUiIHk9IjUwIi8+PHRleHQgZmlsbD0iIzAwMDAwMCIgZm9udC1mYW1pbHk9InNhbnMtc2VyaWYiIGZvbnQtc2l6ZT0iMTIiIGxlbmd0aEFkanVzdD0ic3BhY2luZyIgdGV4dExlbmd0aD0iNDgiIHg9IjI4My41IiB5PSI3MS4zNDM4Ij4mIzM2ODczOyYjMjUzMjE7JiMyMjcyMTsmIzMyNDQwOzwvdGV4dD48cG9seWdvbiBmaWxsPSIjRjFGMUYxIiBwb2ludHM9IjI2NiwxMDIuODQzOCwzNDksMTAyLjg0MzgsMzYxLDExNC44NDM4LDM0OSwxMjYuODQzOCwyNjYsMTI2Ljg0MzgsMjU0LDExNC44NDM4LDI2NiwxMDIuODQzOCIgc3R5bGU9InN0cm9rZTojMTgxODE4O3N0cm9rZS13aWR0aDowLjU7Ii8+PHRleHQgZmlsbD0iIzAwMDAwMCIgZm9udC1mYW1pbHk9InNhbnMtc2VyaWYiIGZvbnQtc2l6ZT0iMTEiIGxlbmd0aEFkanVzdD0ic3BhY2luZyIgdGV4dExlbmd0aD0iODMiIHg9IjI2NiIgeT0iMTE5LjM1NTUiPiYjMjYxNTk7JiMyMTU0MjsmIzI0MDUwOyYjMjU0ODA7JiMyNjQzNTsmIzMwMzMxOyYjMjQ0MDU7PzwvdGV4dD48dGV4dCBmaWxsPSIjMDAwMDAwIiBmb250LWZhbWlseT0ic2Fucy1zZXJpZiIgZm9udC1zaXplPSIxMSIgbGVuZ3RoQWRqdXN0PSJzcGFjaW5nIiB0ZXh0TGVuZ3RoPSIxMSIgeD0iMjQzIiB5PSIxMTMuNDY4OCI+JiMyNjE1OTs8L3RleHQ+PHRleHQgZmlsbD0iIzAwMDAwMCIgZm9udC1mYW1pbHk9InNhbnMtc2VyaWYiIGZvbnQtc2l6ZT0iMTEiIGxlbmd0aEFkanVzdD0ic3BhY2luZyIgdGV4dExlbmd0aD0iMTEiIHg9IjM2MSIgeT0iMTEzLjQ2ODgiPiYjMjE1NDI7PC90ZXh0PjxyZWN0IGZpbGw9IiM1NTU1NTUiIGhlaWdodD0iNiIgcng9IjIuNSIgcnk9IjIuNSIgc3R5bGU9InN0cm9rZTojNTU1NTU1O3N0cm9rZS13aWR0aDoxLjA7IiB3aWR0aD0iMjM4IiB4PSIxMSIgeT0iMTM2Ljg0MzgiLz48cmVjdCBmaWxsPSIjRjFGMUYxIiBoZWlnaHQ9IjMyLjg0MzgiIHJ4PSIxMi41IiByeT0iMTIuNSIgc3R5bGU9InN0cm9rZTojMTgxODE4O3N0cm9rZS13aWR0aDowLjU7IiB3aWR0aD0iOTIiIHg9IjIzIiB5PSIxNjIuODQzOCIvPjx0ZXh0IGZpbGw9IiMwMDAwMDAiIGZvbnQtZmFtaWx5PSJzYW5zLXNlcmlmIiBmb250LXNpemU9IjEyIiBsZW5ndGhBZGp1c3Q9InNwYWNpbmciIHRleHRMZW5ndGg9IjcyIiB4PSIzMyIgeT0iMTg0LjE4NzUiPiYjMjg4NTc7JiMyMDk4NzsmIzI4ODU3OyYjMzYxOTA7JiMyNTM1MzsmIzM4MDYyOzwvdGV4dD48cmVjdCBmaWxsPSIjRjFGMUYxIiBoZWlnaHQ9IjMyLjg0MzgiIHJ4PSIxMi41IiByeT0iMTIuNSIgc3R5bGU9InN0cm9rZTojMTgxODE4O3N0cm9rZS13aWR0aDowLjU7IiB3aWR0aD0iNjgiIHg9IjM1IiB5PSIyMzAuNjg3NSIvPjx0ZXh0IGZpbGw9IiMwMDAwMDAiIGZvbnQtZmFtaWx5PSJzYW5zLXNlcmlmIiBmb250LXNpemU9IjEyIiBsZW5ndGhBZGp1c3Q9InNwYWNpbmciIHRleHRMZW5ndGg9IjQ4IiB4PSI0NSIgeT0iMjUyLjAzMTMiPiYjMjg4NTc7JiMzNjE5MDsmIzI1MTA0OyYjMjExNTE7PC90ZXh0PjxyZWN0IGZpbGw9IiNGMUYxRjEiIGhlaWdodD0iMzIuODQzOCIgcng9IjEyLjUiIHJ5PSIxMi41IiBzdHlsZT0ic3Ryb2tlOiMxODE4MTg7c3Ryb2tlLXdpZHRoOjAuNTsiIHdpZHRoPSI5MiIgeD0iMTQzIiB5PSIxNjIuODQzOCIvPjx0ZXh0IGZpbGw9IiMwMDAwMDAiIGZvbnQtZmFtaWx5PSJzYW5zLXNlcmlmIiBmb250LXNpemU9IjEyIiBsZW5ndGhBZGp1c3Q9InNwYWNpbmciIHRleHRMZW5ndGg9IjcyIiB4PSIxNTMiIHk9IjE4NC4xODc1Ij4mIzI4ODU3OyYjMjA5ODc7JiMyNTkxMDsmIzM0MjU1OyYjMjUzNTM7JiMzODA2Mjs8L3RleHQ+PHJlY3QgZmlsbD0iI0YxRjFGMSIgaGVpZ2h0PSIzMi44NDM4IiByeD0iMTIuNSIgcnk9IjEyLjUiIHN0eWxlPSJzdHJva2U6IzE4MTgxODtzdHJva2Utd2lkdGg6MC41OyIgd2lkdGg9IjY4IiB4PSIxNTUiIHk9IjIzMC42ODc1Ii8+PHRleHQgZmlsbD0iIzAwMDAwMCIgZm9udC1mYW1pbHk9InNhbnMtc2VyaWYiIGZvbnQtc2l6ZT0iMTIiIGxlbmd0aEFkanVzdD0ic3BhY2luZyIgdGV4dExlbmd0aD0iNDgiIHg9IjE2NSIgeT0iMjUyLjAzMTMiPiYjMjU5MTA7JiMzNDI1NTsmIzI1MTA0OyYjMjExNTE7PC90ZXh0PjxyZWN0IGZpbGw9IiM1NTU1NTUiIGhlaWdodD0iNiIgcng9IjIuNSIgcnk9IjIuNSIgc3R5bGU9InN0cm9rZTojNTU1NTU1O3N0cm9rZS13aWR0aDoxLjA7IiB3aWR0aD0iMjM4IiB4PSIxMSIgeT0iMjgzLjUzMTMiLz48cmVjdCBmaWxsPSIjRjFGMUYxIiBoZWlnaHQ9IjMyLjg0MzgiIHJ4PSIxMi41IiByeT0iMTIuNSIgc3R5bGU9InN0cm9rZTojMTgxODE4O3N0cm9rZS13aWR0aDowLjU7IiB3aWR0aD0iODAiIHg9IjQ0NiIgeT0iMTM2Ljg0MzgiLz48dGV4dCBmaWxsPSIjMDAwMDAwIiBmb250LWZhbWlseT0ic2Fucy1zZXJpZiIgZm9udC1zaXplPSIxMiIgbGVuZ3RoQWRqdXN0PSJzcGFjaW5nIiB0ZXh0TGVuZ3RoPSI2MCIgeD0iNDU2IiB5PSIxNTguMTg3NSI+JiMyNDM3NzsmIzIwOTg2OyYjMjU0ODA7JiMyNjQzNTsmIzI2Njk0OzwvdGV4dD48cG9seWdvbiBmaWxsPSIjRjFGMUYxIiBwb2ludHM9IjQ2MSwyMDQuNjg3NSw1MTEsMjA0LjY4NzUsNTIzLDIxNi42ODc1LDUxMSwyMjguNjg3NSw0NjEsMjI4LjY4NzUsNDQ5LDIxNi42ODc1LDQ2MSwyMDQuNjg3NSIgc3R5bGU9InN0cm9rZTojMTgxODE4O3N0cm9rZS13aWR0aDowLjU7Ii8+PHRleHQgZmlsbD0iIzAwMDAwMCIgZm9udC1mYW1pbHk9InNhbnMtc2VyaWYiIGZvbnQtc2l6ZT0iMTEiIGxlbmd0aEFkanVzdD0ic3BhY2luZyIgdGV4dExlbmd0aD0iNTAiIHg9IjQ2MSIgeT0iMjIxLjE5OTIiPiYjMjYxNTk7JiMyMTU0MjsmIzI1NDgwOyYjMjY0MzU7PzwvdGV4dD48dGV4dCBmaWxsPSIjMDAwMDAwIiBmb250LWZhbWlseT0ic2Fucy1zZXJpZiIgZm9udC1zaXplPSIxMSIgbGVuZ3RoQWRqdXN0PSJzcGFjaW5nIiB0ZXh0TGVuZ3RoPSIxMSIgeD0iNDM4IiB5PSIyMTUuMzEyNSI+JiMyNjE1OTs8L3RleHQ+PHRleHQgZmlsbD0iIzAwMDAwMCIgZm9udC1mYW1pbHk9InNhbnMtc2VyaWYiIGZvbnQtc2l6ZT0iMTEiIGxlbmd0aEFkanVzdD0ic3BhY2luZyIgdGV4dExlbmd0aD0iMTEiIHg9IjUyMyIgeT0iMjE1LjMxMjUiPiYjMjE1NDI7PC90ZXh0PjxyZWN0IGZpbGw9IiM1NTU1NTUiIGhlaWdodD0iNiIgcng9IjIuNSIgcnk9IjIuNSIgc3R5bGU9InN0cm9rZTojNTU1NTU1O3N0cm9rZS13aWR0aDoxLjA7IiB3aWR0aD0iMjQwIiB4PSIyNzkiIHk9IjIzOC42ODc1Ii8+PHJlY3QgZmlsbD0iI0YxRjFGMSIgaGVpZ2h0PSIzMi44NDM4IiByeD0iMTIuNSIgcnk9IjEyLjUiIHN0eWxlPSJzdHJva2U6IzE4MTgxODtzdHJva2Utd2lkdGg6MC41OyIgd2lkdGg9IjkyIiB4PSIyOTMiIHk9IjI2NC42ODc1Ii8+PHRleHQgZmlsbD0iIzAwMDAwMCIgZm9udC1mYW1pbHk9InNhbnMtc2VyaWYiIGZvbnQtc2l6ZT0iMTIiIGxlbmd0aEFkanVzdD0ic3BhY2luZyIgdGV4dExlbmd0aD0iNzIiIHg9IjMwMyIgeT0iMjg2LjAzMTMiPiYjMjg4NTc7JiMyMDk4NzsmIzI4ODU3OyYjMzYxOTA7JiMyNTM1MzsmIzM4MDYyOzwvdGV4dD48cmVjdCBmaWxsPSIjRjFGMUYxIiBoZWlnaHQ9IjMyLjg0MzgiIHJ4PSIxMi41IiByeT0iMTIuNSIgc3R5bGU9InN0cm9rZTojMTgxODE4O3N0cm9rZS13aWR0aDowLjU7IiB3aWR0aD0iNjgiIHg9IjMwNSIgeT0iMzE3LjUzMTMiLz48dGV4dCBmaWxsPSIjMDAwMDAwIiBmb250LWZhbWlseT0ic2Fucy1zZXJpZiIgZm9udC1zaXplPSIxMiIgbGVuZ3RoQWRqdXN0PSJzcGFjaW5nIiB0ZXh0TGVuZ3RoPSI0OCIgeD0iMzE1IiB5PSIzMzguODc1Ij4mIzI4ODU3OyYjMzYxOTA7JiMyNTEwNDsmIzIxMTUxOzwvdGV4dD48cmVjdCBmaWxsPSIjRjFGMUYxIiBoZWlnaHQ9IjMyLjg0MzgiIHJ4PSIxMi41IiByeT0iMTIuNSIgc3R5bGU9InN0cm9rZTojMTgxODE4O3N0cm9rZS13aWR0aDowLjU7IiB3aWR0aD0iOTIiIHg9IjQxMyIgeT0iMjY0LjY4NzUiLz48dGV4dCBmaWxsPSIjMDAwMDAwIiBmb250LWZhbWlseT0ic2Fucy1zZXJpZiIgZm9udC1zaXplPSIxMiIgbGVuZ3RoQWRqdXN0PSJzcGFjaW5nIiB0ZXh0TGVuZ3RoPSI3MiIgeD0iNDIzIiB5PSIyODYuMDMxMyI+JiMyODg1NzsmIzIwOTg3OyYjMjU5MTA7JiMzNDI1NTsmIzI1MzUzOyYjMzgwNjI7PC90ZXh0PjxyZWN0IGZpbGw9IiNGMUYxRjEiIGhlaWdodD0iMzIuODQzOCIgcng9IjEyLjUiIHJ5PSIxMi41IiBzdHlsZT0ic3Ryb2tlOiMxODE4MTg7c3Ryb2tlLXdpZHRoOjAuNTsiIHdpZHRoPSI2OCIgeD0iNDI1IiB5PSIzMTcuNTMxMyIvPjx0ZXh0IGZpbGw9IiMwMDAwMDAiIGZvbnQtZmFtaWx5PSJzYW5zLXNlcmlmIiBmb250LXNpemU9IjEyIiBsZW5ndGhBZGp1c3Q9InNwYWNpbmciIHRleHRMZW5ndGg9IjQ4IiB4PSI0MzUiIHk9IjMzOC44NzUiPiYjMjU5MTA7JiMzNDI1NTsmIzI1MTA0OyYjMjExNTE7PC90ZXh0PjxyZWN0IGZpbGw9IiM1NTU1NTUiIGhlaWdodD0iNiIgcng9IjIuNSIgcnk9IjIuNSIgc3R5bGU9InN0cm9rZTojNTU1NTU1O3N0cm9rZS13aWR0aDoxLjA7IiB3aWR0aD0iMjQwIiB4PSIyNzkiIHk9IjM3MC4zNzUiLz48cmVjdCBmaWxsPSIjRjFGMUYxIiBoZWlnaHQ9IjMyLjg0MzgiIHJ4PSIxMi41IiByeT0iMTIuNSIgc3R5bGU9InN0cm9rZTojMTgxODE4O3N0cm9rZS13aWR0aDowLjU7IiB3aWR0aD0iNjgiIHg9IjUzOSIgeT0iMjM4LjY4NzUiLz48dGV4dCBmaWxsPSIjMDAwMDAwIiBmb250LWZhbWlseT0ic2Fucy1zZXJpZiIgZm9udC1zaXplPSIxMiIgbGVuZ3RoQWRqdXN0PSJzcGFjaW5nIiB0ZXh0TGVuZ3RoPSI0OCIgeD0iNTQ5IiB5PSIyNjAuMDMxMyI+JiMyNTgwNTsmIzIwMzE2OyYjMjE0NjI7JiMyODA0MDs8L3RleHQ+PHBvbHlnb24gZmlsbD0iI0YxRjFGMSIgcG9pbnRzPSI0ODYsMzgyLjM3NSw0OTgsMzk0LjM3NSw0ODYsNDA2LjM3NSw0NzQsMzk0LjM3NSw0ODYsMzgyLjM3NSIgc3R5bGU9InN0cm9rZTojMTgxODE4O3N0cm9rZS13aWR0aDowLjU7Ii8+PHBvbHlnb24gZmlsbD0iI0YxRjFGMSIgcG9pbnRzPSIzMDcuNSw0MTIuMzc1LDMxOS41LDQyNC4zNzUsMzA3LjUsNDM2LjM3NSwyOTUuNSw0MjQuMzc1LDMwNy41LDQxMi4zNzUiIHN0eWxlPSJzdHJva2U6IzE4MTgxODtzdHJva2Utd2lkdGg6MC41OyIvPjxlbGxpcHNlIGN4PSIzMDcuNSIgY3k9IjQ2Ny4zNzUiIGZpbGw9Im5vbmUiIHJ4PSIxMSIgcnk9IjExIiBzdHlsZT0ic3Ryb2tlOiMyMjIyMjI7c3Ryb2tlLXdpZHRoOjEuMDsiLz48ZWxsaXBzZSBjeD0iMzA3LjUiIGN5PSI0NjcuMzc1IiBmaWxsPSIjMjIyMjIyIiByeD0iNiIgcnk9IjYiIHN0eWxlPSJzdHJva2U6IzIyMjIyMjtzdHJva2Utd2lkdGg6MS4wOyIvPjxsaW5lIHN0eWxlPSJzdHJva2U6IzE4MTgxODtzdHJva2Utd2lkdGg6MS4wOyIgeDE9IjMwNy41IiB4Mj0iMzA3LjUiIHkxPSIzMCIgeTI9IjUwIi8+PHBvbHlnb24gZmlsbD0iIzE4MTgxOCIgcG9pbnRzPSIzMDMuNSw0MCwzMDcuNSw1MCwzMTEuNSw0MCwzMDcuNSw0NCIgc3R5bGU9InN0cm9rZTojMTgxODE4O3N0cm9rZS13aWR0aDoxLjA7Ii8+PGxpbmUgc3R5bGU9InN0cm9rZTojMTgxODE4O3N0cm9rZS13aWR0aDoxLjA7IiB4MT0iNjkiIHgyPSI2OSIgeTE9IjE5NS42ODc1IiB5Mj0iMjMwLjY4NzUiLz48cG9seWdvbiBmaWxsPSIjMTgxODE4IiBwb2ludHM9IjY1LDIyMC42ODc1LDY5LDIzMC42ODc1LDczLDIyMC42ODc1LDY5LDIyNC42ODc1IiBzdHlsZT0ic3Ryb2tlOiMxODE4MTg7c3Ryb2tlLXdpZHRoOjEuMDsiLz48bGluZSBzdHlsZT0ic3Ryb2tlOiMxODE4MTg7c3Ryb2tlLXdpZHRoOjEuMDsiIHgxPSIxODkiIHgyPSIxODkiIHkxPSIxOTUuNjg3NSIgeTI9IjIzMC42ODc1Ii8+PHBvbHlnb24gZmlsbD0iIzE4MTgxOCIgcG9pbnRzPSIxODUsMjIwLjY4NzUsMTg5LDIzMC42ODc1LDE5MywyMjAuNjg3NSwxODksMjI0LjY4NzUiIHN0eWxlPSJzdHJva2U6IzE4MTgxODtzdHJva2Utd2lkdGg6MS4wOyIvPjxsaW5lIHN0eWxlPSJzdHJva2U6IzE4MTgxODtzdHJva2Utd2lkdGg6MS4wOyIgeDE9IjY5IiB4Mj0iNjkiIHkxPSIxNDIuODQzOCIgeTI9IjE2Mi44NDM4Ii8+PHBvbHlnb24gZmlsbD0iIzE4MTgxOCIgcG9pbnRzPSI2NSwxNTIuODQzOCw2OSwxNjIuODQzOCw3MywxNTIuODQzOCw2OSwxNTYuODQzOCIgc3R5bGU9InN0cm9rZTojMTgxODE4O3N0cm9rZS13aWR0aDoxLjA7Ii8+PGxpbmUgc3R5bGU9InN0cm9rZTojMTgxODE4O3N0cm9rZS13aWR0aDoxLjA7IiB4MT0iMTg5IiB4Mj0iMTg5IiB5MT0iMTQyLjg0MzgiIHkyPSIxNjIuODQzOCIvPjxwb2x5Z29uIGZpbGw9IiMxODE4MTgiIHBvaW50cz0iMTg1LDE1Mi44NDM4LDE4OSwxNjIuODQzOCwxOTMsMTUyLjg0MzgsMTg5LDE1Ni44NDM4IiBzdHlsZT0ic3Ryb2tlOiMxODE4MTg7c3Ryb2tlLXdpZHRoOjEuMDsiLz48bGluZSBzdHlsZT0ic3Ryb2tlOiMxODE4MTg7c3Ryb2tlLXdpZHRoOjEuMDsiIHgxPSI2OSIgeDI9IjY5IiB5MT0iMjYzLjUzMTMiIHkyPSIyODMuNTMxMyIvPjxwb2x5Z29uIGZpbGw9IiMxODE4MTgiIHBvaW50cz0iNjUsMjczLjUzMTMsNjksMjgzLjUzMTMsNzMsMjczLjUzMTMsNjksMjc3LjUzMTMiIHN0eWxlPSJzdHJva2U6IzE4MTgxODtzdHJva2Utd2lkdGg6MS4wOyIvPjxsaW5lIHN0eWxlPSJzdHJva2U6IzE4MTgxODtzdHJva2Utd2lkdGg6MS4wOyIgeDE9IjE4OSIgeDI9IjE4OSIgeTE9IjI2My41MzEzIiB5Mj0iMjgzLjUzMTMiLz48cG9seWdvbiBmaWxsPSIjMTgxODE4IiBwb2ludHM9IjE4NSwyNzMuNTMxMywxODksMjgzLjUzMTMsMTkzLDI3My41MzEzLDE4OSwyNzcuNTMxMyIgc3R5bGU9InN0cm9rZTojMTgxODE4O3N0cm9rZS13aWR0aDoxLjA7Ii8+PGxpbmUgc3R5bGU9InN0cm9rZTojMTgxODE4O3N0cm9rZS13aWR0aDoxLjA7IiB4MT0iMzM5IiB4Mj0iMzM5IiB5MT0iMjk3LjUzMTMiIHkyPSIzMTcuNTMxMyIvPjxwb2x5Z29uIGZpbGw9IiMxODE4MTgiIHBvaW50cz0iMzM1LDMwNy41MzEzLDMzOSwzMTcuNTMxMywzNDMsMzA3LjUzMTMsMzM5LDMxMS41MzEzIiBzdHlsZT0ic3Ryb2tlOiMxODE4MTg7c3Ryb2tlLXdpZHRoOjEuMDsiLz48bGluZSBzdHlsZT0ic3Ryb2tlOiMxODE4MTg7c3Ryb2tlLXdpZHRoOjEuMDsiIHgxPSI0NTkiIHgyPSI0NTkiIHkxPSIyOTcuNTMxMyIgeTI9IjMxNy41MzEzIi8+PHBvbHlnb24gZmlsbD0iIzE4MTgxOCIgcG9pbnRzPSI0NTUsMzA3LjUzMTMsNDU5LDMxNy41MzEzLDQ2MywzMDcuNTMxMyw0NTksMzExLjUzMTMiIHN0eWxlPSJzdHJva2U6IzE4MTgxODtzdHJva2Utd2lkdGg6MS4wOyIvPjxsaW5lIHN0eWxlPSJzdHJva2U6IzE4MTgxODtzdHJva2Utd2lkdGg6MS4wOyIgeDE9IjMzOSIgeDI9IjMzOSIgeTE9IjI0NC42ODc1IiB5Mj0iMjY0LjY4NzUiLz48cG9seWdvbiBmaWxsPSIjMTgxODE4IiBwb2ludHM9IjMzNSwyNTQuNjg3NSwzMzksMjY0LjY4NzUsMzQzLDI1NC42ODc1LDMzOSwyNTguNjg3NSIgc3R5bGU9InN0cm9rZTojMTgxODE4O3N0cm9rZS13aWR0aDoxLjA7Ii8+PGxpbmUgc3R5bGU9InN0cm9rZTojMTgxODE4O3N0cm9rZS13aWR0aDoxLjA7IiB4MT0iNDU5IiB4Mj0iNDU5IiB5MT0iMjQ0LjY4NzUiIHkyPSIyNjQuNjg3NSIvPjxwb2x5Z29uIGZpbGw9IiMxODE4MTgiIHBvaW50cz0iNDU1LDI1NC42ODc1LDQ1OSwyNjQuNjg3NSw0NjMsMjU0LjY4NzUsNDU5LDI1OC42ODc1IiBzdHlsZT0ic3Ryb2tlOiMxODE4MTg7c3Ryb2tlLXdpZHRoOjEuMDsiLz48bGluZSBzdHlsZT0ic3Ryb2tlOiMxODE4MTg7c3Ryb2tlLXdpZHRoOjEuMDsiIHgxPSIzMzkiIHgyPSIzMzkiIHkxPSIzNTAuMzc1IiB5Mj0iMzcwLjM3NSIvPjxwb2x5Z29uIGZpbGw9IiMxODE4MTgiIHBvaW50cz0iMzM1LDM2MC4zNzUsMzM5LDM3MC4zNzUsMzQzLDM2MC4zNzUsMzM5LDM2NC4zNzUiIHN0eWxlPSJzdHJva2U6IzE4MTgxODtzdHJva2Utd2lkdGg6MS4wOyIvPjxsaW5lIHN0eWxlPSJzdHJva2U6IzE4MTgxODtzdHJva2Utd2lkdGg6MS4wOyIgeDE9IjQ1OSIgeDI9IjQ1OSIgeTE9IjM1MC4zNzUiIHkyPSIzNzAuMzc1Ii8+PHBvbHlnb24gZmlsbD0iIzE4MTgxOCIgcG9pbnRzPSI0NTUsMzYwLjM3NSw0NTksMzcwLjM3NSw0NjMsMzYwLjM3NSw0NTksMzY0LjM3NSIgc3R5bGU9InN0cm9rZTojMTgxODE4O3N0cm9rZS13aWR0aDoxLjA7Ii8+PGxpbmUgc3R5bGU9InN0cm9rZTojMTgxODE4O3N0cm9rZS13aWR0aDoxLjA7IiB4MT0iNDQ5IiB4Mj0iMzk5IiB5MT0iMjE2LjY4NzUiIHkyPSIyMTYuNjg3NSIvPjxsaW5lIHN0eWxlPSJzdHJva2U6IzE4MTgxODtzdHJva2Utd2lkdGg6MS4wOyIgeDE9IjM5OSIgeDI9IjM5OSIgeTE9IjIxNi42ODc1IiB5Mj0iMjM4LjY4NzUiLz48cG9seWdvbiBmaWxsPSIjMTgxODE4IiBwb2ludHM9IjM5NSwyMjguNjg3NSwzOTksMjM4LjY4NzUsNDAzLDIyOC42ODc1LDM5OSwyMzIuNjg3NSIgc3R5bGU9InN0cm9rZTojMTgxODE4O3N0cm9rZS13aWR0aDoxLjA7Ii8+PGxpbmUgc3R5bGU9InN0cm9rZTojMTgxODE4O3N0cm9rZS13aWR0aDoxLjA7IiB4MT0iNTIzIiB4Mj0iNTczIiB5MT0iMjE2LjY4NzUiIHkyPSIyMTYuNjg3NSIvPjxsaW5lIHN0eWxlPSJzdHJva2U6IzE4MTgxODtzdHJva2Utd2lkdGg6MS4wOyIgeDE9IjU3MyIgeDI9IjU3MyIgeTE9IjIxNi42ODc1IiB5Mj0iMjM4LjY4NzUiLz48cG9seWdvbiBmaWxsPSIjMTgxODE4IiBwb2ludHM9IjU2OSwyMjguNjg3NSw1NzMsMjM4LjY4NzUsNTc3LDIyOC42ODc1LDU3MywyMzIuNjg3NSIgc3R5bGU9InN0cm9rZTojMTgxODE4O3N0cm9rZS13aWR0aDoxLjA7Ii8+PGxpbmUgc3R5bGU9InN0cm9rZTojMTgxODE4O3N0cm9rZS13aWR0aDoxLjA7IiB4MT0iMzk5IiB4Mj0iMzk5IiB5MT0iMzc2LjM3NSIgeTI9IjM5NC4zNzUiLz48bGluZSBzdHlsZT0ic3Ryb2tlOiMxODE4MTg7c3Ryb2tlLXdpZHRoOjEuMDsiIHgxPSIzOTkiIHgyPSI0NzQiIHkxPSIzOTQuMzc1IiB5Mj0iMzk0LjM3NSIvPjxwb2x5Z29uIGZpbGw9IiMxODE4MTgiIHBvaW50cz0iNDY0LDM5MC4zNzUsNDc0LDM5NC4zNzUsNDY0LDM5OC4zNzUsNDY4LDM5NC4zNzUiIHN0eWxlPSJzdHJva2U6IzE4MTgxODtzdHJva2Utd2lkdGg6MS4wOyIvPjxsaW5lIHN0eWxlPSJzdHJva2U6IzE4MTgxODtzdHJva2Utd2lkdGg6MS4wOyIgeDE9IjU3MyIgeDI9IjU3MyIgeTE9IjI3MS41MzEzIiB5Mj0iMzk0LjM3NSIvPjxsaW5lIHN0eWxlPSJzdHJva2U6IzE4MTgxODtzdHJva2Utd2lkdGg6MS4wOyIgeDE9IjU3MyIgeDI9IjQ5OCIgeTE9IjM5NC4zNzUiIHkyPSIzOTQuMzc1Ii8+PHBvbHlnb24gZmlsbD0iIzE4MTgxOCIgcG9pbnRzPSI1MDgsMzkwLjM3NSw0OTgsMzk0LjM3NSw1MDgsMzk4LjM3NSw1MDQsMzk0LjM3NSIgc3R5bGU9InN0cm9rZTojMTgxODE4O3N0cm9rZS13aWR0aDoxLjA7Ii8+PGxpbmUgc3R5bGU9InN0cm9rZTojMTgxODE4O3N0cm9rZS13aWR0aDoxLjA7IiB4MT0iNDg2IiB4Mj0iNDg2IiB5MT0iMTY5LjY4NzUiIHkyPSIyMDQuNjg3NSIvPjxwb2x5Z29uIGZpbGw9IiMxODE4MTgiIHBvaW50cz0iNDgyLDE5NC42ODc1LDQ4NiwyMDQuNjg3NSw0OTAsMTk0LjY4NzUsNDg2LDE5OC42ODc1IiBzdHlsZT0ic3Ryb2tlOiMxODE4MTg7c3Ryb2tlLXdpZHRoOjEuMDsiLz48bGluZSBzdHlsZT0ic3Ryb2tlOiMxODE4MTg7c3Ryb2tlLXdpZHRoOjEuMDsiIHgxPSIyNTQiIHgyPSIxMjkiIHkxPSIxMTQuODQzOCIgeTI9IjExNC44NDM4Ii8+PGxpbmUgc3R5bGU9InN0cm9rZTojMTgxODE4O3N0cm9rZS13aWR0aDoxLjA7IiB4MT0iMTI5IiB4Mj0iMTI5IiB5MT0iMTE0Ljg0MzgiIHkyPSIxMzYuODQzOCIvPjxwb2x5Z29uIGZpbGw9IiMxODE4MTgiIHBvaW50cz0iMTI1LDEyNi44NDM4LDEyOSwxMzYuODQzOCwxMzMsMTI2Ljg0MzgsMTI5LDEzMC44NDM4IiBzdHlsZT0ic3Ryb2tlOiMxODE4MTg7c3Ryb2tlLXdpZHRoOjEuMDsiLz48bGluZSBzdHlsZT0ic3Ryb2tlOiMxODE4MTg7c3Ryb2tlLXdpZHRoOjEuMDsiIHgxPSIzNjEiIHgyPSI0ODYiIHkxPSIxMTQuODQzOCIgeTI9IjExNC44NDM4Ii8+PGxpbmUgc3R5bGU9InN0cm9rZTojMTgxODE4O3N0cm9rZS13aWR0aDoxLjA7IiB4MT0iNDg2IiB4Mj0iNDg2IiB5MT0iMTE0Ljg0MzgiIHkyPSIxMzYuODQzOCIvPjxwb2x5Z29uIGZpbGw9IiMxODE4MTgiIHBvaW50cz0iNDgyLDEyNi44NDM4LDQ4NiwxMzYuODQzOCw0OTAsMTI2Ljg0MzgsNDg2LDEzMC44NDM4IiBzdHlsZT0ic3Ryb2tlOiMxODE4MTg7c3Ryb2tlLXdpZHRoOjEuMDsiLz48bGluZSBzdHlsZT0ic3Ryb2tlOiMxODE4MTg7c3Ryb2tlLXdpZHRoOjEuMDsiIHgxPSIxMjkiIHgyPSIxMjkiIHkxPSIyODkuNTMxMyIgeTI9IjQyNC4zNzUiLz48bGluZSBzdHlsZT0ic3Ryb2tlOiMxODE4MTg7c3Ryb2tlLXdpZHRoOjEuMDsiIHgxPSIxMjkiIHgyPSIyOTUuNSIgeTE9IjQyNC4zNzUiIHkyPSI0MjQuMzc1Ii8+PHBvbHlnb24gZmlsbD0iIzE4MTgxOCIgcG9pbnRzPSIyODUuNSw0MjAuMzc1LDI5NS41LDQyNC4zNzUsMjg1LjUsNDI4LjM3NSwyODkuNSw0MjQuMzc1IiBzdHlsZT0ic3Ryb2tlOiMxODE4MTg7c3Ryb2tlLXdpZHRoOjEuMDsiLz48bGluZSBzdHlsZT0ic3Ryb2tlOiMxODE4MTg7c3Ryb2tlLXdpZHRoOjEuMDsiIHgxPSI0ODYiIHgyPSI0ODYiIHkxPSI0MDYuMzc1IiB5Mj0iNDI0LjM3NSIvPjxsaW5lIHN0eWxlPSJzdHJva2U6IzE4MTgxODtzdHJva2Utd2lkdGg6MS4wOyIgeDE9IjQ4NiIgeDI9IjMxOS41IiB5MT0iNDI0LjM3NSIgeTI9IjQyNC4zNzUiLz48cG9seWdvbiBmaWxsPSIjMTgxODE4IiBwb2ludHM9IjMyOS41LDQyMC4zNzUsMzE5LjUsNDI0LjM3NSwzMjkuNSw0MjguMzc1LDMyNS41LDQyNC4zNzUiIHN0eWxlPSJzdHJva2U6IzE4MTgxODtzdHJva2Utd2lkdGg6MS4wOyIvPjxsaW5lIHN0eWxlPSJzdHJva2U6IzE4MTgxODtzdHJva2Utd2lkdGg6MS4wOyIgeDE9IjMwNy41IiB4Mj0iMzA3LjUiIHkxPSI4Mi44NDM4IiB5Mj0iMTAyLjg0MzgiLz48cG9seWdvbiBmaWxsPSIjMTgxODE4IiBwb2ludHM9IjMwMy41LDkyLjg0MzgsMzA3LjUsMTAyLjg0MzgsMzExLjUsOTIuODQzOCwzMDcuNSw5Ni44NDM4IiBzdHlsZT0ic3Ryb2tlOiMxODE4MTg7c3Ryb2tlLXdpZHRoOjEuMDsiLz48bGluZSBzdHlsZT0ic3Ryb2tlOiMxODE4MTg7c3Ryb2tlLXdpZHRoOjEuMDsiIHgxPSIzMDcuNSIgeDI9IjMwNy41IiB5MT0iNDM2LjM3NSIgeTI9IjQ1Ni4zNzUiLz48cG9seWdvbiBmaWxsPSIjMTgxODE4IiBwb2ludHM9IjMwMy41LDQ0Ni4zNzUsMzA3LjUsNDU2LjM3NSwzMTEuNSw0NDYuMzc1LDMwNy41LDQ1MC4zNzUiIHN0eWxlPSJzdHJva2U6IzE4MTgxODtzdHJva2Utd2lkdGg6MS4wOyIvPjwhLS1TUkM9W0FvdjlCMmhYdWg5d3NUM3ZoN2xicXlNRHB0VmppRVJZb2FuSnE3V3NPX3RKMlNrVVJqX3FoQV9ac1RwY3ZwRHRGenF4ckx2SmVJR1pER3lpZ3ljYjAwSGYtS05QTzBPOE0zcmxzbGNxVkpVR1ZCNXJ0aEVVcGZVSnJiY1pJOEE0RW9PeXhQZmwzVFVpYTlZVWM5YzdSaUlwQVRqVUpFXzdDMDhnWjZINFFidUFuMHNmRVNNZjJYZjA5cUZTUFZMcTN6MlNOSDM3RnJsTzFiNkR5MVg0MGpDXzY3dVl3MnlTVmlGWEZ1OS1uRTVGNUItMkVRWi1YTVlSdEZqYXh2b2RfVEVVUlVrMDFxemM2WFU0djJla29JeTAwMDAwXS0tPjwvZz48L3N2Zz4=;" parent="1" vertex="1">
            <mxGeometry x="-80" y="3035" width="618" height="489" as="geometry" />
          </mxCell>
        </UserObject>
        <mxCell id="3U-3EoWDj0iMzqLdLdJn-7" value="选择壁纸" style="whiteSpace=wrap;strokeWidth=2;" parent="1" vertex="1">
          <mxGeometry x="125" y="2300" width="81" height="34" as="geometry" />
        </mxCell>
        <mxCell id="3U-3EoWDj0iMzqLdLdJn-8" value="是否已授权登录?" style="rhombus;strokeWidth=2;whiteSpace=wrap;" parent="1" vertex="1">
          <mxGeometry x="81" y="2384" width="168" height="168" as="geometry" />
        </mxCell>
        <mxCell id="3U-3EoWDj0iMzqLdLdJn-9" value="点击点赞按钮" style="whiteSpace=wrap;strokeWidth=2;" parent="1" vertex="1">
          <mxGeometry x="20" y="2621" width="112" height="34" as="geometry" />
        </mxCell>
        <mxCell id="3U-3EoWDj0iMzqLdLdJn-10" value="点赞成功" style="whiteSpace=wrap;strokeWidth=2;" parent="1" vertex="1">
          <mxGeometry x="36" y="2748" width="80" height="34" as="geometry" />
        </mxCell>
        <mxCell id="3U-3EoWDj0iMzqLdLdJn-11" value="点击收藏按钮" style="whiteSpace=wrap;strokeWidth=2;" parent="1" vertex="1">
          <mxGeometry x="182" y="2621" width="112" height="34" as="geometry" />
        </mxCell>
        <mxCell id="3U-3EoWDj0iMzqLdLdJn-12" value="收藏成功" style="whiteSpace=wrap;strokeWidth=2;" parent="1" vertex="1">
          <mxGeometry x="199" y="2748" width="79" height="34" as="geometry" />
        </mxCell>
        <mxCell id="3U-3EoWDj0iMzqLdLdJn-13" value="弹出授权框" style="whiteSpace=wrap;strokeWidth=2;" parent="1" vertex="1">
          <mxGeometry x="344" y="2621" width="96" height="34" as="geometry" />
        </mxCell>
        <mxCell id="3U-3EoWDj0iMzqLdLdJn-14" value="是否授权?" style="rhombus;strokeWidth=2;whiteSpace=wrap;" parent="1" vertex="1">
          <mxGeometry x="332" y="2705" width="120" height="120" as="geometry" />
        </mxCell>
        <mxCell id="3U-3EoWDj0iMzqLdLdJn-15" value="点击点赞按钮" style="whiteSpace=wrap;strokeWidth=2;" parent="1" vertex="1">
          <mxGeometry x="101" y="2894" width="112" height="34" as="geometry" />
        </mxCell>
        <mxCell id="3U-3EoWDj0iMzqLdLdJn-16" value="点赞成功" style="whiteSpace=wrap;strokeWidth=2;" parent="1" vertex="1">
          <mxGeometry x="117" y="2978" width="80" height="34" as="geometry" />
        </mxCell>
        <mxCell id="3U-3EoWDj0iMzqLdLdJn-17" value="点击收藏按钮" style="whiteSpace=wrap;strokeWidth=2;" parent="1" vertex="1">
          <mxGeometry x="263" y="2894" width="112" height="34" as="geometry" />
        </mxCell>
        <mxCell id="3U-3EoWDj0iMzqLdLdJn-18" value="收藏成功" style="whiteSpace=wrap;strokeWidth=2;" parent="1" vertex="1">
          <mxGeometry x="280" y="2978" width="79" height="34" as="geometry" />
        </mxCell>
        <mxCell id="3U-3EoWDj0iMzqLdLdJn-19" value="操作取消" style="whiteSpace=wrap;strokeWidth=2;" parent="1" vertex="1">
          <mxGeometry x="425" y="2894" width="80" height="34" as="geometry" />
        </mxCell>
        <mxCell id="3U-3EoWDj0iMzqLdLdJn-20" value="" style="curved=1;startArrow=none;endArrow=block;exitX=0.49382716049382713;exitY=1;entryX=0.5;entryY=0;rounded=0;" parent="1" source="3U-3EoWDj0iMzqLdLdJn-7" target="3U-3EoWDj0iMzqLdLdJn-8" edge="1">
          <mxGeometry relative="1" as="geometry">
            <Array as="points" />
          </mxGeometry>
        </mxCell>
        <mxCell id="3U-3EoWDj0iMzqLdLdJn-21" value="是" style="curved=1;startArrow=none;endArrow=block;exitX=0.1244725738396624;exitY=1;entryX=0.5;entryY=0;rounded=0;" parent="1" source="3U-3EoWDj0iMzqLdLdJn-8" target="3U-3EoWDj0iMzqLdLdJn-9" edge="1">
          <mxGeometry relative="1" as="geometry">
            <Array as="points">
              <mxPoint x="76" y="2587" />
            </Array>
          </mxGeometry>
        </mxCell>
        <mxCell id="3U-3EoWDj0iMzqLdLdJn-22" value="" style="curved=1;startArrow=none;endArrow=block;exitX=0.5;exitY=1;entryX=0.5;entryY=0;rounded=0;" parent="1" source="3U-3EoWDj0iMzqLdLdJn-9" target="3U-3EoWDj0iMzqLdLdJn-10" edge="1">
          <mxGeometry relative="1" as="geometry">
            <Array as="points" />
          </mxGeometry>
        </mxCell>
        <mxCell id="3U-3EoWDj0iMzqLdLdJn-23" value="是" style="curved=1;startArrow=none;endArrow=block;exitX=0.8080168776371308;exitY=1;entryX=0.5;entryY=0;rounded=0;" parent="1" source="3U-3EoWDj0iMzqLdLdJn-8" target="3U-3EoWDj0iMzqLdLdJn-11" edge="1">
          <mxGeometry relative="1" as="geometry">
            <Array as="points">
              <mxPoint x="238" y="2587" />
            </Array>
          </mxGeometry>
        </mxCell>
        <mxCell id="3U-3EoWDj0iMzqLdLdJn-24" value="" style="curved=1;startArrow=none;endArrow=block;exitX=0.5;exitY=1;entryX=0.4936708860759494;entryY=0;rounded=0;" parent="1" source="3U-3EoWDj0iMzqLdLdJn-11" target="3U-3EoWDj0iMzqLdLdJn-12" edge="1">
          <mxGeometry relative="1" as="geometry">
            <Array as="points" />
          </mxGeometry>
        </mxCell>
        <mxCell id="3U-3EoWDj0iMzqLdLdJn-25" value="否" style="curved=1;startArrow=none;endArrow=block;exitX=1;exitY=0.7610132158590309;entryX=0.5;entryY=0;rounded=0;" parent="1" source="3U-3EoWDj0iMzqLdLdJn-8" target="3U-3EoWDj0iMzqLdLdJn-13" edge="1">
          <mxGeometry relative="1" as="geometry">
            <Array as="points">
              <mxPoint x="392" y="2587" />
            </Array>
          </mxGeometry>
        </mxCell>
        <mxCell id="3U-3EoWDj0iMzqLdLdJn-26" value="" style="curved=1;startArrow=none;endArrow=block;exitX=0.5;exitY=1;entryX=0.5;entryY=0;rounded=0;" parent="1" source="3U-3EoWDj0iMzqLdLdJn-13" target="3U-3EoWDj0iMzqLdLdJn-14" edge="1">
          <mxGeometry relative="1" as="geometry">
            <Array as="points" />
          </mxGeometry>
        </mxCell>
        <mxCell id="3U-3EoWDj0iMzqLdLdJn-27" value="是" style="curved=1;startArrow=none;endArrow=block;exitX=0;exitY=0.7010638297872342;entryX=0.5;entryY=0;rounded=0;" parent="1" source="3U-3EoWDj0iMzqLdLdJn-14" target="3U-3EoWDj0iMzqLdLdJn-15" edge="1">
          <mxGeometry relative="1" as="geometry">
            <Array as="points">
              <mxPoint x="157" y="2860" />
            </Array>
          </mxGeometry>
        </mxCell>
        <mxCell id="3U-3EoWDj0iMzqLdLdJn-28" value="" style="curved=1;startArrow=none;endArrow=block;exitX=0.5;exitY=1;entryX=0.5;entryY=0;rounded=0;" parent="1" source="3U-3EoWDj0iMzqLdLdJn-15" target="3U-3EoWDj0iMzqLdLdJn-16" edge="1">
          <mxGeometry relative="1" as="geometry">
            <Array as="points" />
          </mxGeometry>
        </mxCell>
        <mxCell id="3U-3EoWDj0iMzqLdLdJn-29" value="是" style="curved=1;startArrow=none;endArrow=block;exitX=0.11375661375661394;exitY=1;entryX=0.5;entryY=0;rounded=0;" parent="1" source="3U-3EoWDj0iMzqLdLdJn-14" target="3U-3EoWDj0iMzqLdLdJn-17" edge="1">
          <mxGeometry relative="1" as="geometry">
            <Array as="points">
              <mxPoint x="319" y="2860" />
            </Array>
          </mxGeometry>
        </mxCell>
        <mxCell id="3U-3EoWDj0iMzqLdLdJn-30" value="" style="curved=1;startArrow=none;endArrow=block;exitX=0.5;exitY=1;entryX=0.4936708860759494;entryY=0;rounded=0;" parent="1" source="3U-3EoWDj0iMzqLdLdJn-17" target="3U-3EoWDj0iMzqLdLdJn-18" edge="1">
          <mxGeometry relative="1" as="geometry">
            <Array as="points" />
          </mxGeometry>
        </mxCell>
        <mxCell id="3U-3EoWDj0iMzqLdLdJn-31" value="否" style="curved=1;startArrow=none;endArrow=block;exitX=0.886243386243386;exitY=1;entryX=0.5;entryY=0;rounded=0;" parent="1" source="3U-3EoWDj0iMzqLdLdJn-14" target="3U-3EoWDj0iMzqLdLdJn-19" edge="1">
          <mxGeometry relative="1" as="geometry">
            <Array as="points">
              <mxPoint x="465" y="2860" />
            </Array>
          </mxGeometry>
        </mxCell>
        <mxCell id="3U-3EoWDj0iMzqLdLdJn-32" value="用户选择喜欢的壁纸" style="whiteSpace=wrap;strokeWidth=2;" parent="1" vertex="1">
          <mxGeometry x="-479" y="3110" width="160" height="34" as="geometry" />
        </mxCell>
        <mxCell id="3U-3EoWDj0iMzqLdLdJn-33" value="用户点击点赞或收藏按钮" style="whiteSpace=wrap;strokeWidth=2;" parent="1" vertex="1">
          <mxGeometry x="-478" y="3213" width="159" height="34" as="geometry" />
        </mxCell>
        <mxCell id="3U-3EoWDj0iMzqLdLdJn-49" style="edgeStyle=orthogonalEdgeStyle;rounded=0;orthogonalLoop=1;jettySize=auto;html=1;entryX=0.5;entryY=0;entryDx=0;entryDy=0;" parent="1" source="3U-3EoWDj0iMzqLdLdJn-34" target="3U-3EoWDj0iMzqLdLdJn-36" edge="1">
          <mxGeometry relative="1" as="geometry" />
        </mxCell>
        <mxCell id="STSUQURB7wNFmbTN6NKe-1" value="否" style="edgeLabel;html=1;align=center;verticalAlign=middle;resizable=0;points=[];" vertex="1" connectable="0" parent="3U-3EoWDj0iMzqLdLdJn-49">
          <mxGeometry x="-0.4817" y="1" relative="1" as="geometry">
            <mxPoint as="offset" />
          </mxGeometry>
        </mxCell>
        <mxCell id="3U-3EoWDj0iMzqLdLdJn-50" style="edgeStyle=orthogonalEdgeStyle;rounded=0;orthogonalLoop=1;jettySize=auto;html=1;entryX=0.5;entryY=0;entryDx=0;entryDy=0;" parent="1" source="3U-3EoWDj0iMzqLdLdJn-34" target="3U-3EoWDj0iMzqLdLdJn-35" edge="1">
          <mxGeometry relative="1" as="geometry" />
        </mxCell>
        <mxCell id="STSUQURB7wNFmbTN6NKe-2" value="是" style="edgeLabel;html=1;align=center;verticalAlign=middle;resizable=0;points=[];" vertex="1" connectable="0" parent="3U-3EoWDj0iMzqLdLdJn-50">
          <mxGeometry x="-0.4068" y="-3" relative="1" as="geometry">
            <mxPoint as="offset" />
          </mxGeometry>
        </mxCell>
        <mxCell id="3U-3EoWDj0iMzqLdLdJn-34" value="判断是否登录" style="rhombus;strokeWidth=2;whiteSpace=wrap;" parent="1" vertex="1">
          <mxGeometry x="-467" y="3316" width="136" height="84" as="geometry" />
        </mxCell>
        <mxCell id="STSUQURB7wNFmbTN6NKe-3" style="edgeStyle=orthogonalEdgeStyle;rounded=0;orthogonalLoop=1;jettySize=auto;html=1;entryX=0;entryY=0.5;entryDx=0;entryDy=0;" edge="1" parent="1" source="3U-3EoWDj0iMzqLdLdJn-35" target="3U-3EoWDj0iMzqLdLdJn-39">
          <mxGeometry relative="1" as="geometry">
            <mxPoint x="-460" y="3840" as="targetPoint" />
            <Array as="points">
              <mxPoint x="-598" y="3767" />
            </Array>
          </mxGeometry>
        </mxCell>
        <mxCell id="3U-3EoWDj0iMzqLdLdJn-35" value="点赞或收藏成功" style="whiteSpace=wrap;strokeWidth=2;" parent="1" vertex="1">
          <mxGeometry x="-670" y="3490" width="144" height="34" as="geometry" />
        </mxCell>
        <mxCell id="3U-3EoWDj0iMzqLdLdJn-36" value="提示授权登录" style="whiteSpace=wrap;strokeWidth=2;" parent="1" vertex="1">
          <mxGeometry x="-319" y="3440" width="113" height="34" as="geometry" />
        </mxCell>
        <mxCell id="3U-3EoWDj0iMzqLdLdJn-39" value="结束" style="whiteSpace=wrap;strokeWidth=2;" parent="1" vertex="1">
          <mxGeometry x="-423.5" y="3750" width="49" height="34" as="geometry" />
        </mxCell>
        <mxCell id="3U-3EoWDj0iMzqLdLdJn-40" value="" style="curved=1;startArrow=none;endArrow=block;exitX=0.5015625;exitY=1;entryX=0.49842767295597484;entryY=0;rounded=0;" parent="1" source="3U-3EoWDj0iMzqLdLdJn-32" target="3U-3EoWDj0iMzqLdLdJn-33" edge="1">
          <mxGeometry relative="1" as="geometry">
            <Array as="points" />
          </mxGeometry>
        </mxCell>
        <mxCell id="3U-3EoWDj0iMzqLdLdJn-41" value="" style="curved=1;startArrow=none;endArrow=block;exitX=0.49842767295597484;exitY=1;entryX=0.5018382352941176;entryY=0;rounded=0;" parent="1" source="3U-3EoWDj0iMzqLdLdJn-33" target="3U-3EoWDj0iMzqLdLdJn-34" edge="1">
          <mxGeometry relative="1" as="geometry">
            <Array as="points" />
          </mxGeometry>
        </mxCell>
        <mxCell id="3U-3EoWDj0iMzqLdLdJn-44" value="" style="curved=1;startArrow=none;endArrow=block;exitX=0.5022123893805309;exitY=1;entryX=0.5;entryY=0;rounded=0;entryDx=0;entryDy=0;" parent="1" source="3U-3EoWDj0iMzqLdLdJn-36" target="STSUQURB7wNFmbTN6NKe-6" edge="1">
          <mxGeometry relative="1" as="geometry">
            <Array as="points" />
            <mxPoint x="-263.25" y="3540" as="targetPoint" />
          </mxGeometry>
        </mxCell>
        <mxCell id="3U-3EoWDj0iMzqLdLdJn-53" value="" style="edgeStyle=orthogonalEdgeStyle;rounded=0;orthogonalLoop=1;jettySize=auto;html=1;" parent="1" source="3U-3EoWDj0iMzqLdLdJn-51" target="3U-3EoWDj0iMzqLdLdJn-52" edge="1">
          <mxGeometry relative="1" as="geometry" />
        </mxCell>
        <mxCell id="3U-3EoWDj0iMzqLdLdJn-58" value="点击收藏或点赞" style="edgeLabel;html=1;align=center;verticalAlign=middle;resizable=0;points=[];" parent="3U-3EoWDj0iMzqLdLdJn-53" vertex="1" connectable="0">
          <mxGeometry x="-0.075" y="1" relative="1" as="geometry">
            <mxPoint as="offset" />
          </mxGeometry>
        </mxCell>
        <mxCell id="3U-3EoWDj0iMzqLdLdJn-51" value="用户选择喜欢的壁纸" style="rounded=0;whiteSpace=wrap;html=1;" parent="1" vertex="1">
          <mxGeometry x="67" y="3610" width="133" height="30" as="geometry" />
        </mxCell>
        <mxCell id="3U-3EoWDj0iMzqLdLdJn-56" style="edgeStyle=orthogonalEdgeStyle;rounded=0;orthogonalLoop=1;jettySize=auto;html=1;entryX=0.5;entryY=0;entryDx=0;entryDy=0;" parent="1" source="3U-3EoWDj0iMzqLdLdJn-52" target="3U-3EoWDj0iMzqLdLdJn-55" edge="1">
          <mxGeometry relative="1" as="geometry" />
        </mxCell>
        <mxCell id="3U-3EoWDj0iMzqLdLdJn-57" value="否" style="edgeLabel;html=1;align=center;verticalAlign=middle;resizable=0;points=[];" parent="3U-3EoWDj0iMzqLdLdJn-56" vertex="1" connectable="0">
          <mxGeometry x="-0.4114" y="4" relative="1" as="geometry">
            <mxPoint as="offset" />
          </mxGeometry>
        </mxCell>
        <mxCell id="3U-3EoWDj0iMzqLdLdJn-60" style="edgeStyle=orthogonalEdgeStyle;rounded=0;orthogonalLoop=1;jettySize=auto;html=1;entryX=0.5;entryY=0;entryDx=0;entryDy=0;" parent="1" source="3U-3EoWDj0iMzqLdLdJn-52" target="3U-3EoWDj0iMzqLdLdJn-59" edge="1">
          <mxGeometry relative="1" as="geometry" />
        </mxCell>
        <mxCell id="3U-3EoWDj0iMzqLdLdJn-64" value="是" style="edgeLabel;html=1;align=center;verticalAlign=middle;resizable=0;points=[];" parent="3U-3EoWDj0iMzqLdLdJn-60" vertex="1" connectable="0">
          <mxGeometry x="-0.4336" relative="1" as="geometry">
            <mxPoint as="offset" />
          </mxGeometry>
        </mxCell>
        <mxCell id="3U-3EoWDj0iMzqLdLdJn-52" value="判断是否登录" style="rhombus;strokeWidth=2;whiteSpace=wrap;" parent="1" vertex="1">
          <mxGeometry x="65.5" y="3720" width="136" height="84" as="geometry" />
        </mxCell>
        <mxCell id="3U-3EoWDj0iMzqLdLdJn-54" value="结束" style="rounded=0;whiteSpace=wrap;html=1;" parent="1" vertex="1">
          <mxGeometry x="81" y="3980" width="69" height="30" as="geometry" />
        </mxCell>
        <mxCell id="3U-3EoWDj0iMzqLdLdJn-55" value="提示授权登录" style="rounded=0;whiteSpace=wrap;html=1;" parent="1" vertex="1">
          <mxGeometry x="230" y="3830" width="90" height="29" as="geometry" />
        </mxCell>
        <mxCell id="3U-3EoWDj0iMzqLdLdJn-62" style="edgeStyle=orthogonalEdgeStyle;rounded=0;orthogonalLoop=1;jettySize=auto;html=1;entryX=0;entryY=0.5;entryDx=0;entryDy=0;" parent="1" source="3U-3EoWDj0iMzqLdLdJn-59" target="3U-3EoWDj0iMzqLdLdJn-54" edge="1">
          <mxGeometry relative="1" as="geometry">
            <Array as="points">
              <mxPoint x="-30" y="3925" />
            </Array>
          </mxGeometry>
        </mxCell>
        <mxCell id="3U-3EoWDj0iMzqLdLdJn-59" value="收藏或点赞成功" style="rounded=0;whiteSpace=wrap;html=1;" parent="1" vertex="1">
          <mxGeometry x="-80" y="3829" width="96" height="30" as="geometry" />
        </mxCell>
        <mxCell id="3U-3EoWDj0iMzqLdLdJn-65" value="" style="rounded=0;whiteSpace=wrap;html=1;" parent="1" vertex="1">
          <mxGeometry x="158" y="3910" width="120" height="60" as="geometry" />
        </mxCell>
        <mxCell id="3U-3EoWDj0iMzqLdLdJn-66" value="" style="rounded=0;whiteSpace=wrap;html=1;" parent="1" vertex="1">
          <mxGeometry x="332" y="3910" width="120" height="60" as="geometry" />
        </mxCell>
        <mxCell id="STSUQURB7wNFmbTN6NKe-12" style="edgeStyle=orthogonalEdgeStyle;rounded=0;orthogonalLoop=1;jettySize=auto;html=1;entryX=0.5;entryY=0;entryDx=0;entryDy=0;" edge="1" parent="1" source="STSUQURB7wNFmbTN6NKe-5" target="3U-3EoWDj0iMzqLdLdJn-39">
          <mxGeometry relative="1" as="geometry" />
        </mxCell>
        <mxCell id="STSUQURB7wNFmbTN6NKe-5" value="点赞或收藏成功" style="rounded=0;whiteSpace=wrap;html=1;" vertex="1" parent="1">
          <mxGeometry x="-450" y="3660" width="100" height="30" as="geometry" />
        </mxCell>
        <mxCell id="STSUQURB7wNFmbTN6NKe-7" style="edgeStyle=orthogonalEdgeStyle;rounded=0;orthogonalLoop=1;jettySize=auto;html=1;entryX=0.5;entryY=0;entryDx=0;entryDy=0;exitX=0;exitY=0.5;exitDx=0;exitDy=0;" edge="1" parent="1" source="STSUQURB7wNFmbTN6NKe-6" target="STSUQURB7wNFmbTN6NKe-5">
          <mxGeometry relative="1" as="geometry" />
        </mxCell>
        <mxCell id="STSUQURB7wNFmbTN6NKe-8" value="是" style="edgeLabel;html=1;align=center;verticalAlign=middle;resizable=0;points=[];" vertex="1" connectable="0" parent="STSUQURB7wNFmbTN6NKe-7">
          <mxGeometry x="-0.5956" y="-1" relative="1" as="geometry">
            <mxPoint as="offset" />
          </mxGeometry>
        </mxCell>
        <mxCell id="STSUQURB7wNFmbTN6NKe-10" style="edgeStyle=orthogonalEdgeStyle;rounded=0;orthogonalLoop=1;jettySize=auto;html=1;entryX=1;entryY=0.5;entryDx=0;entryDy=0;" edge="1" parent="1" source="STSUQURB7wNFmbTN6NKe-6" target="3U-3EoWDj0iMzqLdLdJn-39">
          <mxGeometry relative="1" as="geometry">
            <Array as="points">
              <mxPoint x="-170" y="3570" />
              <mxPoint x="-170" y="3767" />
            </Array>
          </mxGeometry>
        </mxCell>
        <mxCell id="STSUQURB7wNFmbTN6NKe-11" value="否" style="edgeLabel;html=1;align=center;verticalAlign=middle;resizable=0;points=[];" vertex="1" connectable="0" parent="STSUQURB7wNFmbTN6NKe-10">
          <mxGeometry x="-0.9366" y="-3" relative="1" as="geometry">
            <mxPoint as="offset" />
          </mxGeometry>
        </mxCell>
        <mxCell id="STSUQURB7wNFmbTN6NKe-6" value="用户授权登录" style="rhombus;whiteSpace=wrap;html=1;" vertex="1" parent="1">
          <mxGeometry x="-327.5" y="3530" width="130" height="80" as="geometry" />
        </mxCell>
        <mxCell id="STSUQURB7wNFmbTN6NKe-13" value="用户选择壁纸" style="whiteSpace=wrap;strokeWidth=2;" vertex="1" parent="1">
          <mxGeometry x="-390" y="4030" width="112" height="34" as="geometry" />
        </mxCell>
        <mxCell id="STSUQURB7wNFmbTN6NKe-14" value="已登录?" style="rhombus;strokeWidth=2;whiteSpace=wrap;" vertex="1" parent="1">
          <mxGeometry x="-385" y="4114" width="103" height="103" as="geometry" />
        </mxCell>
        <mxCell id="STSUQURB7wNFmbTN6NKe-15" value="下载壁纸" style="whiteSpace=wrap;strokeWidth=2;" vertex="1" parent="1">
          <mxGeometry x="-374" y="4370" width="80" height="34" as="geometry" />
        </mxCell>
        <mxCell id="STSUQURB7wNFmbTN6NKe-16" value="登录" style="whiteSpace=wrap;strokeWidth=2;" vertex="1" parent="1">
          <mxGeometry x="-324" y="4286" width="49" height="34" as="geometry" />
        </mxCell>
        <mxCell id="STSUQURB7wNFmbTN6NKe-17" value="" style="curved=1;startArrow=none;endArrow=block;exitX=0.5;exitY=1;entryX=0.49514563106796117;entryY=0;rounded=0;" edge="1" parent="1" source="STSUQURB7wNFmbTN6NKe-13" target="STSUQURB7wNFmbTN6NKe-14">
          <mxGeometry relative="1" as="geometry">
            <Array as="points" />
          </mxGeometry>
        </mxCell>
        <mxCell id="STSUQURB7wNFmbTN6NKe-18" value="是" style="curved=1;startArrow=none;endArrow=block;exitX=0.296017724091217;exitY=1;entryX=0.3267113095238095;entryY=0;rounded=0;" edge="1" parent="1" source="STSUQURB7wNFmbTN6NKe-14" target="STSUQURB7wNFmbTN6NKe-15">
          <mxGeometry relative="1" as="geometry">
            <Array as="points">
              <mxPoint x="-368" y="4252" />
              <mxPoint x="-368" y="4345" />
            </Array>
          </mxGeometry>
        </mxCell>
        <mxCell id="STSUQURB7wNFmbTN6NKe-19" value="否" style="curved=1;startArrow=none;endArrow=block;exitX=0.6942735380447054;exitY=1;entryX=0.49489795918367346;entryY=0;rounded=0;" edge="1" parent="1" source="STSUQURB7wNFmbTN6NKe-14" target="STSUQURB7wNFmbTN6NKe-16">
          <mxGeometry relative="1" as="geometry">
            <Array as="points">
              <mxPoint x="-300" y="4252" />
            </Array>
          </mxGeometry>
        </mxCell>
        <mxCell id="STSUQURB7wNFmbTN6NKe-20" value="" style="curved=1;startArrow=none;endArrow=block;exitX=0.49489795918367346;exitY=1;entryX=0.6732886904761906;entryY=0;rounded=0;" edge="1" parent="1" source="STSUQURB7wNFmbTN6NKe-16" target="STSUQURB7wNFmbTN6NKe-15">
          <mxGeometry relative="1" as="geometry">
            <Array as="points">
              <mxPoint x="-300" y="4345" />
            </Array>
          </mxGeometry>
        </mxCell>
        <mxCell id="STSUQURB7wNFmbTN6NKe-42" value="用户选择喜欢的壁纸" style="whiteSpace=wrap;strokeWidth=2;" vertex="1" parent="1">
          <mxGeometry x="-749" y="3920" width="160" height="34" as="geometry" />
        </mxCell>
        <mxCell id="STSUQURB7wNFmbTN6NKe-43" value="点击下载按钮" style="whiteSpace=wrap;strokeWidth=2;" vertex="1" parent="1">
          <mxGeometry x="-748" y="4023" width="159" height="34" as="geometry" />
        </mxCell>
        <mxCell id="STSUQURB7wNFmbTN6NKe-44" style="edgeStyle=orthogonalEdgeStyle;rounded=0;orthogonalLoop=1;jettySize=auto;html=1;entryX=0.5;entryY=0;entryDx=0;entryDy=0;" edge="1" source="STSUQURB7wNFmbTN6NKe-48" target="STSUQURB7wNFmbTN6NKe-51" parent="1">
          <mxGeometry relative="1" as="geometry" />
        </mxCell>
        <mxCell id="STSUQURB7wNFmbTN6NKe-45" value="否" style="edgeLabel;html=1;align=center;verticalAlign=middle;resizable=0;points=[];" vertex="1" connectable="0" parent="STSUQURB7wNFmbTN6NKe-44">
          <mxGeometry x="-0.4817" y="1" relative="1" as="geometry">
            <mxPoint as="offset" />
          </mxGeometry>
        </mxCell>
        <mxCell id="STSUQURB7wNFmbTN6NKe-46" style="edgeStyle=orthogonalEdgeStyle;rounded=0;orthogonalLoop=1;jettySize=auto;html=1;entryX=0.5;entryY=0;entryDx=0;entryDy=0;" edge="1" source="STSUQURB7wNFmbTN6NKe-48" target="STSUQURB7wNFmbTN6NKe-50" parent="1">
          <mxGeometry relative="1" as="geometry" />
        </mxCell>
        <mxCell id="STSUQURB7wNFmbTN6NKe-47" value="是" style="edgeLabel;html=1;align=center;verticalAlign=middle;resizable=0;points=[];" vertex="1" connectable="0" parent="STSUQURB7wNFmbTN6NKe-46">
          <mxGeometry x="-0.4068" y="-3" relative="1" as="geometry">
            <mxPoint as="offset" />
          </mxGeometry>
        </mxCell>
        <mxCell id="STSUQURB7wNFmbTN6NKe-48" value="判断是否登录" style="rhombus;strokeWidth=2;whiteSpace=wrap;" vertex="1" parent="1">
          <mxGeometry x="-737" y="4126" width="136" height="84" as="geometry" />
        </mxCell>
        <mxCell id="STSUQURB7wNFmbTN6NKe-49" style="edgeStyle=orthogonalEdgeStyle;rounded=0;orthogonalLoop=1;jettySize=auto;html=1;entryX=0;entryY=0.5;entryDx=0;entryDy=0;" edge="1" source="STSUQURB7wNFmbTN6NKe-50" target="STSUQURB7wNFmbTN6NKe-52" parent="1">
          <mxGeometry relative="1" as="geometry">
            <mxPoint x="-730" y="4650" as="targetPoint" />
            <Array as="points">
              <mxPoint x="-868" y="4577" />
            </Array>
          </mxGeometry>
        </mxCell>
        <mxCell id="STSUQURB7wNFmbTN6NKe-50" value="下载壁纸" style="whiteSpace=wrap;strokeWidth=2;" vertex="1" parent="1">
          <mxGeometry x="-940" y="4300" width="144" height="34" as="geometry" />
        </mxCell>
        <mxCell id="STSUQURB7wNFmbTN6NKe-51" value="提示授权登录" style="whiteSpace=wrap;strokeWidth=2;" vertex="1" parent="1">
          <mxGeometry x="-589" y="4250" width="113" height="34" as="geometry" />
        </mxCell>
        <mxCell id="STSUQURB7wNFmbTN6NKe-52" value="结束" style="whiteSpace=wrap;strokeWidth=2;" vertex="1" parent="1">
          <mxGeometry x="-693.5" y="4560" width="49" height="34" as="geometry" />
        </mxCell>
        <mxCell id="STSUQURB7wNFmbTN6NKe-53" value="" style="curved=1;startArrow=none;endArrow=block;exitX=0.5015625;exitY=1;entryX=0.49842767295597484;entryY=0;rounded=0;" edge="1" source="STSUQURB7wNFmbTN6NKe-42" target="STSUQURB7wNFmbTN6NKe-43" parent="1">
          <mxGeometry relative="1" as="geometry">
            <Array as="points" />
          </mxGeometry>
        </mxCell>
        <mxCell id="STSUQURB7wNFmbTN6NKe-54" value="" style="curved=1;startArrow=none;endArrow=block;exitX=0.49842767295597484;exitY=1;entryX=0.5018382352941176;entryY=0;rounded=0;" edge="1" source="STSUQURB7wNFmbTN6NKe-43" target="STSUQURB7wNFmbTN6NKe-48" parent="1">
          <mxGeometry relative="1" as="geometry">
            <Array as="points" />
          </mxGeometry>
        </mxCell>
        <mxCell id="STSUQURB7wNFmbTN6NKe-55" value="" style="curved=1;startArrow=none;endArrow=block;exitX=0.5022123893805309;exitY=1;entryX=0.5;entryY=0;rounded=0;entryDx=0;entryDy=0;" edge="1" source="STSUQURB7wNFmbTN6NKe-51" target="STSUQURB7wNFmbTN6NKe-62" parent="1">
          <mxGeometry relative="1" as="geometry">
            <Array as="points" />
            <mxPoint x="-533.25" y="4350" as="targetPoint" />
          </mxGeometry>
        </mxCell>
        <mxCell id="STSUQURB7wNFmbTN6NKe-56" style="edgeStyle=orthogonalEdgeStyle;rounded=0;orthogonalLoop=1;jettySize=auto;html=1;entryX=0.5;entryY=0;entryDx=0;entryDy=0;" edge="1" source="STSUQURB7wNFmbTN6NKe-57" target="STSUQURB7wNFmbTN6NKe-52" parent="1">
          <mxGeometry relative="1" as="geometry" />
        </mxCell>
        <mxCell id="STSUQURB7wNFmbTN6NKe-57" value="下载壁纸" style="rounded=0;whiteSpace=wrap;html=1;" vertex="1" parent="1">
          <mxGeometry x="-720" y="4470" width="100" height="30" as="geometry" />
        </mxCell>
        <mxCell id="STSUQURB7wNFmbTN6NKe-58" style="edgeStyle=orthogonalEdgeStyle;rounded=0;orthogonalLoop=1;jettySize=auto;html=1;entryX=0.5;entryY=0;entryDx=0;entryDy=0;exitX=0;exitY=0.5;exitDx=0;exitDy=0;" edge="1" source="STSUQURB7wNFmbTN6NKe-62" target="STSUQURB7wNFmbTN6NKe-57" parent="1">
          <mxGeometry relative="1" as="geometry" />
        </mxCell>
        <mxCell id="STSUQURB7wNFmbTN6NKe-59" value="是" style="edgeLabel;html=1;align=center;verticalAlign=middle;resizable=0;points=[];" vertex="1" connectable="0" parent="STSUQURB7wNFmbTN6NKe-58">
          <mxGeometry x="-0.5956" y="-1" relative="1" as="geometry">
            <mxPoint as="offset" />
          </mxGeometry>
        </mxCell>
        <mxCell id="STSUQURB7wNFmbTN6NKe-60" style="edgeStyle=orthogonalEdgeStyle;rounded=0;orthogonalLoop=1;jettySize=auto;html=1;entryX=1;entryY=0.5;entryDx=0;entryDy=0;" edge="1" source="STSUQURB7wNFmbTN6NKe-62" target="STSUQURB7wNFmbTN6NKe-52" parent="1">
          <mxGeometry relative="1" as="geometry">
            <Array as="points">
              <mxPoint x="-440" y="4380" />
              <mxPoint x="-440" y="4577" />
            </Array>
          </mxGeometry>
        </mxCell>
        <mxCell id="STSUQURB7wNFmbTN6NKe-61" value="否" style="edgeLabel;html=1;align=center;verticalAlign=middle;resizable=0;points=[];" vertex="1" connectable="0" parent="STSUQURB7wNFmbTN6NKe-60">
          <mxGeometry x="-0.9366" y="-3" relative="1" as="geometry">
            <mxPoint as="offset" />
          </mxGeometry>
        </mxCell>
        <mxCell id="STSUQURB7wNFmbTN6NKe-62" value="用户授权登录" style="rhombus;whiteSpace=wrap;html=1;" vertex="1" parent="1">
          <mxGeometry x="-597.5" y="4340" width="130" height="80" as="geometry" />
        </mxCell>
        <mxCell id="STSUQURB7wNFmbTN6NKe-63" value="用户点击我的投稿" style="whiteSpace=wrap;strokeWidth=2;" vertex="1" parent="1">
          <mxGeometry x="20" y="4630" width="143" height="34" as="geometry" />
        </mxCell>
        <mxCell id="STSUQURB7wNFmbTN6NKe-64" value="判断是否登录" style="rhombus;strokeWidth=2;whiteSpace=wrap;" vertex="1" parent="1">
          <mxGeometry x="40" y="4714" width="103" height="66" as="geometry" />
        </mxCell>
        <mxCell id="STSUQURB7wNFmbTN6NKe-65" value="上传壁纸" style="whiteSpace=wrap;strokeWidth=2;" vertex="1" parent="1">
          <mxGeometry x="52" y="4850" width="80" height="34" as="geometry" />
        </mxCell>
        <mxCell id="STSUQURB7wNFmbTN6NKe-67" value="选择分类和标签" style="whiteSpace=wrap;strokeWidth=2;" vertex="1" parent="1">
          <mxGeometry x="27.5" y="4940" width="129" height="34" as="geometry" />
        </mxCell>
        <mxCell id="STSUQURB7wNFmbTN6NKe-80" style="edgeStyle=orthogonalEdgeStyle;rounded=0;orthogonalLoop=1;jettySize=auto;html=1;entryX=0.5;entryY=0;entryDx=0;entryDy=0;" edge="1" parent="1" source="STSUQURB7wNFmbTN6NKe-68" target="STSUQURB7wNFmbTN6NKe-79">
          <mxGeometry relative="1" as="geometry" />
        </mxCell>
        <mxCell id="STSUQURB7wNFmbTN6NKe-68" value="点击投稿" style="whiteSpace=wrap;strokeWidth=2;" vertex="1" parent="1">
          <mxGeometry x="53.5" y="5030" width="80" height="34" as="geometry" />
        </mxCell>
        <mxCell id="STSUQURB7wNFmbTN6NKe-78" value="" style="edgeStyle=orthogonalEdgeStyle;rounded=0;orthogonalLoop=1;jettySize=auto;html=1;" edge="1" parent="1" source="STSUQURB7wNFmbTN6NKe-69" target="STSUQURB7wNFmbTN6NKe-77">
          <mxGeometry relative="1" as="geometry" />
        </mxCell>
        <mxCell id="STSUQURB7wNFmbTN6NKe-69" value="显示登录" style="whiteSpace=wrap;strokeWidth=2;" vertex="1" parent="1">
          <mxGeometry x="250.5" y="4730" width="69.5" height="34" as="geometry" />
        </mxCell>
        <mxCell id="STSUQURB7wNFmbTN6NKe-70" value="" style="curved=1;startArrow=none;endArrow=block;exitX=0.5;exitY=1;entryX=0.5;entryY=0;rounded=0;" edge="1" parent="1" source="STSUQURB7wNFmbTN6NKe-63" target="STSUQURB7wNFmbTN6NKe-64">
          <mxGeometry relative="1" as="geometry">
            <Array as="points" />
          </mxGeometry>
        </mxCell>
        <mxCell id="STSUQURB7wNFmbTN6NKe-71" value="是" style="startArrow=none;endArrow=block;exitX=0.5;exitY=1;entryX=0.5;entryY=0;rounded=0;exitDx=0;exitDy=0;entryDx=0;entryDy=0;" edge="1" parent="1" source="STSUQURB7wNFmbTN6NKe-64" target="STSUQURB7wNFmbTN6NKe-65">
          <mxGeometry relative="1" as="geometry" />
        </mxCell>
        <mxCell id="STSUQURB7wNFmbTN6NKe-72" value="" style="curved=1;startArrow=none;endArrow=block;exitX=0.49375;exitY=1;rounded=0;" edge="1" parent="1" source="STSUQURB7wNFmbTN6NKe-65" target="STSUQURB7wNFmbTN6NKe-67">
          <mxGeometry relative="1" as="geometry">
            <Array as="points" />
            <mxPoint x="91.5" y="5054" as="targetPoint" />
          </mxGeometry>
        </mxCell>
        <mxCell id="STSUQURB7wNFmbTN6NKe-74" value="" style="curved=1;startArrow=none;endArrow=block;exitX=0.5;exitY=1;entryX=0.49375;entryY=0;rounded=0;" edge="1" parent="1" source="STSUQURB7wNFmbTN6NKe-67" target="STSUQURB7wNFmbTN6NKe-68">
          <mxGeometry relative="1" as="geometry">
            <Array as="points" />
          </mxGeometry>
        </mxCell>
        <mxCell id="STSUQURB7wNFmbTN6NKe-75" value="否" style="startArrow=none;endArrow=block;exitX=1;exitY=0.5;rounded=0;exitDx=0;exitDy=0;" edge="1" parent="1" source="STSUQURB7wNFmbTN6NKe-64">
          <mxGeometry relative="1" as="geometry">
            <mxPoint x="250" y="4747" as="targetPoint" />
          </mxGeometry>
        </mxCell>
        <mxCell id="STSUQURB7wNFmbTN6NKe-83" style="edgeStyle=orthogonalEdgeStyle;rounded=0;orthogonalLoop=1;jettySize=auto;html=1;entryX=1;entryY=0.5;entryDx=0;entryDy=0;" edge="1" parent="1" source="STSUQURB7wNFmbTN6NKe-77" target="STSUQURB7wNFmbTN6NKe-65">
          <mxGeometry relative="1" as="geometry" />
        </mxCell>
        <mxCell id="STSUQURB7wNFmbTN6NKe-84" value="是" style="edgeLabel;html=1;align=center;verticalAlign=middle;resizable=0;points=[];" vertex="1" connectable="0" parent="STSUQURB7wNFmbTN6NKe-83">
          <mxGeometry x="-0.7887" y="2" relative="1" as="geometry">
            <mxPoint as="offset" />
          </mxGeometry>
        </mxCell>
        <mxCell id="STSUQURB7wNFmbTN6NKe-85" style="edgeStyle=orthogonalEdgeStyle;rounded=0;orthogonalLoop=1;jettySize=auto;html=1;entryX=1;entryY=0.5;entryDx=0;entryDy=0;" edge="1" parent="1" source="STSUQURB7wNFmbTN6NKe-77" target="STSUQURB7wNFmbTN6NKe-79">
          <mxGeometry relative="1" as="geometry">
            <Array as="points">
              <mxPoint x="360" y="4867" />
              <mxPoint x="360" y="5117" />
            </Array>
          </mxGeometry>
        </mxCell>
        <mxCell id="STSUQURB7wNFmbTN6NKe-86" value="否" style="edgeLabel;html=1;align=center;verticalAlign=middle;resizable=0;points=[];" vertex="1" connectable="0" parent="STSUQURB7wNFmbTN6NKe-85">
          <mxGeometry x="-0.9552" y="4" relative="1" as="geometry">
            <mxPoint as="offset" />
          </mxGeometry>
        </mxCell>
        <mxCell id="STSUQURB7wNFmbTN6NKe-77" value="是否登录" style="rhombus;whiteSpace=wrap;html=1;" vertex="1" parent="1">
          <mxGeometry x="240.25" y="4837" width="90" height="60" as="geometry" />
        </mxCell>
        <mxCell id="STSUQURB7wNFmbTN6NKe-79" value="结束" style="whiteSpace=wrap;strokeWidth=2;" vertex="1" parent="1">
          <mxGeometry x="53.5" y="5100" width="80" height="34" as="geometry" />
        </mxCell>
      </root>
    </mxGraphModel>
  </diagram>
</mxfile>
